<?xml version="1.0" encoding="utf-8"?>
<!-- Generator: Adobe Illustrator 19.0.0, SVG Export Plug-In . SVG Version: 6.00 Build 0)  -->
<svg version="1.1" id="Layer_1" xmlns="http://www.w3.org/2000/svg" xmlns:xlink="http://www.w3.org/1999/xlink" x="0px" y="0px"
	 viewBox="-283 374 45 45" style="enable-background:new -283 374 45 45;" xml:space="preserve">
<style type="text/css">
	.st0{fill:#5D5D5D;}
	.st1{fill:#0BABAB;}
	.st2{fill:none;}
</style>
<g>
	<title>9</title>
	<desc>Created with Sketch.</desc>
	<path class="st0" d="M-253.8,400L-253.8,400c1.2,0,2.1-0.9,2.1-2v-0.7c0-0.8-0.5-1.5-1.2-1.9l1-1c0.1-0.1,0.2-0.3,0.2-0.5v-1.3
		c0-3.3-2.7-6.1-6.1-6.1h-5.4c-3.3,0-6.1,2.7-6.1,6.1v1.3c0,0.2,0.1,0.4,0.2,0.5l1,1c-0.7,0.3-1.2,1-1.2,1.9v0.7c0,1.1,0.9,2,2,2h0
		c0.3,3.4,3.2,6.1,6.7,6.1C-257,406.1-254.1,403.5-253.8,400L-253.8,400z M-253.1,398c0,0.4-0.3,0.7-0.7,0.7v-2
		c0.4,0,0.7,0.3,0.7,0.7V398z M-267.9,392.6c0-2.6,2.1-4.7,4.7-4.7h5.4c2.6,0,4.7,2.1,4.7,4.7v1.1l-0.7,0.7V394
		c0-0.3-0.2-0.6-0.5-0.7l-7.4-2c-0.1,0-0.3,0-0.4,0l-4.7,2c-0.2,0.1-0.4,0.4-0.4,0.6v0.4l-0.7-0.7V392.6z M-267.9,398v-0.7
		c0-0.4,0.3-0.7,0.7-0.7v2C-267.6,398.7-267.9,398.4-267.9,398L-267.9,398z M-260.5,404.8c-3,0-5.4-2.4-5.4-5.4v-4.9l4.1-1.8
		l6.7,1.8v4.9C-255.1,402.3-257.5,404.8-260.5,404.8L-260.5,404.8z M-260.5,404.8"/>
	<path class="st1" d="M-274.1,399.5c0.2,0,0.4-0.1,0.5-0.3c0.1-0.2,0.2-0.4,0.1-0.6l-0.8-2.5l2.2-1.6c0.2-0.2,0.3-0.5,0.2-0.8
		c-0.1-0.3-0.3-0.5-0.6-0.5h-2.7l-0.8-2.5c-0.1-0.3-0.3-0.5-0.6-0.5c-0.3,0-0.5,0.2-0.6,0.5l-0.8,2.5h-2.7c-0.3,0-0.6,0.2-0.6,0.5
		c-0.1,0.3,0,0.6,0.2,0.8l2.2,1.6l-0.8,2.5c-0.1,0.3,0,0.6,0.2,0.8c0.2,0.2,0.6,0.2,0.8,0l2.2-1.6l2.2,1.6
		C-274.4,399.5-274.2,399.5-274.1,399.5L-274.1,399.5z M-275.7,396l0.3,1l-0.9-0.6c-0.2-0.2-0.6-0.2-0.8,0l-0.9,0.6l0.3-1
		c0.1-0.3,0-0.6-0.2-0.8l-0.9-0.6h1.1c0.3,0,0.6-0.2,0.6-0.5l0.3-1l0.3,1c0.1,0.3,0.3,0.5,0.6,0.5h1.1l-0.9,0.6
		C-275.7,395.5-275.8,395.8-275.7,396L-275.7,396z M-275.7,396"/>
	<path class="st1" d="M-274.3,386l-0.8,2.5c-0.1,0.3,0,0.6,0.2,0.8c0.2,0.2,0.6,0.2,0.8,0l2.2-1.6l2.2,1.6c0.2,0.2,0.6,0.2,0.8,0
		c0.2-0.2,0.3-0.5,0.2-0.8l-0.8-2.5l2.2-1.6c0.2-0.2,0.3-0.5,0.2-0.8c-0.1-0.3-0.3-0.5-0.6-0.5h-2.7l-0.8-2.5
		c-0.1-0.3-0.3-0.5-0.6-0.5c-0.3,0-0.5,0.2-0.6,0.5l-0.8,2.5h-2.7c-0.3,0-0.6,0.2-0.6,0.5c-0.1,0.3,0,0.6,0.2,0.8L-274.3,386z
		 M-272.9,384.5c0.3,0,0.6-0.2,0.6-0.5l0.3-1l0.3,1c0.1,0.3,0.3,0.5,0.6,0.5h1.1l-0.9,0.6c-0.2,0.2-0.3,0.5-0.2,0.8l0.3,1l-0.9-0.6
		c-0.2-0.2-0.6-0.2-0.8,0l-0.9,0.6l0.3-1c0.1-0.3,0-0.6-0.2-0.8l-0.9-0.6H-272.9z M-272.9,384.5"/>
	<path class="st0" d="M-239.5,393.8c-0.1-0.3-0.3-0.5-0.6-0.5h-2.7l-0.8-2.5c-0.1-0.3-0.3-0.5-0.6-0.5c-0.3,0-0.5,0.2-0.6,0.5
		l-0.8,2.5h-2.7c-0.3,0-0.6,0.2-0.6,0.5c-0.1,0.3,0,0.6,0.2,0.8l2.2,1.6l-0.8,2.5c-0.1,0.3,0,0.6,0.2,0.8c0.2,0.2,0.6,0.2,0.8,0
		l2.2-1.6l2.2,1.6c0.2,0.2,0.6,0.2,0.8,0c0.2-0.2,0.3-0.5,0.2-0.8l-0.8-2.5l2.2-1.6C-239.5,394.3-239.5,394-239.5,393.8
		L-239.5,393.8z M-243.4,396l0.3,1l-0.9-0.6c-0.2-0.2-0.6-0.2-0.8,0l-0.9,0.6l0.3-1c0.1-0.3,0-0.6-0.2-0.8l-0.9-0.6h1.1
		c0.3,0,0.6-0.2,0.6-0.5l0.3-1l0.3,1c0.1,0.3,0.3,0.5,0.6,0.5h1.1l-0.9,0.6C-243.4,395.5-243.5,395.8-243.4,396L-243.4,396z
		 M-243.4,396"/>
	<rect x="-281.5" y="376.1" class="st2" width="42" height="40.8"/>
	<path class="st1" d="M-251.4,386l-0.8,2.5c-0.1,0.3,0,0.6,0.2,0.8c0.2,0.2,0.6,0.2,0.8,0l2.2-1.6l2.2,1.6c0.2,0.2,0.6,0.2,0.8,0
		c0.2-0.2,0.3-0.5,0.2-0.8l-0.8-2.5l2.2-1.6c0.2-0.2,0.3-0.5,0.2-0.8c-0.1-0.3-0.3-0.5-0.6-0.5h-2.7l-0.8-2.5
		c-0.1-0.3-0.3-0.5-0.6-0.5c-0.3,0-0.5,0.2-0.6,0.5l-0.8,2.5h-2.7c-0.3,0-0.6,0.2-0.6,0.5c-0.1,0.3,0,0.6,0.2,0.8L-251.4,386z
		 M-250,384.5c0.3,0,0.6-0.2,0.6-0.5l0.3-1l0.3,1c0.1,0.3,0.3,0.5,0.6,0.5h1.1l-0.9,0.6c-0.2,0.2-0.3,0.5-0.2,0.8l0.3,1l-0.9-0.6
		c-0.2-0.2-0.6-0.2-0.8,0l-0.9,0.6l0.3-1c0.1-0.3,0-0.6-0.2-0.8l-0.9-0.6H-250z M-250,384.5"/>
	<path class="st1" d="M-262.9,381.9l-0.8,2.5c-0.1,0.3,0,0.6,0.2,0.8c0.2,0.2,0.6,0.2,0.8,0l2.2-1.6l2.2,1.6c0.2,0.2,0.6,0.2,0.8,0
		c0.2-0.2,0.3-0.5,0.2-0.8l-0.8-2.5l2.2-1.6c0.2-0.2,0.3-0.5,0.2-0.8c-0.1-0.3-0.3-0.5-0.6-0.5h-2.7l-0.8-2.5
		c-0.1-0.3-0.3-0.5-0.6-0.5c-0.3,0-0.5,0.2-0.6,0.5l-0.8,2.5h-2.7c-0.3,0-0.6,0.2-0.6,0.5c-0.1,0.3,0,0.6,0.2,0.8L-262.9,381.9z
		 M-261.5,380.5c0.3,0,0.6-0.2,0.6-0.5l0.3-1l0.3,1c0.1,0.3,0.3,0.5,0.6,0.5h1.1l-0.9,0.6c-0.2,0.2-0.3,0.5-0.2,0.8l0.3,1l-0.9-0.6
		c-0.2-0.2-0.6-0.2-0.8,0l-0.9,0.6l0.3-1c0.1-0.3,0-0.6-0.2-0.8l-0.9-0.6H-261.5z M-261.5,380.5"/>
	<path class="st0" d="M-256.5,406.1h-8.1c-5.9,0-11,4.2-12.1,10c0,0.2,0,0.4,0.1,0.6c0.1,0.2,0.3,0.2,0.5,0.2h31
		c0.2,0,0.4-0.1,0.5-0.2c0.1-0.2,0.2-0.4,0.1-0.5c-0.5-2.5-1.7-4.7-3.5-6.4C-250.2,407.4-253.2,406.1-256.5,406.1L-256.5,406.1z
		 M-257.3,407.4l-1.1,6.1h-4.2l-1.1-6.1H-257.3z M-275.2,415.5c1.3-4.6,5.3-7.8,10.1-8.1l1.3,6.8c0.1,0.3,0.3,0.6,0.7,0.6h5.3
		c0.3,0,0.6-0.2,0.7-0.6l1.3-6.8c2.7,0.1,5.2,1.2,7.1,3.1c1.4,1.4,2.4,3.1,3,4.9H-275.2z M-275.2,415.5"/>
</g>
</svg>
