<?xml version="1.0" encoding="utf-8"?>
<!-- Generator: Adobe Illustrator 19.0.0, SVG Export Plug-In . SVG Version: 6.00 Build 0)  -->
<svg version="1.1" id="Layer_1" xmlns="http://www.w3.org/2000/svg" xmlns:xlink="http://www.w3.org/1999/xlink" x="0px" y="0px"
	 viewBox="-280 372 50 50" style="enable-background:new -280 372 50 50;" xml:space="preserve">
<style type="text/css">
	.st0{fill:#FFFFFF;}
</style>
<title>6</title>
<desc>Created with Sketch.</desc>
<g id="Marshmello_landing-page">
	<g id="Marshmello_landngpage-Copy" transform="translate(-929.000000, -760.000000)">
		<g id="_x36_" transform="translate(929.000000, 760.000000)">
			<g id="_x30_47-sociology" transform="translate(25.000000, 25.000000) scale(-1, 1) translate(-25.000000, -25.000000) ">
				<path id="Shape" class="st0" d="M305,372c-13.8,0-25,11.2-25,25c0,13.8,11.2,25,25,25c13.8,0,25-11.2,25-25
					C330,383.2,318.8,372,305,372z M295.3,415.8c-1.4-0.7-2.8-1.6-4-2.7v-10.8c0-3.2,2.6-5.8,5.8-5.8h0h0c1.2,0,2.4,0.4,3.4,1.1
					c-1.6,1.3-2.6,3.3-2.6,5.5c0,1.8,0.7,3.5,1.8,4.8C297.1,409.6,295.4,412.5,295.3,415.8L295.3,415.8z M293.9,389.4
					c0-1.8,1.4-3.2,3.2-3.2s3.2,1.4,3.2,3.2c0,1.8-1.4,3.2-3.2,3.2c0,0,0,0,0,0s0,0,0,0C295.3,392.6,293.9,391.2,293.9,389.4z
					 M310.8,417.3c-1.9,0.5-3.8,0.8-5.8,0.8s-3.9-0.3-5.8-0.8V416c0-3.2,2.6-5.8,5.8-5.8h0h0c3.2,0,5.8,2.6,5.8,5.8V417.3z
					 M301.8,403.1c0-1.8,1.4-3.2,3.2-3.2s3.2,1.4,3.2,3.2c0,1.8-1.4,3.2-3.2,3.2c0,0,0,0,0,0s0,0,0,0
					C303.2,406.3,301.8,404.9,301.8,403.1L301.8,403.1z M318.7,413.1c-1.2,1.1-2.6,2-4,2.7c-0.1-3.3-1.8-6.2-4.4-7.9
					c1.1-1.3,1.8-2.9,1.8-4.8c0-2.2-1-4.2-2.6-5.5c1-0.7,2.2-1.1,3.4-1.1h0h0c3.2,0,5.8,2.6,5.8,5.8V413.1z M309.7,389.4
					c0-1.8,1.4-3.2,3.2-3.2s3.2,1.4,3.2,3.2c0,1.8-1.4,3.2-3.2,3.2c0,0,0,0,0,0s0,0,0,0C311.2,392.6,309.7,391.2,309.7,389.4
					L309.7,389.4z M322.6,408.7v-6.4c0-3.4-1.8-6.4-4.4-8.1c1.1-1.3,1.8-2.9,1.8-4.8c0-3.9-3.2-7.1-7.1-7.1s-7.1,3.2-7.1,7.1
					c0,1.8,0.7,3.5,1.8,4.7c-0.8,0.5-1.5,1.1-2.1,1.9c-0.2,0-0.4,0-0.5,0s-0.4,0-0.5,0c-0.6-0.7-1.3-1.3-2.1-1.9
					c1.1-1.3,1.8-2.9,1.8-4.7c0-3.9-3.2-7.1-7.1-7.1s-7.1,3.2-7.1,7.1c0,1.8,0.7,3.5,1.8,4.8c-2.6,1.7-4.4,4.7-4.4,8.1v6.4
					c-2.3-3.4-3.5-7.5-3.5-11.7c0-11.7,9.4-21.1,21.1-21.1c11.7,0,21.1,9.4,21.1,21.1C326.1,401.2,324.9,405.2,322.6,408.7
					L322.6,408.7z"/>
			</g>
		</g>
	</g>
</g>
</svg>
