<?xml version="1.0" encoding="utf-8"?>
<!-- Generator: Adobe Illustrator 19.0.0, SVG Export Plug-In . SVG Version: 6.00 Build 0)  -->
<svg version="1.1" xmlns="http://www.w3.org/2000/svg" xmlns:xlink="http://www.w3.org/1999/xlink" x="0px" y="0px"
	 viewBox="0 0 592 413" style="enable-background:new 0 0 592 413;" xml:space="preserve">
<style type="text/css">
	.st0{fill:#91A8F6;}
	.st1{fill:#93C7EA;}
	.st2{fill:#FF8383;}
	.st3{fill:#D15E79;}
	.st4{fill:#1B2A67;}
	.st5{fill:#86294E;}
	.st6{fill:#FFD2D4;}
	.st7{fill:#201028;}
	.st8{fill:#445EEA;}
	.st9{fill:#E0EEF7;}
	.st10{fill:#6EACCE;}
	.st11{fill:#FFFFFF;}
	.st12{fill:none;stroke:#1B2A67;stroke-width:0.8269;stroke-linecap:round;stroke-miterlimit:10;}
	.st13{fill:#445EEA;stroke:#445EEA;stroke-width:2.7611;stroke-linecap:round;stroke-linejoin:round;stroke-miterlimit:10;}
	.st14{fill:none;stroke:#445EEA;stroke-width:0.6576;stroke-linecap:round;stroke-linejoin:round;stroke-miterlimit:10;}
</style>
<g id="BACKGROUND">
</g>
<g id="OBJECTS">
	<g>
		<g>
			<g>
				<path class="st0" d="M436.7,186.8c0,2.1-1.7,3.9-3.9,3.9c-2.1,0-3.9-1.7-3.9-3.9c0-2.1,1.7-3.9,3.9-3.9
					C435,182.9,436.7,184.7,436.7,186.8z M434.8,186.8c0-1.1-0.9-1.9-1.9-1.9c-1.1,0-1.9,0.9-1.9,1.9c0,1.1,0.9,1.9,1.9,1.9
					C433.9,188.7,434.8,187.9,434.8,186.8z"/>
				<g>
					<path class="st0" d="M501.5,45.5h-21.8c-0.5,0-1,0.4-1,1c0,0.5,0.4,1,1,1h21.8c0.5,0,1-0.4,1-1C502.5,46,502.1,45.5,501.5,45.5
						z"/>
					<path class="st0" d="M472.7,45.5h-4.3c-0.5,0-1,0.4-1,1c0,0.5,0.4,1,1,1h4.3c0.5,0,1-0.4,1-1C473.7,46,473.3,45.5,472.7,45.5z"
						/>
					<path class="st0" d="M491.3,53.2c0,0.5-0.4,1-1,1h-2.7c-0.5,0-1-0.4-1-1c0-0.5,0.4-1,1-1h2.7C490.8,52.2,491.3,52.6,491.3,53.2
						z M483.8,53.2c0,0.5-0.4,1-1,1H478c-0.5,0-1-0.4-1-1c0-0.5,0.4-1,1-1h4.8C483.3,52.2,483.8,52.6,483.8,53.2z M474.2,53.2
						c0,0.5-0.4,1-1,1h-4.8c-0.5,0-1-0.4-1-1c0-0.5,0.4-1,1-1h4.8C473.8,52.2,474.2,52.6,474.2,53.2z"/>
				</g>
				<g>
					<path class="st0" d="M147.1,109.4c-0.5,0-1,0.4-1,1v2.2c0,0.5,0.4,1,1,1c0.5,0,1-0.4,1-1v-2.2
						C148,109.9,147.6,109.4,147.1,109.4z"/>
					<path class="st0" d="M144.6,107.2h-2.2c-0.5,0-1,0.4-1,1c0,0.5,0.4,1,1,1h2.2c0.5,0,1-0.4,1-1
						C145.5,107.6,145.1,107.2,144.6,107.2z"/>
					<path class="st0" d="M147.1,102.6c-0.5,0-1,0.4-1,1v2.2c0,0.5,0.4,1,1,1c0.5,0,1-0.4,1-1v-2.2
						C148,103.1,147.6,102.6,147.1,102.6z"/>
					<path class="st0" d="M151.8,107.1h-2.2c-0.5,0-1,0.4-1,1c0,0.5,0.4,1,1,1h2.2c0.5,0,1-0.4,1-1
						C152.8,107.5,152.3,107.1,151.8,107.1z"/>
				</g>
				<g>
					<path class="st0" d="M387.5,47.5c-0.5,0-1,0.4-1,1v2.2c0,0.5,0.4,1,1,1c0.5,0,1-0.4,1-1v-2.2C388.4,47.9,388,47.5,387.5,47.5z"
						/>
					<path class="st0" d="M385,45.3h-2.2c-0.5,0-1,0.4-1,1c0,0.5,0.4,1,1,1h2.2c0.5,0,1-0.4,1-1C385.9,45.7,385.5,45.3,385,45.3z"/>
					<path class="st0" d="M387.5,40.7c-0.5,0-1,0.4-1,1v2.2c0,0.5,0.4,1,1,1c0.5,0,1-0.4,1-1v-2.2C388.4,41.1,388,40.7,387.5,40.7z"
						/>
					<path class="st0" d="M392.2,45.1H390c-0.5,0-1,0.4-1,1c0,0.5,0.4,1,1,1h2.2c0.5,0,1-0.4,1-1C393.2,45.5,392.7,45.1,392.2,45.1z
						"/>
				</g>
				<g>
					<path class="st0" d="M298.4,0h-21.8c-0.5,0-1,0.4-1,1c0,0.5,0.4,1,1,1h21.8c0.5,0,1-0.4,1-1C299.3,0.4,298.9,0,298.4,0z"/>
					<path class="st0" d="M269.6,0h-4.3c-0.5,0-1,0.4-1,1c0,0.5,0.4,1,1,1h4.3c0.5,0,1-0.4,1-1C270.5,0.4,270.1,0,269.6,0z"/>
					<path class="st0" d="M288.1,7.6c0,0.5-0.4,1-1,1h-2.7c-0.5,0-1-0.4-1-1c0-0.5,0.4-1,1-1h2.7C287.7,6.7,288.1,7.1,288.1,7.6z
						 M280.6,7.6c0,0.5-0.4,1-1,1h-4.8c-0.5,0-1-0.4-1-1c0-0.5,0.4-1,1-1h4.8C280.2,6.7,280.6,7.1,280.6,7.6z M271,7.6
						c0,0.5-0.4,1-1,1h-4.8c-0.5,0-1-0.4-1-1c0-0.5,0.4-1,1-1h4.8C270.6,6.7,271,7.1,271,7.6z"/>
				</g>
				<circle class="st0" cx="536.6" cy="100.1" r="3.4"/>
				<g>
					<path class="st0" d="M90.8,265.5h21.8c0.5,0,1-0.4,1-1c0-0.5-0.4-1-1-1H90.8c-0.5,0-1,0.4-1,1
						C89.8,265.1,90.3,265.5,90.8,265.5z"/>
					<path class="st0" d="M79.6,265.5h4.3c0.5,0,1-0.4,1-1c0-0.5-0.4-1-1-1h-4.3c-0.5,0-1,0.4-1,1C78.6,265.1,79,265.5,79.6,265.5z"
						/>
				</g>
				<path class="st0" d="M503.6,281c0,0,1.3,9.3-9.6,9.1c0,0,9.3,0.1,9.1,8.8c0,0,0.8-6.9,9.4-8.4
					C512.5,290.6,505.3,292.2,503.6,281z"/>
				<path class="st0" d="M555.5,149.7c0,0,1.3,9.3-9.6,9.1c0,0,9.3,0.1,9.1,8.8c0,0,0.8-6.9,9.4-8.4
					C564.4,159.2,557.2,160.9,555.5,149.7z"/>
				<path class="st0" d="M210.6,23.7c0,0,1.3,9.3-9.6,9.1c0,0,9.3,0.1,9.1,8.8c0,0,0.8-6.9,9.4-8.4
					C219.5,33.2,212.3,34.9,210.6,23.7z"/>
				<path class="st0" d="M117,49.4c0,0,1.3,9.3-9.6,9.1c0,0,9.3,0.1,9.1,8.8c0,0,0.8-6.9,9.4-8.4C125.9,58.9,118.7,60.6,117,49.4z"
					/>
				<path class="st0" d="M173.7,9.6c0,0,0.5,3.2-3.3,3.2c0,0,3.3,0,3.2,3.1c0,0,0.3-2.4,3.3-2.9C176.8,12.9,174.3,13.5,173.7,9.6z"
					/>
				<path class="st0" d="M344,121.5c0,0,0.5,3.2-3.3,3.2c0,0,3.3,0,3.2,3.1c0,0,0.3-2.4,3.3-2.9C347.1,124.8,344.6,125.4,344,121.5z
					"/>
				<path class="st0" d="M28.5,176.9c0,0,0.5,3.2-3.3,3.2c0,0,3.3,0,3.2,3.1c0,0,0.3-2.4,3.3-2.9C31.6,180.3,29.1,180.8,28.5,176.9z
					"/>
				<path class="st0" d="M311.6,264.4c0,0,0.5,3.2-3.3,3.2c0,0,3.3,0,3.2,3.1c0,0,0.3-2.4,3.3-2.9
					C314.8,267.7,312.2,268.3,311.6,264.4z"/>
				<g>
					<path class="st0" d="M182.8,212.1h-21.2c-2.7,0-4.9-2.2-4.9-4.9c0-2.7,2.1-4.8,4.8-4.9c0.1-4.1,3.5-7.5,7.6-7.5
						c2.6,0,5,1.3,6.4,3.5c2.9-0.4,5.4,1.4,6.1,4h1.2c2.7,0,4.9,2.2,4.9,4.9S185.5,212.1,182.8,212.1z M161.6,203.7
						c-1.9,0-3.5,1.6-3.5,3.5c0,1.9,1.6,3.5,3.5,3.5h21.2c1.9,0,3.5-1.6,3.5-3.5c0-1.9-1.6-3.5-3.5-3.5h-2.4l-0.1-0.6
						c-0.4-2.3-2.6-3.9-5-3.4l-0.5,0.1l-0.3-0.5c-1.1-2-3.2-3.2-5.4-3.2c-3.4,0-6.2,2.8-6.2,6.2c0,0.2,0,0.4,0,0.5l0.1,0.8H161.6z"
						/>
				</g>
				<g>
					<path class="st0" d="M561.2,32.6H540c-2.7,0-4.9-2.2-4.9-4.9c0-2.7,2.1-4.8,4.8-4.9c0.1-4.1,3.5-7.5,7.6-7.5
						c2.6,0,5,1.3,6.4,3.5c2.9-0.4,5.4,1.4,6.1,4h1.2c2.7,0,4.9,2.2,4.9,4.9S564,32.6,561.2,32.6z M540,24.2c-1.9,0-3.5,1.6-3.5,3.5
						s1.6,3.5,3.5,3.5h21.2c1.9,0,3.5-1.6,3.5-3.5s-1.6-3.5-3.5-3.5h-2.4l-0.1-0.6c-0.4-2.3-2.6-3.9-5-3.4l-0.5,0.1l-0.3-0.5
						c-1.1-2-3.2-3.2-5.4-3.2c-3.4,0-6.2,2.8-6.2,6.2c0,0.2,0,0.4,0,0.5l0.1,0.8H540z"/>
				</g>
				<g>
					<path class="st0" d="M232.8,86.8h-21.2c-2.7,0-4.9-2.2-4.9-4.9c0-2.7,2.1-4.8,4.8-4.9c0.1-4.1,3.5-7.5,7.6-7.5
						c2.6,0,5,1.3,6.4,3.5c2.9-0.4,5.4,1.4,6.1,4h1.2c2.7,0,4.9,2.2,4.9,4.9S235.5,86.8,232.8,86.8z M211.6,78.4
						c-1.9,0-3.5,1.6-3.5,3.5s1.6,3.5,3.5,3.5h21.2c1.9,0,3.5-1.6,3.5-3.5s-1.6-3.5-3.5-3.5h-2.4l-0.1-0.6c-0.4-2.3-2.6-3.9-5-3.4
						l-0.5,0.1l-0.3-0.5c-1.1-2-3.2-3.2-5.4-3.2c-3.4,0-6.2,2.8-6.2,6.2c0,0.2,0,0.4,0,0.5l0.1,0.8H211.6z"/>
				</g>
			</g>
			<g>
				<g>
					<path class="st1" d="M299.2,358.7L299.2,358.7c-9.1,2.6-18.6-2.7-21.2-11.8l-13.6-48.1c-2.6-9.1,2.7-18.6,11.8-21.2v0
						c9.1-2.6,18.6,2.7,21.2,11.8l13.6,48.1C313.6,346.6,308.3,356.1,299.2,358.7z"/>
					<path class="st1" d="M279.8,358.3L279.8,358.3c-6.8-6.6-6.9-17.5-0.2-24.2l35-35.7c6.6-6.8,17.5-6.9,24.2-0.2l0,0
						c6.8,6.6,6.9,17.5,0.2,24.2l-35,35.7C297.4,364.8,286.6,364.9,279.8,358.3z"/>
					<g>
						<circle class="st2" cx="336.9" cy="298.1" r="15"/>
						<path class="st2" d="M326.9,295.9L326.9,295.9c-2.1,0.5-4.2-0.7-4.8-2.8l-1.3-5.2c-0.5-2.1,0.7-4.2,2.8-4.8l0,0
							c2.1-0.5,4.2,0.7,4.8,2.8l1.3,5.2C330.2,293.3,328.9,295.4,326.9,295.9z"/>
						<path class="st2" d="M341.9,278.1l-5.3,13.5c-0.8,2.1-3.2,3.1-5.3,2.3l0,0c-2.1-0.8-3.1-3.2-2.3-5.3l5.3-13.5
							c0.8-2.1,3.2-3.1,5.3-2.3l0,0C341.7,273.7,342.7,276.1,341.9,278.1z"/>
						<path class="st2" d="M351.3,281l-6.4,13c-1,2-3.4,2.8-5.4,1.8l0,0c-2-1-2.8-3.4-1.8-5.4l6.4-13c1-2,3.4-2.8,5.4-1.8l0,0
							C351.5,276.5,352.3,279,351.3,281z"/>
						<path class="st2" d="M358.3,288.2l-9,11.4c-1.4,1.8-3.9,2.1-5.7,0.7l0,0c-1.8-1.4-2.1-3.9-0.7-5.7l9-11.4
							c1.4-1.8,3.9-2.1,5.7-0.7l0,0C359.4,283.9,359.7,286.4,358.3,288.2z"/>
					</g>
				</g>
				<g>
					<g>
						<path class="st2" d="M262.1,260.8l-5.8-0.2c-3.9-0.2-7-3.5-6.8-7.4l1.2-31l20,0.8l-1.2,31C269.3,257.9,266,260.9,262.1,260.8z
							"/>
						<path class="st3" d="M270.7,221.9l-20-0.8l-0.3,7.9c-0.3,7.7,6,14.5,13.7,13.9c0.5,0,1-0.1,1.4-0.2c1.6-0.3,3.1-0.9,4.5-1.6
							L270.7,221.9z"/>
					</g>
					<g>
						<path class="st4" d="M280.7,191.2c5.2,9.4-0.8,21.5-13.4,27c-12.6,5.5-26.9,2.3-32.1-7.1c-5.2-9.4,0.8-21.5,13.4-27
							C261.2,178.7,275.6,181.8,280.7,191.2z"/>
						<path class="st4" d="M294.6,194.1c3.4,7.4-3.2,16.1-14.9,19.5c-11.7,3.4-23.9,0.2-27.3-7.2c-3.4-7.4,3.2-16.1,14.9-19.5
							C279,183.5,291.2,186.7,294.6,194.1z"/>
						<path class="st4" d="M275.5,175.6c6.9,4.3,6.1,15.3-1.8,24.5c-7.9,9.2-19.9,13.2-26.8,8.9s-6.1-15.3,1.8-24.5
							C256.6,175.3,268.6,171.3,275.5,175.6z"/>
						<path class="st2" d="M282.3,216.9c2,11-3.8,21.3-12.9,22.9l0,0c-9.1,1.6-18.1-6-20-17.1l-1.6-8.7c-2-11,3.8-21.3,12.9-22.9
							l0,0c9.1-1.6,18.1,6,20,17.1L282.3,216.9z"/>
						<path class="st4" d="M262.9,189.9c-5-4.6-13.8-2.4-19.6,4.9c-5.8,7.3-6.4,16.9-1.3,21.4c5,4.6,13.8,2.4,19.6-4.9
							C267.3,204,267.9,194.4,262.9,189.9z"/>
						<g>
							<g>
								<g>
									<g>
										<path class="st5" d="M266.2,214.5c-0.3,0-0.6-0.1-0.8-0.4c-0.3-0.4-0.2-1,0.2-1.3c0.1-0.1,3-2.1,6.1-0.3
											c0.4,0.3,0.6,0.8,0.3,1.3c-0.3,0.4-0.8,0.6-1.3,0.3c-2.1-1.2-4.1,0.1-4.1,0.2C266.5,214.4,266.3,214.5,266.2,214.5z"/>
									</g>
									<g>
										<path class="st5" d="M282,214.5c-0.2,0-0.4-0.1-0.5-0.2l0,0c-0.1-0.1-2.1-1.4-4.1-0.2c-0.4,0.3-1,0.1-1.3-0.3
											c-0.3-0.4-0.1-1,0.3-1.3c3.1-1.8,6,0.2,6.1,0.3c0.4,0.3,0.5,0.9,0.2,1.3C282.5,214.3,282.2,214.5,282,214.5z"/>
									</g>
									<g>
										<circle class="st5" cx="269.3" cy="216.9" r="1"/>
									</g>
									<circle class="st5" cx="278.5" cy="217.3" r="1"/>
								</g>
								<g>
									<g>
										<path class="st6" d="M281.7,223.9c-0.1,0-0.2,0-0.3,0c-2-0.1-3.9-0.9-5.2-2.4c-1.4-1.5-2.1-3.4-2-5.4
											c0.1-2,0.9-3.9,2.4-5.2c1.5-1.4,3.4-2.1,5.4-2c2,0.1,3.9,0.9,5.2,2.4c1.4,1.5,2.1,3.4,2,5.4c-0.1,2-0.9,3.9-2.4,5.2
											C285.4,223.2,283.6,223.9,281.7,223.9z M281.7,210.2c-1.6,0-3.1,0.6-4.2,1.7c-1.2,1.1-1.9,2.7-2,4.3
											c-0.1,1.7,0.5,3.3,1.7,4.5c1.1,1.2,2.7,1.9,4.3,2c1.7,0,3.3-0.5,4.5-1.7c1.2-1.1,1.9-2.7,2-4.3c0.1-1.7-0.5-3.3-1.7-4.5
											c-1.1-1.2-2.7-1.9-4.3-2C281.8,210.2,281.7,210.2,281.7,210.2z"/>
									</g>
									<g>
										<path class="st6" d="M265.5,224.2c-0.1,0-0.2,0-0.3,0c-4.6-0.2-8.3-4.1-8.1-8.8c0.1-2.3,1-4.3,2.7-5.9
											c1.7-1.5,3.8-2.3,6.1-2.2c2.2,0.1,4.3,1,5.9,2.7s2.3,3.8,2.2,6.1c-0.1,2.3-1,4.3-2.7,5.9
											C269.7,223.4,267.7,224.2,265.5,224.2z M265.5,208.8c-1.8,0-3.4,0.7-4.7,1.9c-1.4,1.3-2.2,3-2.2,4.9l0,0
											c-0.2,3.9,2.9,7.1,6.7,7.3c1.8,0.1,3.7-0.6,5-1.9c1.4-1.3,2.2-3,2.2-4.9c0.1-1.9-0.6-3.7-1.9-5c-1.3-1.4-3-2.2-4.9-2.2
											C265.7,208.8,265.6,208.8,265.5,208.8z"/>
									</g>
									<g>
										<path class="st6" d="M272.5,217.1l3.1,0.1c0.4,0,0.7-0.3,0.7-0.6l0,0c0-0.4-0.3-0.7-0.6-0.7l-3.1-0.1
											c-0.4,0-0.7,0.3-0.7,0.6l0,0C271.9,216.8,272.2,217.1,272.5,217.1z"/>
									</g>
								</g>
								<g>
									<path class="st5" d="M278.7,221.5c-0.1,1.1-1.4,2.1-2.8,2.2c-1.5,0.1-2.6-0.6-2.5-1.7c0.1-1.1,1.4-2.1,2.8-2.2
										C277.7,219.6,278.8,220.4,278.7,221.5z"/>
								</g>
								<g>
									<path class="st5" d="M278.1,227.4c-0.1,2.5-2.4,4.5-5.1,4.4c-2.7-0.1-4.3-2.8-4.2-5.3C272,226.1,275.1,226.4,278.1,227.4z"
										/>
									<path class="st6" d="M273.4,228.9c-2.2-0.3-3.5-1-3.6-2.6c2.7-0.1,5.3,0.1,7.9,0.9C277.3,228.7,275.5,229.2,273.4,228.9z"
										/>
								</g>
							</g>
							<g>
								<g>
									<g>
										<path class="st7" d="M267,232.8L267,232.8l-5.4,0c-2.2,0-4.3-0.8-5.9-2.3l-3.4-3c-0.3-0.2-0.3-0.7,0-0.9
											c0.2-0.3,0.7-0.3,0.9,0l3.4,3c1.4,1.2,3.1,1.9,5,1.9l5.4,0c0.4,0,0.7,0.3,0.7,0.7C267.6,232.5,267.3,232.8,267,232.8z"/>
									</g>
									<g>
										<path class="st6" d="M267,233.4L267,233.4l-2.2,0c-0.7,0-1.3-0.6-1.3-1.3c0-0.7,0.6-1.3,1.3-1.3h0l2.2,0
											c0.7,0,1.3,0.6,1.3,1.3C268.3,232.8,267.7,233.4,267,233.4z"/>
									</g>
								</g>
								<g>
									<circle class="st8" cx="249.4" cy="220.7" r="10.9"/>
									
										<ellipse transform="matrix(0.9992 3.929918e-002 -3.929918e-002 0.9992 8.8615 -9.5692)" class="st0" cx="247.8" cy="220.6" rx="8.5" ry="9.3"/>
									
										<ellipse transform="matrix(0.9992 3.930130e-002 -3.930130e-002 0.9992 8.8582 -9.5069)" class="st9" cx="246.2" cy="220.6" rx="2.9" ry="3.8"/>
								</g>
							</g>
						</g>
					</g>
				</g>
				<g>
					<path class="st1" d="M275.9,373.4l-52.3,1.5c-8.7-0.3-15.5-7.7-15.2-16.4l3.3-87.6c0.2-4.6,3.2-8.6,7.6-9.9l39-12.4l31.2,14.9
						c3.9,1.9,6.3,5.9,6.2,10.2l-3.3,84.5C291.9,367,284.6,373.7,275.9,373.4z"/>
					<path class="st10" d="M295.6,273.7c0.2,9.1,0.1,18.3-0.1,27.4c-0.1,9.1-0.4,18.2-0.8,27.3c-0.4,9.1-0.8,18.2-1.4,27.3
						c-0.1,2.2-0.2,4.7-1.1,7c-0.8,2.3-2.1,4.4-3.7,6c-3.4,3.3-8.1,5.2-12.7,4.7c4.6-0.1,8.9-2.1,11.8-5.5c1.4-1.6,2.5-3.6,3.1-5.7
						c0.6-2.1,0.6-4.2,0.6-6.5c0.1-9.1,0.4-18.2,0.8-27.3c0.4-9.1,0.8-18.2,1.4-27.3C294.1,291.9,294.7,282.8,295.6,273.7z"/>
					<path class="st1" d="M272.6,265.1l-28.2-1.8l1.1-16.8c0.1-2.1,1.9-3.7,4-3.5l20.7,1.3c2.1,0.1,3.7,1.9,3.5,4L272.6,265.1z"/>
				</g>
				<g>
					<g>
						<path class="st1" d="M188.4,347.7L188.4,347.7c-8.7-3.6-12.9-13.7-9.3-22.4l19.2-46.1c3.6-8.7,13.7-12.9,22.4-9.3h0
							c8.7,3.6,12.9,13.7,9.3,22.4l-19.2,46.1C207.2,347.2,197.2,351.4,188.4,347.7z"/>
						<path class="st10" d="M220.7,269.9c3.1,1,5.9,3,7.9,5.6c2,2.6,3.3,5.9,3.6,9.3c0.5,3.4-0.6,6.9-1.9,9.8l-3.6,8.9
							c-2.5,5.9-5,11.8-7.7,17.6l-4,8.7c-1.4,2.9-2.8,5.8-4.3,8.6c1-3.1,2.1-6.1,3.1-9.1l3.3-9c2.2-6,4.7-11.9,7.1-17.9l3.8-8.8
							c0.6-1.5,1.3-2.8,1.6-4.3c0.4-1.4,0.6-2.9,0.5-4.5C230.2,278.8,226.5,272.9,220.7,269.9z"/>
					</g>
					<g>
						<g>
							<g>
								<path class="st5" d="M268.2,323.6l-8.7-0.6c-3.3-0.2-5.8-3-5.6-6.3l0.3-3.9c0.2-3.3,3-5.8,6.3-5.6l8.7,0.6L268.2,323.6z
									 M260.3,311.1c-1.1-0.1-2.1,0.8-2.2,1.9l-0.3,3.9c-0.1,1.1,0.8,2.1,1.9,2.2l4.8,0.3l0.5-8L260.3,311.1z"/>
							</g>
							<g>
								<path class="st3" d="M276.7,336.1l-7.6-0.5c-4.6-0.3-8.1-4.3-7.8-8.8l1.6-24.3c0.2-2.7,24.3-1.2,24.2,1.6l-1.6,24.3
									C285.3,332.9,281.3,336.4,276.7,336.1z"/>
								
									<ellipse transform="matrix(0.9979 6.436884e-002 -6.436884e-002 0.9979 20.1437 -17.0585)" class="st5" cx="274.8" cy="304.1" rx="9.9" ry="1.8"/>
							</g>
						</g>
						<path class="st1" d="M178.9,332.3L178.9,332.3c0.1-9.5,7.9-17,17.4-16.9l50,0.8c9.5,0.1,17,7.9,16.9,17.4l0,0
							c-0.1,9.5-7.9,17-17.4,16.9l-50-0.8C186.3,349.6,178.8,341.8,178.9,332.3z"/>
						<path class="st10" d="M196.3,315.4c6.4-0.4,12.8-0.6,19.2-0.7c6.4-0.1,12.8-0.1,19.2,0l9.6,0.2c3.1,0,6.9,0.5,9.8,2.2
							c3,1.6,5.5,4.1,7.1,7c1.6,2.9,2.3,6.3,1.9,9.5c-0.4-6.4-4.4-12.2-9.9-14.7c-1.4-0.6-2.8-1-4.3-1.3c-1.5-0.3-3-0.2-4.6-0.2
							l-9.6-0.1c-6.4-0.1-12.8-0.3-19.2-0.6C209.1,316.4,202.7,316.1,196.3,315.4z"/>
						<g>
							<circle class="st2" cx="265.5" cy="329.9" r="15"/>
							<path class="st2" d="M257.7,322.7L257.7,322.7c-1.9-0.6-2.9-2.7-2.2-4.6l1.6-4.6c0.6-1.9,2.7-2.9,4.6-2.2l0,0
								c1.9,0.6,2.9,2.7,2.2,4.6l-1.6,4.6C261.6,322.4,259.6,323.4,257.7,322.7z"/>
							<path class="st2" d="M286.5,324.7l-13.3,1.2c-2.1,0.2-3.9-1.3-4.1-3.4l0,0c-0.2-2.1,1.3-3.9,3.4-4.1l13.3-1.2
								c2.1-0.2,3.9,1.3,4.1,3.4l0,0C290,322.6,288.5,324.5,286.5,324.7z"/>
							<path class="st2" d="M283.6,336.9l-13.4-0.9c-2.1-0.1-3.6-1.9-3.5-4l0,0c0.1-2.1,1.9-3.6,4-3.5l13.4,0.9
								c2.1,0.1,3.6,1.9,3.5,4l0,0C287.5,335.5,285.7,337.1,283.6,336.9z"/>
						</g>
					</g>
				</g>
			</g>
			<g>
				<g>
					<g>
						<path class="st8" d="M419.5,291.4c-0.4,0-0.8-0.2-1.1-0.5c-0.6-0.6-0.6-1.6,0-2.2l15-15c0.6-0.6,1.6-0.6,2.2,0
							c0.6,0.6,0.6,1.6,0,2.2l-15,15C420.3,291.2,419.9,291.4,419.5,291.4z"/>
					</g>
					<g>
						<g>
							<path class="st8" d="M408.8,282.2c-0.9,0-1.6-0.7-1.6-1.6v-21.2c0-0.9,0.7-1.6,1.6-1.6c0.9,0,1.6,0.7,1.6,1.6v21.2
								C410.4,281.5,409.7,282.2,408.8,282.2z"/>
						</g>
						<g>
							<path class="st8" d="M449.8,302h-21.2c-0.9,0-1.6-0.7-1.6-1.6c0-0.9,0.7-1.6,1.6-1.6h21.2c0.9,0,1.6,0.7,1.6,1.6
								C451.4,301.3,450.7,302,449.8,302z"/>
						</g>
					</g>
				</g>
				<g>
					<g>
						<path class="st10" d="M261.9,367.8h129.4c3.6,0,4.7-2.9,4.7-6.5l0,0H255.4l0,0C255.4,364.9,258.3,367.8,261.9,367.8z"/>
						<path class="st10" d="M254.4,361.3h45.9c0,3.6-3.3,6.5-7.4,6.5h-30.1c0,0-8.5,0-8.6,0C250,367.8,250.2,361.3,254.4,361.3z"/>
						<g>
							<path class="st9" d="M303.2,363.2h92.9c2.8,0,5.1-2,5.6-4.7l12.5-53.7c0.7-3.5-2-6.8-5.6-6.8h-92.9c-2.8,0-5.1,2-5.6,4.7
								l-12.5,53.7C296.9,359.9,299.6,363.2,303.2,363.2z"/>
							<path class="st10" d="M310,302.6c0.3-1.5,1.1-2.8,2.3-3.6c1.7,1.3,2.7,3.4,2.3,5.7l-12.5,53.7c-0.3,1.5-1.1,2.7-2.3,3.6
								c-1.7-1.3-2.7-3.4-2.3-5.7L310,302.6z"/>
							<g>
								<path class="st11" d="M368.5,337.4h-15.2c-3.1,0-5.7-2.5-5.7-5.7l0,0c0-3.1,2.5-5.7,5.7-5.7h15.2c3.1,0,5.7,2.5,5.7,5.7l0,0
									C374.1,334.9,371.6,337.4,368.5,337.4z"/>
							</g>
						</g>
					</g>
					<g>
						<path class="st10" d="M268.3,363.1h-4.6c-0.9,0-1.6-0.7-1.6-1.6l0,0c0-0.9,0.7-1.6,1.6-1.6h4.6c0.9,0,1.6,0.7,1.6,1.6l0,0
							C269.9,362.4,269.2,363.1,268.3,363.1z"/>
						<path class="st10" d="M277.2,363.1h-4.6c-0.9,0-1.6-0.7-1.6-1.6l0,0c0-0.9,0.7-1.6,1.6-1.6h4.6c0.9,0,1.6,0.7,1.6,1.6l0,0
							C278.8,362.4,278.1,363.1,277.2,363.1z"/>
						<path class="st10" d="M286.1,363.1h-4.6c-0.9,0-1.6-0.7-1.6-1.6l0,0c0-0.9,0.7-1.6,1.6-1.6h4.6c0.9,0,1.6,0.7,1.6,1.6l0,0
							C287.8,362.4,287,363.1,286.1,363.1z"/>
						<path class="st10" d="M295.1,363.1h-4.6c-0.9,0-1.6-0.7-1.6-1.6l0,0c0-0.9,0.7-1.6,1.6-1.6h4.6c0.9,0,1.6,0.7,1.6,1.6l0,0
							C296.7,362.4,296,363.1,295.1,363.1z"/>
					</g>
				</g>
			</g>
			<path class="st4" d="M465.4,375.3h-391c-2.2,0-3.9-1.8-3.9-3.9l0,0c0-2.2,1.8-3.9,3.9-3.9h391c2.2,0,3.9,1.8,3.9,3.9l0,0
				C469.3,373.6,467.5,375.3,465.4,375.3z"/>
			<g>
				<g>
					<path class="st12" d="M132.9,343.4c0,0-2.9-21.6-8.1-26.9"/>
					<g>
						<path class="st6" d="M125.6,303.6c1.4,4.6,1.1,8.8-0.6,9.3c-1.7,0.5-4.3-2.8-5.7-7.4c0,0,0-0.1,0-0.1c-1.2-4.1,5-6,6.3-1.9
							C125.6,303.5,125.6,303.5,125.6,303.6z"/>
						<g>
							<path class="st6" d="M133.9,313.9c-4.6,1.4-8.8,1.1-9.3-0.6c-0.5-1.7,2.8-4.3,7.4-5.7c0,0,0.1,0,0.1,0c4.1-1.2,6,5,1.9,6.3
								C134,313.9,134,313.9,133.9,313.9z"/>
							<path class="st6" d="M118.2,318.6c4.6-1.4,7.9-3.9,7.4-5.7c-0.5-1.7-4.7-2-9.3-0.6c0,0-0.1,0-0.1,0c-4.1,1.3-2.2,7.5,1.9,6.3
								C118.1,318.7,118.1,318.7,118.2,318.6z"/>
						</g>
						<g>
							<path class="st6" d="M125.9,323.9c1.3-4.6,0.9-8.8-0.8-9.3c-1.8-0.5-4.2,2.9-5.5,7.5c0,0,0,0.1,0,0.1
								c-1.1,4.1,5.1,5.9,6.3,1.8C125.9,324,125.9,323.9,125.9,323.9z"/>
							<path class="st6" d="M130.4,322.5c-3.6-3.1-5.6-6.8-4.4-8.2c1.2-1.4,5.1,0.1,8.8,3.2c0,0,0.1,0.1,0.1,0.1
								c3.2,2.8-1,7.7-4.3,5C130.4,322.6,130.4,322.6,130.4,322.5z"/>
						</g>
						<circle class="st3" cx="125" cy="314.1" r="2.3"/>
					</g>
					<g>
						<path class="st8" d="M124.4,329.5c6,4.7,9.4,10.4,7.6,12.6c-1.8,2.3-8.1,0.3-14.1-4.4c-6-4.7-7.6-12.6-7.6-12.6
							S118.4,324.8,124.4,329.5z"/>
						<path class="st8" d="M145.4,336.6c-6.3,5.9-13.3,8.8-15.5,6.4s1.1-9.1,7.4-15.1c6.3-5.9,15.5-6.4,15.5-6.4
							S151.7,330.7,145.4,336.6z"/>
					</g>
				</g>
				<g>
					<polygon class="st4" points="140.8,368.8 120.1,368.8 116.5,342.8 144.4,342.8 					"/>
					<path class="st4" d="M145.5,349.4h-30.1c-0.8,0-1.5-0.7-1.5-1.5v-6.7c0-0.8,0.7-1.5,1.5-1.5h30.1c0.8,0,1.5,0.7,1.5,1.5v6.7
						C146.9,348.8,146.3,349.4,145.5,349.4z"/>
				</g>
			</g>
			<g>
				<g>
					<g>
						<polygon class="st8" points="193.5,148.3 203.8,159.3 281.9,126.7 						"/>
						<polygon class="st0" points="197.2,112.1 189.4,123.7 194.7,135.1 183,137.1 172.6,159.8 284.4,126 						"/>
						<polygon class="st8" points="194.7,135.1 189.4,123.7 250,126.5 						"/>
					</g>
					<g>
						<path class="st8" d="M188.8,248c-0.9,0-1.7,0-2.6,0c-0.9,0-1.6-0.7-1.5-1.6s0.8-1.7,1.6-1.5c4.1,0,8.1,0,12.5-0.2
							c0,0,0,0,0.1,0c0.8,0,1.5,0.7,1.6,1.5c0,0.9-0.6,1.6-1.5,1.6C195.3,247.9,192,248,188.8,248z M173.6,247.4c0,0-0.1,0-0.1,0
							c-4.3-0.4-8.6-0.9-12.6-1.6c-0.9-0.2-1.4-1-1.3-1.8c0.2-0.8,1-1.4,1.8-1.3c4,0.7,8.1,1.2,12.3,1.6c0.9,0.1,1.5,0.8,1.4,1.7
							C175.1,246.7,174.4,247.4,173.6,247.4z M148.9,242.8c-0.2,0-0.3,0-0.5-0.1c-4.1-1.3-8.1-2.8-11.9-4.6
							c-0.8-0.4-1.1-1.3-0.8-2.1c0.4-0.8,1.3-1.1,2.1-0.8c3.7,1.7,7.6,3.2,11.5,4.4c0.8,0.3,1.3,1.1,1,2
							C150.2,242.4,149.6,242.8,148.9,242.8z M126.2,232.1c-0.3,0-0.6-0.1-0.9-0.3c-3.6-2.4-6.9-5-10.1-7.9
							c-0.6-0.6-0.7-1.6-0.1-2.2s1.6-0.7,2.2-0.1c3,2.8,6.3,5.3,9.7,7.6c0.7,0.5,0.9,1.5,0.4,2.2
							C127.2,231.9,126.7,232.1,126.2,232.1z M107.7,215.2c-0.5,0-0.9-0.2-1.2-0.6c-2.7-3.3-5.1-6.9-7.2-10.6
							c-0.4-0.8-0.2-1.7,0.6-2.1c0.8-0.4,1.7-0.2,2.1,0.6c2,3.6,4.4,7,6.9,10.2c0.5,0.7,0.4,1.7-0.3,2.2
							C108.4,215.1,108.1,215.2,107.7,215.2z M95.3,193.4c-0.6,0-1.2-0.4-1.5-1c-1.5-4.1-2.7-8.2-3.5-12.4c-0.2-0.8,0.4-1.7,1.2-1.8
							c0.9-0.2,1.7,0.4,1.8,1.2c0.8,4,1.9,7.9,3.4,11.8c0.3,0.8-0.1,1.7-0.9,2C95.7,193.3,95.5,193.4,95.3,193.4z M90.3,168.8
							c-0.8,0-1.5-0.6-1.6-1.5c-0.2-2.6-0.2-5.3-0.2-8v-0.6c0-1.4,0-2.7,0.1-4.1c0-0.8,0.7-1.5,1.6-1.5c0,0,0,0,0.1,0
							c0.9,0,1.5,0.8,1.5,1.6c0,1.3-0.1,2.7-0.1,4v0.6c0,2.7,0.1,5.3,0.2,7.8c0.1,0.9-0.6,1.6-1.5,1.7
							C90.4,168.8,90.4,168.8,90.3,168.8z"/>
					</g>
					<g>
						<path class="st8" d="M103.5,143.9c-2.4,0-4.8,0-7.1-0.1c-0.9,0-1.5-0.7-1.5-1.6c0-0.9,0.7-1.5,1.6-1.5c0,0,0,0,0,0
							c4,0.1,8.2,0.1,12.5,0c1-0.1,1.6,0.7,1.6,1.5c0,0.9-0.7,1.6-1.5,1.6C107.2,143.9,105.3,143.9,103.5,143.9z M121.6,143.4
							c-0.8,0-1.5-0.6-1.6-1.5c0-0.9,0.6-1.6,1.5-1.7c4.1-0.2,8.3-0.5,12.5-0.9c0.8-0.1,1.6,0.6,1.7,1.4c0.1,0.9-0.6,1.6-1.4,1.7
							C130.1,142.8,125.8,143.2,121.6,143.4C121.7,143.4,121.7,143.4,121.6,143.4z M83.9,143.2c0,0-0.1,0-0.1,0
							c-4.4-0.3-8.6-0.8-12.6-1.4c-0.9-0.1-1.5-0.9-1.3-1.8c0.1-0.9,0.9-1.4,1.8-1.3c3.9,0.6,8.1,1,12.4,1.4
							c0.9,0.1,1.5,0.8,1.4,1.7C85.4,142.6,84.7,143.2,83.9,143.2z M146.7,141.2c-0.8,0-1.5-0.6-1.6-1.4c-0.1-0.9,0.5-1.6,1.4-1.7
							c4.1-0.5,8.2-1,12.5-1.6c0.9-0.1,1.7,0.5,1.8,1.3c0.1,0.9-0.5,1.7-1.3,1.8c-4.3,0.6-8.4,1.2-12.5,1.6
							C146.9,141.2,146.8,141.2,146.7,141.2z M59,139.6c-0.1,0-0.2,0-0.3,0c-3-0.7-6-1.4-8.8-2.3c-1.2-0.4-2.4-0.7-3.5-1.1
							c-0.8-0.3-1.3-1.2-1-2c0.3-0.8,1.2-1.3,2-1c1.1,0.4,2.3,0.7,3.4,1.1c2.7,0.8,5.6,1.6,8.6,2.2c0.8,0.2,1.4,1,1.2,1.9
							C60.3,139.1,59.7,139.6,59,139.6z M35.2,131.5c-0.2,0-0.5-0.1-0.7-0.2c-4-1.9-7.7-4.1-11.1-6.5c-0.7-0.5-0.9-1.5-0.4-2.2
							c0.5-0.7,1.5-0.9,2.2-0.4c3.2,2.3,6.8,4.4,10.6,6.3c0.8,0.4,1.1,1.3,0.7,2.1C36.3,131.2,35.8,131.5,35.2,131.5z M89.1,130.1
							c-0.9,0-1.6-0.7-1.6-1.6V128c0-4-0.2-8-0.5-11.9c-0.1-0.9,0.6-1.6,1.4-1.7c0.8-0.1,1.6,0.6,1.7,1.4c0.3,4,0.5,8.1,0.5,12.2
							v0.6C90.7,129.4,90,130.1,89.1,130.1z M14.9,116.8c-0.4,0-0.8-0.2-1.2-0.5c-2.9-3.2-5.5-6.8-7.5-10.5
							c-0.4-0.8-0.1-1.7,0.6-2.1c0.8-0.4,1.7-0.1,2.1,0.6c1.9,3.5,4.3,6.9,7.1,9.9c0.6,0.6,0.5,1.6-0.1,2.2
							C15.7,116.7,15.3,116.8,14.9,116.8z M87.1,105c-0.8,0-1.4-0.5-1.5-1.3c-0.7-4.3-1.7-8.3-2.8-12.1c-0.2-0.8,0.2-1.7,1.1-1.9
							c0.8-0.3,1.7,0.2,1.9,1.1c1.1,3.9,2.1,8.1,2.9,12.5c0.1,0.9-0.4,1.7-1.3,1.8C87.3,105,87.2,105,87.1,105z M2.9,95
							c-0.7,0-1.3-0.5-1.5-1.2c-0.2-0.7-0.4-1.4-0.5-2.1C0.3,89.3,0,87,0,84.7c0-1.4,0.1-2.7,0.3-4c0.1-0.9,0.9-1.4,1.8-1.3
							c0.9,0.1,1.4,0.9,1.3,1.8c-0.2,1.2-0.3,2.4-0.3,3.6c0,2,0.3,4.1,0.8,6.2c0.2,0.7,0.3,1.4,0.5,2c0.2,0.8-0.3,1.7-1.1,1.9
							C3.2,95,3,95,2.9,95z M79.9,80.9c-0.6,0-1.1-0.3-1.4-0.9c-1.9-3.9-4-7.4-6.4-10.4c-0.5-0.7-0.4-1.7,0.2-2.2
							c0.7-0.5,1.7-0.4,2.2,0.2c2.5,3.2,4.8,6.9,6.8,11c0.4,0.8,0,1.7-0.7,2.1C80.3,80.9,80.1,80.9,79.9,80.9z M6.8,71.1
							c-0.3,0-0.7-0.1-0.9-0.3c-0.7-0.5-0.8-1.5-0.3-2.2c2.5-3.3,5.8-6.2,9.8-8.7c0.7-0.4,1.7-0.2,2.2,0.5c0.5,0.7,0.2,1.7-0.5,2.2
							c-3.7,2.2-6.7,4.9-9,7.9C7.7,70.9,7.3,71.1,6.8,71.1z M64,61.8c-0.3,0-0.6-0.1-0.9-0.3c-3.3-2.2-7-3.8-11-4.8
							c-0.8-0.2-1.4-1.1-1.1-1.9c0.2-0.8,1.1-1.3,1.9-1.1c4.3,1.1,8.3,2.8,12,5.2c0.7,0.5,0.9,1.4,0.5,2.2
							C65,61.5,64.5,61.8,64,61.8z M27.7,57.8c-0.7,0-1.3-0.4-1.5-1.1c-0.2-0.8,0.2-1.7,1.1-1.9c4-1.2,8.1-1.9,12.3-2.2l0.5,0
							c0.8,0,1.6,0.7,1.6,1.5c0,0.9-0.7,1.6-1.5,1.6l-0.3,0c-4,0.3-7.9,1-11.6,2.1C28,57.8,27.8,57.8,27.7,57.8z"/>
					</g>
				</g>
				<g>
					<g>
						<path class="st8" d="M404.8,68.5h83.8c10.5,0,19,8.5,19,19v43.2c0,10.5-8.5,19-19,19h-54.8L414.1,167v-17.4h-9.3
							c-10.5,0-19-8.5-19-19V87.4C385.9,76.9,394.4,68.5,404.8,68.5z"/>
						<g>
							<g>
								<path class="st0" d="M417,95.2h59.4c1.3,0,2.4-1.1,2.4-2.4s-1.1-2.4-2.4-2.4H417c-1.3,0-2.4,1.1-2.4,2.4
									S415.7,95.2,417,95.2z"/>
							</g>
							<g>
								<path class="st0" d="M417,111h59.4c1.3,0,2.4-1.1,2.4-2.4s-1.1-2.4-2.4-2.4H417c-1.3,0-2.4,1.1-2.4,2.4S415.7,111,417,111z"
									/>
							</g>
							<g>
								<path class="st0" d="M467.7,126.9h8.7c1.3,0,2.4-1.1,2.4-2.4s-1.1-2.4-2.4-2.4h-8.7c-1.3,0-2.4,1.1-2.4,2.4
									S466.4,126.9,467.7,126.9z"/>
							</g>
							<g>
								<path class="st0" d="M447.9,126.9h8.7c1.3,0,2.4-1.1,2.4-2.4s-1.1-2.4-2.4-2.4h-8.7c-1.3,0-2.4,1.1-2.4,2.4
									S446.6,126.9,447.9,126.9z"/>
							</g>
							<g>
								<path class="st0" d="M417,126.9h19.8c1.3,0,2.4-1.1,2.4-2.4s-1.1-2.4-2.4-2.4H417c-1.3,0-2.4,1.1-2.4,2.4
									S415.7,126.9,417,126.9z"/>
							</g>
						</g>
					</g>
					<g>
						<path class="st0" d="M394.2,154.7h-64.1c-6.3,0-11.4,5.1-11.4,11.4v37c0,6,4.7,10.9,10.6,11.4L316,236.2l34.9-21.6h43.3
							c6.3,0,11.4-5.1,11.4-11.4v-37C405.7,159.9,400.5,154.7,394.2,154.7z"/>
						<g>
							<circle class="st13" cx="362.2" cy="175.7" r="7.6"/>
							<path class="st13" d="M380.1,201.2h-35.9l0,0c0-6.4,5.2-11.5,11.5-11.5h12.9C375,189.7,380.1,194.9,380.1,201.2L380.1,201.2z
								"/>
						</g>
					</g>
				</g>
				<g>
					<g>
						<g>
							<path class="st8" d="M316.8,94.6c-2.1,0-4.3-0.2-6.3-0.6c-0.8-0.2-1.4-1-1.2-1.9c0.2-0.9,1-1.4,1.9-1.2
								c3.2,0.7,6.6,0.8,9.8,0.3c0.9-0.1,1.7,0.5,1.8,1.3c0.1,0.9-0.5,1.7-1.3,1.8C319.9,94.5,318.4,94.6,316.8,94.6z M331,90.9
								c-0.6,0-1.1-0.3-1.4-0.8c-0.4-0.8-0.1-1.7,0.6-2.1c2.9-1.6,5.5-3.7,7.6-6.2c0.6-0.7,1.6-0.7,2.2-0.2c0.7,0.6,0.7,1.6,0.2,2.2
								c-2.4,2.8-5.3,5.1-8.5,6.9C331.6,90.9,331.3,90.9,331,90.9z M301.2,90.1c-0.3,0-0.6-0.1-0.8-0.2c-3.1-2-5.8-4.4-8.1-7.4
								c-0.5-0.7-0.4-1.7,0.3-2.2c0.7-0.5,1.7-0.4,2.2,0.3c2,2.6,4.5,4.9,7.3,6.6c0.7,0.5,1,1.4,0.5,2.2
								C302.2,89.8,301.7,90.1,301.2,90.1z M344.4,75.4c-0.2,0-0.4,0-0.5-0.1c-0.8-0.3-1.2-1.2-0.9-2c1.1-3.1,1.7-6.3,1.7-9.7
								c0-0.9,0.7-1.6,1.6-1.6c0.9,0,1.6,0.7,1.6,1.6c0,3.7-0.6,7.3-1.9,10.8C345.6,75,345,75.4,344.4,75.4z M288.7,73.9
								c-0.7,0-1.3-0.4-1.5-1.1c-0.9-2.9-1.4-6-1.4-9.1c0-0.6,0-1.2,0-1.7c0-0.9,0.8-1.5,1.7-1.5c0.9,0,1.5,0.8,1.5,1.7
								c0,0.5,0,1,0,1.6c0,2.8,0.4,5.6,1.2,8.2c0.3,0.8-0.2,1.7-1,2C289,73.9,288.9,73.9,288.7,73.9z M345.4,58.1
								c-0.7,0-1.3-0.5-1.5-1.2c-0.8-3.2-2.2-6.2-4-9c-0.5-0.7-0.3-1.7,0.4-2.2c0.7-0.5,1.7-0.3,2.2,0.4c2.1,3.1,3.6,6.4,4.5,10
								c0.2,0.8-0.3,1.7-1.1,1.9C345.6,58.1,345.5,58.1,345.4,58.1z M289.9,53.4c-0.2,0-0.4,0-0.6-0.1c-0.8-0.3-1.2-1.3-0.8-2.1
								c1.5-3.4,3.5-6.4,6.1-9.1c0.6-0.6,1.6-0.6,2.2,0c0.6,0.6,0.6,1.6,0,2.2c-2.3,2.4-4.1,5.1-5.5,8.2
								C291,53.1,290.5,53.4,289.9,53.4z M333.8,41.2c-0.3,0-0.6-0.1-0.9-0.3c-2.7-1.9-5.7-3.3-8.9-4.2c-0.8-0.2-1.3-1.1-1.1-1.9
								c0.2-0.8,1.1-1.3,1.9-1.1c3.6,1,6.9,2.5,9.9,4.7c0.7,0.5,0.9,1.5,0.4,2.2C334.8,41,334.3,41.2,333.8,41.2z M304.1,38.7
								c-0.6,0-1.1-0.3-1.4-0.9c-0.4-0.8-0.1-1.7,0.7-2.1c3.3-1.6,6.9-2.6,10.5-2.9c0.8-0.1,1.6,0.6,1.7,1.4
								c0.1,0.9-0.6,1.6-1.4,1.7c-3.3,0.3-6.5,1.2-9.5,2.6C304.5,38.7,304.3,38.7,304.1,38.7z"/>
						</g>
						<g>
							<path class="st8" d="M316.8,48.7c-11.3,0-20.5,6.1-20.5,13.6c0,0,0,0,0,0c0,2,1.6,3.3,3,2.7l5.4-2.3c1.3-0.6,1.9-2.4,1.3-4
								l-0.7-1.8c0,0,9.9,1.8,22.9,0l-0.7,2.3c-0.4,1.5,0.1,3.1,1.2,3.7l5.3,2.9c1.3,0.7,2.8-0.2,3.1-2c0.1-0.5,0.1-1,0.1-1.5
								C337.4,54.8,328.2,48.7,316.8,48.7z"/>
							<path class="st0" d="M331.1,78.5h-28.5l4.2-13.2c0.8-2.5,3.1-4.2,5.7-4.2h8.6c2.6,0,4.9,1.7,5.7,4.2L331.1,78.5z"/>
						</g>
					</g>
					<g>
						<g>
							<path class="st8" d="M500.4,255.6c-2.1,0-4.3-0.2-6.3-0.6c-0.8-0.2-1.4-1-1.2-1.9c0.2-0.8,1-1.4,1.9-1.2
								c3.2,0.7,6.6,0.8,9.8,0.3c0.9-0.1,1.7,0.5,1.8,1.3c0.1,0.9-0.5,1.7-1.3,1.8C503.5,255.5,501.9,255.6,500.4,255.6z M514.6,252
								c-0.6,0-1.1-0.3-1.4-0.8c-0.4-0.8-0.1-1.7,0.6-2.1c2.9-1.6,5.5-3.7,7.6-6.2c0.6-0.7,1.6-0.7,2.2-0.2c0.7,0.6,0.7,1.6,0.2,2.2
								c-2.4,2.8-5.3,5.1-8.5,6.9C515.1,251.9,514.8,252,514.6,252z M484.7,251.1c-0.3,0-0.6-0.1-0.8-0.2c-3.1-2-5.8-4.4-8.1-7.4
								c-0.5-0.7-0.4-1.7,0.3-2.2c0.7-0.5,1.7-0.4,2.2,0.3c2,2.6,4.5,4.9,7.3,6.6c0.7,0.5,1,1.4,0.5,2.2
								C485.7,250.9,485.2,251.1,484.7,251.1z M527.9,236.5c-0.2,0-0.4,0-0.5-0.1c-0.8-0.3-1.2-1.2-0.9-2c1.1-3.1,1.7-6.4,1.7-9.7
								c0-0.9,0.7-1.6,1.6-1.6c0.9,0,1.6,0.7,1.6,1.6c0,3.7-0.6,7.3-1.9,10.8C529.2,236.1,528.6,236.5,527.9,236.5z M472.3,234.9
								c-0.7,0-1.3-0.4-1.5-1.1c-0.9-2.9-1.4-6-1.4-9.1c0-0.6,0-1.2,0-1.7c0-0.9,0.9-1.5,1.7-1.5c0.9,0,1.5,0.8,1.5,1.7
								c0,0.5,0,1,0,1.6c0,2.8,0.4,5.6,1.2,8.2c0.3,0.8-0.2,1.7-1,2C472.6,234.9,472.4,234.9,472.3,234.9z M528.9,219.2
								c-0.7,0-1.3-0.5-1.5-1.2c-0.8-3.2-2.2-6.2-4-9c-0.5-0.7-0.3-1.7,0.4-2.2c0.7-0.5,1.7-0.3,2.2,0.4c2.1,3,3.6,6.4,4.5,10
								c0.2,0.8-0.3,1.7-1.1,1.9C529.2,219.1,529,219.2,528.9,219.2z M473.4,214.5c-0.2,0-0.4,0-0.6-0.1c-0.8-0.3-1.2-1.3-0.8-2.1
								c1.5-3.4,3.5-6.4,6.1-9.1c0.6-0.6,1.6-0.6,2.2,0c0.6,0.6,0.6,1.6,0,2.2c-2.3,2.4-4.1,5.1-5.5,8.2
								C474.6,214.1,474,214.5,473.4,214.5z M517.4,202.3c-0.3,0-0.6-0.1-0.9-0.3c-2.7-1.9-5.7-3.3-8.9-4.2
								c-0.8-0.2-1.3-1.1-1.1-1.9c0.2-0.8,1.1-1.3,1.9-1.1c3.6,1,6.9,2.5,9.9,4.7c0.7,0.5,0.9,1.5,0.4,2.2
								C518.3,202,517.9,202.3,517.4,202.3z M487.6,199.8c-0.6,0-1.1-0.3-1.4-0.9c-0.4-0.8-0.1-1.7,0.7-2.1
								c3.3-1.6,6.9-2.6,10.5-2.9c0.9-0.1,1.6,0.6,1.7,1.4c0.1,0.9-0.6,1.6-1.4,1.7c-3.3,0.3-6.5,1.2-9.5,2.6
								C488.1,199.7,487.8,199.8,487.6,199.8z"/>
						</g>
						<g>
							<rect x="481.9" y="219.1" class="st0" width="36.5" height="20.7"/>
							<g>
								<g>
									<path class="st8" d="M513.3,217.5v-2.5c0-1.9,1.5-3.4,3.4-3.4l0,0c1.9,0,3.4,1.5,3.4,3.4v4.2h-6.7"/>
									<path class="st9" d="M513.4,214.9v21.5h-24.9v-21.5c0-1.9,1.5-3.4,3.4-3.4h24.6l-0.7,0.1
										C514.4,212.1,513.4,213.4,513.4,214.9z"/>
								</g>
								<g>
									<rect x="490.1" y="215" class="st8" width="5.5" height="5.7"/>
									<g>
										<g>
											<line class="st14" x1="497.3" y1="215" x2="511.3" y2="215"/>
											<line class="st14" x1="497.3" y1="216.9" x2="511.3" y2="216.9"/>
											<line class="st14" x1="497.3" y1="218.8" x2="511.3" y2="218.8"/>
											<line class="st14" x1="497.4" y1="220.7" x2="511.4" y2="220.7"/>
										</g>
										<line class="st14" x1="490.1" y1="222.6" x2="511.3" y2="222.6"/>
										<line class="st14" x1="490.1" y1="224.5" x2="511.3" y2="224.5"/>
										<line class="st14" x1="490.1" y1="226.3" x2="511.3" y2="226.3"/>
										<line class="st14" x1="490.1" y1="228.2" x2="500.4" y2="228.2"/>
									</g>
								</g>
							</g>
							<polygon class="st8" points="509.4,239.8 481.9,239.8 481.9,219.1 							"/>
							<polygon class="st8" points="490.8,239.8 518.3,239.8 518.3,219.1 							"/>
							<path class="st8" d="M518.3,239.8h-18.2h-18.2l16.4-8.7c1.1-0.8,2.6-0.8,3.7,0L518.3,239.8z"/>
						</g>
					</g>
				</g>
			</g>
		</g>
	</g>
</g>
<g id="DESIGNED_BY_FREEPIK">
</g>
</svg>
