<?xml version="1.0" encoding="utf-8"?>
<!-- Generator: Adobe Illustrator 19.0.0, SVG Export Plug-In . SVG Version: 6.00 Build 0)  -->
<svg version="1.1" id="Layer_1" xmlns="http://www.w3.org/2000/svg" xmlns:xlink="http://www.w3.org/1999/xlink" x="0px" y="0px"
	 viewBox="-280 372 50 50" style="enable-background:new -280 372 50 50;" xml:space="preserve">
<style type="text/css">
	.st0{fill:#FFFFFF;}
</style>
<title>3</title>
<desc>Created with Sketch.</desc>
<g id="Marshmello_landing-page">
	<g id="Marshmello_landngpage-Copy" transform="translate(-924.000000, -988.000000)">
		<g id="_x33_" transform="translate(924.000000, 988.000000)">
			<g id="_x30_33-monitor">
				<path id="Shape" class="st0" d="M-232,372H-278c-1.1,0-2,0.9-2,2v36.1c0,1.1,0.9,2,2,2h14.7l-4.7,6.9c-0.9,1.3,0,3.1,1.6,3.1h23
					c1.6,0,2.5-1.8,1.6-3.1l-4.7-6.9h14.7c1.1,0,2-0.9,2-2V374C-230,372.9-230.9,372-232,372z M-262.8,418.1l4.2-6.1h7.3l4.2,6.1
					H-262.8z M-233.9,408.1c-1.2,0-41,0-42.2,0v-32.2h42.2V408.1z M-272.5,386.2c-0.8-0.8-0.8-2,0-2.8c0.8-0.8,2-0.8,2.8,0l2.3,2.3
					l6.2-6.2c0.8-0.8,2-0.8,2.8,0c0.8,0.8,0.8,2,0,2.8l-7.6,7.6c-0.8,0.8-2,0.8-2.8,0L-272.5,386.2z M-272.5,400.8
					c-0.8-0.8-0.8-2,0-2.8c0.8-0.8,2-0.8,2.8,0l2.3,2.3l6.2-6.2c0.8-0.8,2-0.8,2.8,0c0.8,0.8,0.8,2,0,2.8l-7.6,7.6
					c-0.8,0.8-2,0.8-2.8,0L-272.5,400.8z M-254.5,384.8c0-1.1,0.9-2,2-2h13.7c1.1,0,2,0.9,2,2s-0.9,2-2,2h-13.7
					C-253.6,386.7-254.5,385.8-254.5,384.8z M-254.5,399.3c0-1.1,0.9-2,2-2h13.7c1.1,0,2,0.9,2,2s-0.9,2-2,2h-13.7
					C-253.6,401.2-254.5,400.4-254.5,399.3z"/>
			</g>
		</g>
	</g>
</g>
</svg>
