<?xml version="1.0" encoding="utf-8"?>
<!-- Generator: Adobe Illustrator 19.0.0, SVG Export Plug-In . SVG Version: 6.00 Build 0)  -->
<svg version="1.1" xmlns="http://www.w3.org/2000/svg" xmlns:xlink="http://www.w3.org/1999/xlink" x="0px" y="0px"
	 viewBox="0 0 500 389" style="enable-background:new 0 0 500 389;" xml:space="preserve">
<style type="text/css">
	.st0{display:none;}
	.st1{display:inline;}
	.st2{fill:#407BFF;}
	.st3{opacity:0.9;fill:#FFFFFF;}
	.st4{fill:#EBEBEB;}
	.st5{fill:#E6E6E6;}
	.st6{fill:#F5F5F5;}
	.st7{fill:#FAFAFA;}
	.st8{fill:#FFFFFF;}
	.st9{fill:#F0F0F0;}
	.st10{fill:#E0E0E0;}
	.st11{opacity:0.8;fill:#FFFFFF;}
	.st12{fill:#7F3E3B;}
	.st13{fill:#263238;}
	.st14{opacity:0.2;}
	.st15{opacity:0.3;}
	.st16{fill:#0BABAB;}
	.st17{fill:#803E3C;}
	.st18{fill:#630F0F;}
	.st19{fill:#FF8B7B;}
	.st20{fill:#674BBF;}
	.st21{opacity:0.5;}
	.st22{fill:#FF5652;}
	.st23{fill:#FFB573;}
	.st24{fill:#ED893E;}
	.st25{opacity:0.7;fill:#FFFFFF;}
	.st26{opacity:0.2;fill:#0BABAB;}
</style>
<g id="Background_Complete">
</g>
<g id="Background_Simple" class="st0">
	<g class="st1">
		<path class="st2" d="M221.7,191.7c68-11.6,225.9-89.5,214.3,38.4c-8.3,91.9-143.3,108.2-205.6,107.1
			c-79.7-1.4-176.7-64.9-170.5-165.4c2.5-40.2,32.6-45.9,61.8-24.4C156,172.7,171.6,200.3,221.7,191.7z"/>
		<path class="st3" d="M221.7,191.7c68-11.6,225.9-89.5,214.3,38.4c-8.3,91.9-143.3,108.2-205.6,107.1
			c-79.7-1.4-176.7-64.9-170.5-165.4c2.5-40.2,32.6-45.9,61.8-24.4C156,172.7,171.6,200.3,221.7,191.7z"/>
	</g>
</g>
<g id="Shadow_1_">
</g>
<g id="Character_1">
</g>
<g id="Character_2">
</g>
<g id="Character_3">
</g>
<g id="Table">
	<g>
		<rect y="327.4" class="st4" width="500" height="0.3"/>
		<rect x="416.8" y="343.5" class="st4" width="33.1" height="0.3"/>
		<rect x="322.5" y="346.3" class="st4" width="8.7" height="0.3"/>
		<rect x="396.6" y="334.3" class="st4" width="19.2" height="0.3"/>
		<rect x="52.5" y="335.9" class="st4" width="43.2" height="0.3"/>
		<rect x="104.6" y="335.9" class="st4" width="6.3" height="0.3"/>
		<rect x="131.5" y="340.2" class="st4" width="93.7" height="0.3"/>
		<path class="st4" d="M237,282.8H43.9c-3.1,0-5.7-2.6-5.7-5.7V5.7c0-3.1,2.6-5.7,5.7-5.7H237c3.1,0,5.7,2.6,5.7,5.7v271.4
			C242.7,280.3,240.2,282.8,237,282.8z M43.9,0.3c-3,0-5.5,2.4-5.5,5.5v271.4c0,3,2.4,5.5,5.5,5.5H237c3,0,5.5-2.4,5.5-5.5V5.7
			c0-3-2.4-5.5-5.5-5.5H43.9z"/>
		<path class="st4" d="M453.3,282.8H260.2c-3.1,0-5.7-2.6-5.7-5.7V5.7c0-3.1,2.6-5.7,5.7-5.7h193.1c3.1,0,5.7,2.6,5.7,5.7v271.4
			C459,280.3,456.5,282.8,453.3,282.8z M260.2,0.3c-3,0-5.5,2.4-5.5,5.5v271.4c0,3,2.4,5.5,5.5,5.5h193.1c3,0,5.5-2.4,5.5-5.5V5.7
			c0-3-2.4-5.5-5.5-5.5H260.2z"/>
	</g>
	<g>
		<g>
			<g>
				<g>
					<rect x="218.4" y="17.3" class="st5" width="194" height="150.4"/>
					<rect x="214.4" y="17.3" class="st6" width="194" height="150.4"/>
					<rect x="205" y="167.7" class="st5" width="207.4" height="8.7"/>
					<rect x="200.5" y="167.7" class="st6" width="198.5" height="8.7"/>
					<rect x="221.6" y="25.1" class="st7" width="179.5" height="134.7"/>
					<polygon class="st8" points="288.3,159.8 338.6,25.1 287.3,25.1 237.1,159.8 					"/>
					<polygon class="st8" points="325.4,159.8 375.6,25.1 347.4,25.1 297.1,159.8 					"/>
					<rect x="307.3" y="25.1" class="st6" width="8.1" height="134.7"/>
					<rect x="221.6" y="25.1" class="st5" width="3.1" height="134.7"/>
					<rect x="315.4" y="25.1" class="st5" width="3.1" height="134.7"/>
				</g>
			</g>
		</g>
		<g>
			<rect x="90.2" y="17.3" class="st5" width="75.9" height="156.1"/>
			<rect x="79.5" y="17.3" class="st9" width="83.8" height="156.1"/>
			<rect x="93.1" y="30.9" class="st8" width="56.6" height="128.9"/>
			<path class="st6" d="M136.6,124.4V66.2c0-3-2.4-5.4-5.4-5.4h-19.5c-3,0-5.4,2.4-5.4,5.4v58.2c0,3,2.4,5.4,5.4,5.4h19.5
				C134.2,129.9,136.6,127.4,136.6,124.4z"/>
		</g>
		<g>
			<g>
				<path class="st6" d="M80.3,310.4h-6.4c-6.6,0-12-5.4-12-12v-82.4c0-6.6,5.4-12,12-12h6.4c6.6,0,12,5.4,12,12v82.4
					C92.3,305,86.9,310.4,80.3,310.4z"/>
				<path class="st4" d="M86.8,306.8h-2c-5.1,0-9.3-4.2-9.3-9.3v-80.8c0-5.1,4.2-9.3,9.3-9.3h2c5.1,0,9.3,4.2,9.3,9.3v80.8
					C96.1,302.6,91.9,306.8,86.8,306.8z"/>
			</g>
			<g>
				<path class="st6" d="M102.4,310.4H96c-6.6,0-12-5.4-12-12v-82.4c0-6.6,5.4-12,12-12h6.4c6.6,0,12,5.4,12,12v82.4
					C114.4,305,109,310.4,102.4,310.4z"/>
				<path class="st4" d="M108.9,306.8h-2c-5.1,0-9.3-4.2-9.3-9.3v-80.8c0-5.1,4.2-9.3,9.3-9.3h2c5.1,0,9.3,4.2,9.3,9.3v80.8
					C118.2,302.6,114,306.8,108.9,306.8z"/>
			</g>
			<g>
				<path class="st6" d="M124.5,310.4h-6.4c-6.6,0-12-5.4-12-12v-82.4c0-6.6,5.4-12,12-12h6.4c6.6,0,12,5.4,12,12v82.4
					C136.5,305,131.1,310.4,124.5,310.4z"/>
				<path class="st4" d="M131,306.8h-2c-5.1,0-9.3-4.2-9.3-9.3v-80.8c0-5.1,4.2-9.3,9.3-9.3h2c5.1,0,9.3,4.2,9.3,9.3v80.8
					C140.3,302.6,136.1,306.8,131,306.8z"/>
			</g>
			<g>
				<path class="st6" d="M146.6,310.4h-6.4c-6.6,0-12-5.4-12-12v-82.4c0-6.6,5.4-12,12-12h6.4c6.6,0,12,5.4,12,12v82.4
					C158.6,305,153.2,310.4,146.6,310.4z"/>
				<path class="st4" d="M153.1,306.8h-2c-5.1,0-9.3-4.2-9.3-9.3v-80.8c0-5.1,4.2-9.3,9.3-9.3h2c5.1,0,9.3,4.2,9.3,9.3v80.8
					C162.4,302.6,158.2,306.8,153.1,306.8z"/>
			</g>
			<g>
				<path class="st6" d="M168.7,310.4h-6.4c-6.6,0-12-5.4-12-12v-82.4c0-6.6,5.4-12,12-12h6.4c6.6,0,12,5.4,12,12v82.4
					C180.7,305,175.3,310.4,168.7,310.4z"/>
				<path class="st4" d="M175.2,306.8h-2c-5.1,0-9.3-4.2-9.3-9.3v-80.8c0-5.1,4.2-9.3,9.3-9.3h2c5.1,0,9.3,4.2,9.3,9.3v80.8
					C184.5,302.6,180.3,306.8,175.2,306.8z"/>
			</g>
			<g>
				<path class="st6" d="M190.8,310.4h-6.4c-6.6,0-12-5.4-12-12v-82.4c0-6.6,5.4-12,12-12h6.4c6.6,0,12,5.4,12,12v82.4
					C202.8,305,197.4,310.4,190.8,310.4z"/>
				<path class="st4" d="M197.3,306.8h-2c-5.1,0-9.3-4.2-9.3-9.3v-80.8c0-5.1,4.2-9.3,9.3-9.3h2c5.1,0,9.3,4.2,9.3,9.3v80.8
					C206.6,302.6,202.4,306.8,197.3,306.8z"/>
			</g>
			<g>
				<path class="st6" d="M212.9,310.4h-6.4c-6.6,0-12-5.4-12-12v-82.4c0-6.6,5.4-12,12-12h6.4c6.6,0,12,5.4,12,12v82.4
					C224.9,305,219.5,310.4,212.9,310.4z"/>
			</g>
			<path class="st6" d="M226.9,298.5h-26.5c-1.1,0-2-0.9-2-2l0,0c0-1.1,0.9-2,2-2h26.5c1.1,0,2,0.9,2,2l0,0
				C228.9,297.6,228,298.5,226.9,298.5z"/>
			<path class="st6" d="M226.9,222.4h-26.5c-1.1,0-2-0.9-2-2l0,0c0-1.1,0.9-2,2-2h26.5c1.1,0,2,0.9,2,2l0,0
				C228.9,221.5,228,222.4,226.9,222.4z"/>
		</g>
		<g>
			<path class="st4" d="M299.3,242.1h74.1c4,0,7.2-3.2,7.2-7.2l0,0c0-4-3.2-7.2-7.2-7.2h-74.1c-4,0-7.2,3.2-7.2,7.2l0,0
				C292.1,238.9,295.3,242.1,299.3,242.1z"/>
			<g>
				<path class="st10" d="M338,203.1L338,203.1c-5.7-1.2-9.3-6.8-8.2-12.5l10.5-50.3c1.2-5.7,6.8-9.3,12.5-8.2l0,0
					c5.7,1.2,9.3,6.8,8.2,12.5L350.4,195C349.3,200.7,343.7,204.3,338,203.1z"/>
				<path class="st10" d="M331.6,202L331.6,202c-4.9,0.7-9.5-2.6-10.3-7.6l-6.6-43.5c-0.7-4.9,2.6-9.5,7.6-10.3l0,0
					c4.9-0.7,9.5,2.6,10.3,7.6l6.6,43.5C339.9,196.7,336.6,201.3,331.6,202z"/>
				<path class="st10" d="M344.4,153.7L344.4,153.7c-1.5,0.7-3.3,0-3.9-1.5l-5.9-13.2c-0.7-1.5,0-3.3,1.5-3.9l0,0
					c1.5-0.7,3.3,0,3.9,1.5l5.9,13.2C346.6,151.3,345.9,153,344.4,153.7z"/>
				<path class="st10" d="M362.3,154.9L362.3,154.9c1,1.3,0.9,3.1-0.4,4.2l-11.2,9.2c-1.3,1-3.1,0.9-4.2-0.4l0,0
					c-1-1.3-0.9-3.1,0.4-4.2l11.2-9.2C359.4,153.5,361.3,153.7,362.3,154.9z"/>
				<path class="st10" d="M330.3,139L330.3,139c0.9,0.4,1.2,1.4,0.9,2.2l-3.3,7.6c-0.4,0.9-1.4,1.2-2.2,0.9l0,0
					c-0.9-0.4-1.2-1.4-0.9-2.2l3.3-7.6C328.4,139,329.4,138.6,330.3,139z"/>
				<path class="st10" d="M312.4,154.3L312.4,154.3c0.7-0.6,1.8-0.6,2.4,0.1l5.7,6c0.6,0.7,0.6,1.8-0.1,2.4l0,0
					c-0.7,0.6-1.8,0.6-2.4-0.1l-5.7-6C311.7,156,311.8,154.9,312.4,154.3z"/>
				<polygon class="st5" points="356,227.7 316.8,227.7 308.6,189 364.1,189 				"/>
				<path class="st6" d="M360.5,195.7h-48.1c-3.7,0-6.7-3-6.7-6.7l0,0c0-3.7,3-6.7,6.7-6.7h48.1c3.7,0,6.7,3,6.7,6.7l0,0
					C367.1,192.7,364.1,195.7,360.5,195.7z"/>
			</g>
			<polygon class="st10" points="290.5,327.4 306.8,242.1 320.4,242.1 295.7,327.4 			"/>
			<polygon class="st10" points="382.2,327.4 366,242.1 352.3,242.1 377.1,327.4 			"/>
			<polygon class="st10" points="352.3,327.4 340.5,242.1 326.9,242.1 347.2,327.4 			"/>
		</g>
	</g>
	<ellipse id="_x3C_Path_x3E__158_" class="st6" cx="250" cy="361.3" rx="193.9" ry="11.3"/>
	<g>
		<path class="st2" d="M138.4,275.4H92.7c-1.7,0-3-1.3-3-3c0-1.7,1.3-3,3-3h45.7c1.7,0,3,1.3,3,3C141.4,274,140,275.4,138.4,275.4z"
			/>
		<path class="st11" d="M138.4,275.4H92.7c-1.7,0-3-1.3-3-3c0-1.7,1.3-3,3-3h45.7c1.7,0,3,1.3,3,3C141.4,274,140,275.4,138.4,275.4z
			"/>
	</g>
	<g>
		<g>
			<polygon class="st12" points="179.6,352.6 186.3,349.5 183.1,332.1 176.3,335.2 			"/>
			<path class="st13" d="M186,347.6l-7.6,3.5c-0.3,0.1-0.4,0.4-0.3,0.7l2.4,6.2c0.2,0.6,1.1,1,1.7,0.7c2.6-1.3,3.8-2,7.1-3.5
				c2-0.9,10.9-4.7,13.7-6c2.8-1.3,1.5-4.1,0.1-3.8c-5.9,1.3-13.3,2.8-15.9,2.2C186.9,347.4,186.4,347.4,186,347.6z"/>
			<g>
				<polygon class="st14" points="176.3,335.2 183.1,332.1 184.7,341.1 178,344.1 				"/>
			</g>
			<path class="st13" d="M132.1,240.7c0,0,57.7,4.1,55.4,25.3c-3.3,30.4-0.6,68.8-0.6,68.8l-12.6,5.2c0,0-11-42.8-8.1-66.5
				c-14.4-6-53.4-0.3-58-12.7c-3.8-10.2-1.7-20.1-1.7-20.1H132.1z"/>
			<path class="st15" d="M160.2,258.3c0,0-1.4,6.3-2.4,13.1c0,0,0.1,0,0.1,0c0.5,0.1,1,0.2,1.5,0.2c0.3,0.1,0.5,0.1,0.8,0.1
				c0.3,0,0.6,0.1,0.8,0.2c1.2,0.3,2.4,0.5,3.4,0.9c0.3,0.1,0.5,0.2,0.8,0.3c0.3,0.1,0.7,0.2,1,0.4c-0.3,2.7-0.5,5.7-0.5,8.8
				C174.5,269.3,166.9,258.3,160.2,258.3z"/>
			<polygon class="st16" points="173.1,344 189.4,336.6 188.3,330.6 171.6,336.7 			"/>
			<path class="st2" d="M189,347.7c-0.6,0.3-1.4,0.5-1.9,0.6c-0.1,0-0.1,0-0.2-0.1c0-0.1,0-0.1,0-0.2c0.1-0.2,1.5-2.4,2.4-2.5
				c0.2,0,0.4,0.1,0.6,0.3c0.2,0.3,0.3,0.6,0.2,0.9C189.9,347.2,189.5,347.5,189,347.7z M187.4,347.9c1.3-0.3,2.2-0.8,2.4-1.2
				c0.1-0.2,0-0.4-0.1-0.6c-0.1-0.1-0.2-0.1-0.3-0.1C188.8,345.9,187.9,347,187.4,347.9z"/>
			<path class="st2" d="M187.1,348.3C187.1,348.3,187,348.3,187.1,348.3c-0.1,0-0.2,0-0.2-0.1c0-0.1-1.1-1.9-0.7-2.9
				c0.1-0.3,0.3-0.4,0.6-0.5c0.3-0.1,0.6,0,0.8,0.2C188,345.6,187.7,347.5,187.1,348.3C187.1,348.2,187.1,348.3,187.1,348.3z
				 M186.8,345.1c-0.1,0.1-0.2,0.2-0.3,0.3c-0.2,0.6,0.2,1.7,0.5,2.3c0.4-0.8,0.5-2.1,0.2-2.6C187.2,345.1,187.1,345,186.8,345.1
				C186.8,345.1,186.8,345.1,186.8,345.1z"/>
		</g>
		<path class="st17" d="M134.9,180.6l7,20.3c1.2,3.4,2.4,6.7,3.6,10.1c1.2,3.3,2.5,6.6,3.8,9.8l-0.3-0.6c-0.2-0.3-0.6-0.8-1.3-1.2
			c-0.7-0.4-1.6-0.5-2-0.4c-0.9,0.1-0.9,0.3-0.8,0.2c0.3-0.1,1-0.6,1.6-1.1c1.3-1.1,2.6-2.5,4-4c1.3-1.4,2.6-3,4-4.5l3.9-4.6
			l4.8,2.9c-0.8,2-1.8,3.9-2.7,5.8c-1,1.9-2,3.7-3.2,5.6c-1.2,1.8-2.4,3.7-4,5.5c-0.8,0.9-1.7,1.8-3.2,2.9c-0.8,0.5-1.7,1.1-3.6,1.3
			c-0.9,0.1-2.3-0.1-3.5-0.7c-1.2-0.6-1.9-1.5-2.4-2.2l-0.1-0.2l-0.2-0.4c-1.7-3.4-3.2-6.8-4.6-10.2c-1.4-3.4-2.8-6.8-4.1-10.2
			c-1.3-3.4-2.5-6.8-3.8-10.3c-1.2-3.4-2.4-6.9-3.5-10.4L134.9,180.6z"/>
		<path class="st16" d="M136.1,181.7c6,6.9,10,16.6,10,16.6l-15.8,9.5c-4.6-5.5-10.2-20.2-10.5-25.2
			C119.6,175,129.6,174.2,136.1,181.7z"/>
		<path class="st15" d="M130.6,188.7c3.4,2.9,5.9,8.9,7,14.7l-7.1,4.3c-2.3-2.7-4.8-7.7-6.8-12.7
			C125.2,190.2,127.5,186.2,130.6,188.7z"/>
		<g>
			<polygon class="st12" points="132.8,352 140.2,352 143.6,334.8 136.2,334.8 			"/>
			<path class="st13" d="M140.4,350.2h-8.3c-0.3,0-0.5,0.2-0.5,0.5l-0.4,6.6c0,0.7,0.6,1.3,1.3,1.3c2.9,0,4.3-0.2,7.9-0.2
				c2.3,0,9.9,0.2,13,0.2c3,0,3-3.1,1.7-3.4c-5.9-1.2-11.3-3-13.4-4.6C141.3,350.3,140.9,350.2,140.4,350.2z"/>
			<g>
				<polygon class="st14" points="136.2,334.8 143.6,334.8 141.9,343.7 134.4,343.7 				"/>
			</g>
			<path class="st13" d="M117.5,240.7c0,0,48.9,4.1,47.7,25.4c-1.3,23.2-20.1,75.5-20.1,75.5h-13.6c0,0,6.1-47.3,9.1-71
				c-13.8,0-42.4,2.6-46.9-9.8c-3.8-10.2-1.7-20.1-1.7-20.1H117.5z"/>
			<polygon class="st16" points="130,341.5 147.9,341.5 148.9,334.5 130.3,335.3 			"/>
			<path class="st2" d="M143.1,351.5c-0.7,0-1.4-0.1-2-0.3c-0.1,0-0.1-0.1-0.1-0.1c0-0.1,0-0.1,0.1-0.2c0.2-0.2,2.3-1.6,3.2-1.2
				c0.2,0.1,0.3,0.3,0.4,0.5c0.1,0.4,0,0.7-0.2,0.9C144.2,351.4,143.6,351.5,143.1,351.5z M141.6,351c1.3,0.3,2.3,0.2,2.6-0.1
				c0.1-0.1,0.2-0.3,0.1-0.6c0-0.1-0.1-0.2-0.2-0.2C143.7,349.8,142.4,350.4,141.6,351z"/>
			<path class="st2" d="M141.1,351.2C141.1,351.2,141.1,351.2,141.1,351.2c-0.1,0-0.2-0.1-0.2-0.2c0-0.1-0.2-2.2,0.6-2.9
				c0.2-0.2,0.4-0.3,0.7-0.2c0.3,0,0.6,0.2,0.6,0.5C143.1,349.2,142,350.8,141.1,351.2C141.2,351.2,141.2,351.2,141.1,351.2z
				 M142.2,348.2c-0.1,0-0.3,0-0.4,0.2c-0.4,0.4-0.5,1.7-0.5,2.4c0.6-0.5,1.4-1.7,1.3-2.3C142.5,348.4,142.5,348.3,142.2,348.2
				C142.2,348.2,142.2,348.2,142.2,348.2z"/>
		</g>
		<path class="st12" d="M157.2,207.2l2.3-8.2l7.4,4.9c0,0-4,7.1-6.5,6.5L157.2,207.2z"/>
		<polygon class="st12" points="166.4,195.6 170.2,200 166.9,203.8 159.5,198.9 		"/>
		<path class="st16" d="M132,241.1H92.4c-0.3-3.5,0.5-15.1-0.1-29.7c-0.4-9.9-1.5-21.1-3.9-32.3c-0.2-0.8-0.4-1.6-0.6-2.4
			c0,0,2-0.4,4.9-0.8c2.4-0.4,5.4-0.7,8.3-0.9c5.1-0.2,12.4-0.4,16.8,0c2.6,0.2,5.1,0.7,7.1,1.1c2.6,0.5,4.1,1,4.1,1
			S138.9,199.4,132,241.1z"/>
		<path class="st15" d="M92.3,211.3c-0.4-9.9-1.5-21.1-3.9-32.3c2.7-0.2,7.2,0,7.9,4.3C97.1,187.9,96.1,198.7,92.3,211.3z"/>
		<path class="st17" d="M95.5,186.4c-0.9,2.5-1.8,5.1-2.6,7.7c-0.8,2.6-1.7,5.2-2.4,7.8c-1.5,5.2-2.8,10.5-3.2,15.5l-0.1,0.9l0,0.5
			c0,0.1,0,0.5,0,0.2c0-0.2-0.1-0.9-0.6-1.6c-0.5-0.7-1.3-1.2-1.7-1.2c-0.4-0.1-0.5-0.1-0.5-0.1c0,0,0.1,0,0.3,0
			c0.3,0,0.9-0.1,1.4-0.2c2.2-0.5,4.8-1.5,7.2-2.6c5-2.1,10.1-4.6,15.1-7.1l3.1,4.6c-4.5,3.7-9.1,7.1-14.2,10.1
			c-2.6,1.5-5.2,2.9-8.4,4.1c-0.8,0.3-1.7,0.5-2.7,0.7c-0.5,0.1-1.1,0.2-1.8,0.2c-0.7,0-1.5,0-2.6-0.4c-1-0.3-2.5-1.1-3.4-2.4
			c-0.9-1.3-1.2-2.6-1.3-3.6c0-0.6,0-0.6,0-0.9l0-0.6l0-1.2c0.1-3.2,0.4-6.2,0.9-9.2c0.5-3,1.1-5.9,1.8-8.7c0.7-2.9,1.5-5.7,2.4-8.4
			c0.9-2.8,1.8-5.5,2.9-8.3L95.5,186.4z"/>
		<path class="st16" d="M87.8,176.6c7.2-2.3,11.8,3.5,9.8,13.5s-6.9,18.3-6.9,18.3l-14.6-6.9C77.6,191.6,80.4,178.9,87.8,176.6z"/>
		<path class="st12" d="M101.4,156l4.5,3.7l6.1,5.1c-0.2,0.8-0.3,1.7-0.4,2.5c-0.3,3.3,0.5,6.4,5.4,7.5c0,0,4.8,4.5-4.8,4.6
			c-9.6,0.1-11.9-4.5-11.9-4.5C104,171.3,102.6,161.4,101.4,156z"/>
		<path class="st14" d="M112,164.9c-0.2,0.8-0.3,1.7-0.4,2.5c-2.3-0.5-5.3-2.9-5.7-5.2c-0.1-0.9-0.1-1.7-0.1-2.3L112,164.9z"/>
		<path class="st13" d="M119.2,150.4c1.8-4,0.7-9.8-2.3-11.9c-3-2.2-7-0.2-7,3.6C109.7,147,117.2,154.9,119.2,150.4z"/>
		<path class="st12" d="M99.5,148.2c1.6,7.2,2.1,11.5,6.4,14.8c6.4,4.9,14.9,0.6,15.5-6.9c0.6-6.7-2.1-17.4-9.7-19.4
			C104.3,134.7,98,141,99.5,148.2z"/>
		<path class="st13" d="M102.6,153.8c2.3-3.7,1.9-9.6-0.8-12.1c-2.7-2.5-6.9-1.1-7.5,2.6C93.6,149.2,100,158.1,102.6,153.8z"/>
		<g>
			<circle class="st13" cx="102.2" cy="141.9" r="3.3"/>
			<circle class="st13" cx="99.7" cy="139.7" r="3"/>
			<circle class="st13" cx="104.7" cy="139.1" r="3"/>
			<circle class="st13" cx="97.9" cy="135.6" r="3.9"/>
			<circle class="st13" cx="103.7" cy="133.5" r="4"/>
			<circle class="st13" cx="108.9" cy="132.1" r="4"/>
			<circle class="st13" cx="114.9" cy="132.1" r="4"/>
			<circle class="st13" cx="95.3" cy="139.9" r="3.6"/>
			<circle class="st13" cx="107.9" cy="136.7" r="3.3"/>
			<circle class="st13" cx="112.3" cy="136.6" r="2.8"/>
			<circle class="st13" cx="118.5" cy="134.4" r="2.8"/>
			<circle class="st13" cx="116.1" cy="136.7" r="2.6"/>
			<circle class="st13" cx="121.5" cy="133.3" r="2.2"/>
			<circle class="st13" cx="123.4" cy="135.6" r="1.3"/>
			<circle class="st13" cx="101.8" cy="137.2" r="1.3"/>
		</g>
		<path class="st12" d="M98.3,154.9c1.1,1.4,2.6,2.2,4,2.5c2,0.4,2.7-1.5,1.8-3.3c-0.8-1.6-2.8-3.8-4.7-3.3
			C97.5,151.1,97.1,153.3,98.3,154.9z"/>
		<path class="st13" d="M111.9,148.9c0.1,0.6,0.5,1,0.9,1c0.4,0,0.6-0.6,0.5-1.2c-0.1-0.6-0.5-1-0.9-1
			C112,147.8,111.8,148.3,111.9,148.9z"/>
		<path class="st13" d="M118.6,148.1c0.1,0.6,0.5,1,0.9,1c0.4,0,0.6-0.6,0.5-1.2c-0.1-0.6-0.5-1-0.9-1
			C118.7,147,118.5,147.5,118.6,148.1z"/>
		<path class="st18" d="M116.5,148.3c0,0,1.4,2.9,2.8,4.2c-0.8,0.9-2.4,0.6-2.4,0.6L116.5,148.3z"/>
		<path class="st13" d="M114.2,156.1c-2.4,0-3.7-1.5-3.7-1.5c-0.1-0.1-0.1-0.2,0-0.2c0.1-0.1,0.2-0.1,0.2,0c0,0,1.5,1.7,4.1,1.4
			c0.1,0,0.2,0.1,0.2,0.2c0,0.1-0.1,0.2-0.2,0.2C114.7,156.1,114.4,156.1,114.2,156.1z"/>
		<path class="st13" d="M109.2,145.5c-0.1,0-0.1,0-0.2-0.1c-0.1-0.1-0.2-0.4,0-0.5c1.3-1.4,2.9-1.2,3-1.2c0.2,0,0.3,0.2,0.3,0.4
			c0,0.2-0.2,0.3-0.4,0.3c-0.1,0-1.3-0.2-2.3,0.9C109.4,145.4,109.3,145.5,109.2,145.5z"/>
		<path class="st13" d="M121,145.1c-0.1,0-0.2,0-0.3-0.1c-1.2-1-2.5-0.7-2.5-0.7c-0.2,0.1-0.4-0.1-0.4-0.2c-0.1-0.2,0.1-0.4,0.2-0.4
			c0,0,0,0,0,0c0.1,0,1.6-0.4,3.1,0.8c0.1,0.1,0.2,0.3,0,0.5C121.1,145,121,145,121,145.1z"/>
		<path class="st12" d="M106.8,207.1l2.6-6.3l5.5,5.8c0,0-2.7,6.2-5.7,4.6L106.8,207.1z"/>
		<polygon class="st12" points="116.2,196.5 119.3,201.6 114.9,206.6 109.4,200.8 		"/>
	</g>
	<g>
		<g>
			<circle class="st13" cx="278.2" cy="133.6" r="8.7"/>
			<path class="st13" d="M280.3,142.6c-5,0-9-4-9-9s4-9,9-9c5,0,9,4,9,9S285.2,142.6,280.3,142.6z M280.3,125.1
				c-4.7,0-8.5,3.8-8.5,8.5s3.8,8.5,8.5,8.5c4.7,0,8.5-3.8,8.5-8.5S285,125.1,280.3,125.1z"/>
			<path class="st13" d="M260.9,147.6c-5,0-9-4-9-9c0-5,4-9,9-9c5,0,9,4,9,9C269.9,143.6,265.9,147.6,260.9,147.6z M260.9,130.2
				c-4.7,0-8.5,3.8-8.5,8.5c0,4.7,3.8,8.5,8.5,8.5c4.7,0,8.5-3.8,8.5-8.5C269.4,134,265.6,130.2,260.9,130.2z"/>
			<circle class="st13" cx="261.8" cy="138.5" r="8.9"/>
			<path class="st13" d="M253.1,124.9c-1.1,5.1,2.6,14.2,6.6,14.6s4.7-9.3,1.3-13.6C257.5,121.7,253.9,121.2,253.1,124.9z"/>
			<path class="st19" d="M260.4,163.9c0.5,2.8,0.7,5.5,0.9,8.2c0.2,2.7,0.2,5.5,0.2,8.2c-0.1,5.5-0.7,11.1-2.2,16.6
				c-1.6,5.3-3.4,10.3-5.3,15.2l-3,7.4c-1,2.5-2.1,4.9-3.2,7.3l-3.5-1.3l2.2-7.6l2.2-7.6l2.2-7.6c0.7-2.5,1.4-5.1,2-7.5
				c1.1-4.7,1.3-9.9,1.2-14.9c0-2.5-0.2-5.1-0.4-7.7c-0.2-2.5-0.5-5.2-0.8-7.6L260.4,163.9z"/>
			<path class="st20" d="M253.4,156.2c-2.8,1.4-2.1,14.1-2.1,14.1l13.1,5.1c0,0,1.4-15.5-1.6-18.3
				C259.6,154.3,257.5,154.1,253.4,156.2z"/>
			<polygon class="st14" points="254.3,158.9 254.8,171.7 260.1,173.8 			"/>
			<path class="st19" d="M245.8,223.8l-8.3,3.4l6.4,3.4c0,0,4.3-2.1,4.4-5.1L245.8,223.8z"/>
			<polygon class="st19" points="269,351.1 261.6,351.1 260.4,334 267.8,334 			"/>
			<polygon class="st19" points="310,340 302.8,341.5 297.1,325.2 304.4,323.7 			"/>
			<path class="st13" d="M301.7,340.2l7.8-2.8c0.3-0.1,0.6,0,0.7,0.3l3.1,5.9c0.3,0.6,0,1.4-0.7,1.6c-2.7,0.9-4.1,1.2-7.5,2.5
				c-2.1,0.8-6.1,3-9,4c-2.9,1-4.1-1.8-3-2.5c5-3.1,6.3-6,7.6-8.2C300.9,340.7,301.3,340.4,301.7,340.2z"/>
			<path class="st13" d="M261.1,350.2h8.3c0.3,0,0.5,0.2,0.6,0.5l0.9,6.6c0.1,0.7-0.5,1.3-1.2,1.3c-2.9,0-4.3-0.2-7.9-0.2
				c-2.2,0-6.9,0.2-10,0.2c-3,0-3.3-3.1-2-3.3c5.8-1.2,8.1-3,10-4.6C260.2,350.4,260.6,350.2,261.1,350.2z"/>
			<g class="st14">
				<polygon points="260.4,334 261.1,343.3 268.4,343.3 267.8,334 				"/>
				<polygon points="304.4,323.7 297.1,325.2 300.3,334.3 307.5,332.6 				"/>
			</g>
			<path class="st20" d="M253.4,156.2c0,0-3.2,2,13.3,42.7c11.6-2.6,23.6-5.4,29.3-6.6c-3.2-11.8-4.9-19.1-4.7-44.9
				c0,0-6.4,0.1-12.8,1.2c-5,0.9-9,1.6-13.3,3C259.6,153.4,253.4,156.2,253.4,156.2z"/>
			<path class="st14" d="M291.2,151.4c-2.2,1.5-4.2,4.3-4.7,6.9c-0.8,3.5,4.1,9.5,5.3,10.8C291.4,164.3,291.3,158.7,291.2,151.4z"/>
			<path class="st19" d="M274.1,135.5c0.1,4.5,0.7,10.9,4.4,13.1c0,0-2.2,8.5-9.1,14.4c-7-3.4-4.2-11.3-4.2-11.3
				c4.5-2.2,3.9-4.1,2.4-7.3L274.1,135.5z"/>
			<path class="st14" d="M271.4,139.1l-3.9,5.2c0.4,0.7,0.7,1.5,0.9,2.3c1.8-0.7,4.3-2.9,4.2-4.9
				C272.7,140.7,271.7,139.5,271.4,139.1z"/>
			<path class="st19" d="M273.6,124.8c2.2,7,3.3,9.9,1.1,14.7c-3.2,7.3-12.3,8.4-16.5,2.2c-3.8-5.6-6.7-16.1-1.1-21.4
				C262.7,115.2,271.4,117.8,273.6,124.8z"/>
			<g>
				<path class="st2" d="M266.7,198.9c0,0-16.8,42.8-16.3,65.3c0.5,23.4,9.1,76.9,9.1,76.9h10c0,0-1.6-52.1-0.7-75.1
					c1-25.1,19.4-72,19.4-72L266.7,198.9z"/>
				<path class="st21" d="M266.7,198.9c0,0-16.8,42.8-16.3,65.3c0.5,23.4,9.1,76.9,9.1,76.9h10c0,0-1.6-52.1-0.7-75.1
					c1-25.1,19.4-72,19.4-72L266.7,198.9z"/>
			</g>
			<polygon class="st13" points="270.4,341.4 258.6,341.4 257.8,337.7 270.9,337.2 			"/>
			<path class="st14" d="M274.4,212c-5.7,10.1-5.2,26.6-3.7,39.1c2.3-11.7,6.2-24.8,9.7-35.5C279.7,208.9,277.9,205.8,274.4,212z"/>
			<g>
				<path class="st2" d="M274.5,197.2c0,0-4,46.8,1.2,65.8c6.1,22.5,22.3,69.3,22.3,69.3l9.9-2c0,0-8-53.9-12.7-65.8
					c-9.9-25.4,12.3-57.8,0.8-72.2L274.5,197.2z"/>
				<path class="st21" d="M274.5,197.2c0,0-4,46.8,1.2,65.8c6.1,22.5,22.3,69.3,22.3,69.3l9.9-2c0,0-8-53.9-12.7-65.8
					c-9.9-25.4,12.3-57.8,0.8-72.2L274.5,197.2z"/>
			</g>
			<polygon class="st13" points="309.1,330.6 296.8,333 294.8,329.4 309,325.9 			"/>
			
				<ellipse transform="matrix(0.9344 -0.3562 0.3562 0.9344 -29.4244 102.1813)" class="st13" cx="262.7" cy="131" rx="0.7" ry="1.1"/>
			
				<ellipse transform="matrix(0.9344 -0.3562 0.3562 0.9344 -30.6918 100.0972)" class="st13" cx="256.4" cy="133.4" rx="0.7" ry="1.1"/>
			<path class="st13" d="M256.2,132.3l-1.5,0.1C254.7,132.5,255.8,133.2,256.2,132.3z"/>
			<path class="st22" d="M259.4,133.4c0,0,0,2.8-0.6,4.3c1,0.4,2.1-0.4,2.1-0.4L259.4,133.4z"/>
			<path class="st13" d="M264.8,138.3c-0.2,0.1-0.5,0.3-0.8,0.4c-0.1,0-0.2,0-0.2-0.1c0-0.1,0-0.2,0.1-0.2c2.4-0.9,2.9-3.1,2.9-3.1
				c0-0.1,0.1-0.2,0.2-0.1c0.1,0,0.2,0.1,0.1,0.2C267.1,135.5,266.7,137.2,264.8,138.3z"/>
			<path class="st13" d="M261.2,121.5c2.3,5.7,11.9,10.6,15.4,9.1c4.2-1.8,3-10.8-3.7-13.6C267.3,114.6,259.5,117.3,261.2,121.5z"/>
			<path class="st13" d="M266.5,116.6c-2.2-2.2-15.4-1.6-16.5,4.1c-1.5,8,6.1,6.2,10.3,4.5C265.7,123.1,269.4,119.4,266.5,116.6z"/>
			<path class="st19" d="M277.3,131.4c0,1.5-0.7,2.9-1.6,3.8c-1.4,1.3-2.9,0.3-3.3-1.4c-0.3-1.6,0-4.1,1.7-4.8
				C275.8,128.3,277.4,129.6,277.3,131.4z"/>
			<path class="st13" d="M264,128.1c-0.1,0.1-0.3,0-0.4-0.1c-1.1-1.2-3.1-1-3.2-1c-0.2,0-0.4-0.1-0.4-0.3c0-0.2,0.1-0.4,0.3-0.4
				c0.1,0,2.5-0.2,3.8,1.3C264.3,127.7,264.2,127.9,264,128.1C264.1,128,264,128,264,128.1z"/>
			<path class="st13" d="M253.3,131c-0.1,0.1-0.2,0.1-0.3,0c-0.2-0.1-0.2-0.3-0.1-0.5c1-1.7,2.6-1.8,2.6-1.8c0.2,0,0.4,0.1,0.4,0.3
				c0,0.2-0.1,0.4-0.3,0.4c-0.1,0-1.3,0.1-2.1,1.4C253.4,131,253.3,131,253.3,131z"/>
			<path class="st2" d="M298.4,342.4C298.4,342.4,298.3,342.4,298.4,342.4c-0.4-0.2-0.6-0.4-0.7-0.8c-0.1-0.3,0.1-0.5,0.2-0.6
				c0.7-0.7,3.3,0,3.6,0c0.1,0,0.1,0.1,0.1,0.1c0,0.1,0,0.1-0.1,0.2C300.7,341.9,299.3,342.7,298.4,342.4z M301,341.3
				c-1-0.2-2.5-0.4-2.8,0c0,0-0.1,0.1-0.1,0.3c0.1,0.3,0.2,0.4,0.4,0.5C298.9,342.3,299.8,342,301,341.3z"/>
			<path class="st2" d="M301.1,341.3c-0.9-0.3-2.3-1.2-2.5-2c0-0.2,0-0.5,0.4-0.7c0.3-0.1,0.5-0.1,0.8,0c1,0.4,1.7,2.4,1.8,2.5
				c0,0.1,0,0.1,0,0.2c0,0-0.1,0.1-0.2,0.1C301.3,341.4,301.2,341.4,301.1,341.3z M299.6,339c-0.2,0-0.3,0-0.4,0
				c-0.2,0.1-0.2,0.2-0.2,0.3c0.1,0.5,1.3,1.4,2.1,1.6C300.8,340.3,300.3,339.3,299.6,339C299.7,339,299.7,339,299.6,339z"/>
			<path class="st2" d="M258.3,351.5c-0.7,0-1.4-0.1-1.8-0.5c-0.2-0.2-0.3-0.5-0.3-0.9c0-0.2,0.1-0.4,0.3-0.5c0.9-0.5,3.8,1,4.2,1.2
				c0.1,0,0.1,0.1,0.1,0.2c0,0.1-0.1,0.1-0.1,0.1C260,351.4,259.1,351.5,258.3,351.5z M257,350c-0.1,0-0.2,0-0.3,0.1
				c-0.1,0-0.1,0.1-0.1,0.2c0,0.2,0,0.4,0.2,0.6c0.4,0.4,1.7,0.5,3.3,0.2C259,350.5,257.7,350,257,350z"/>
			<path class="st2" d="M260.6,351.3C260.6,351.3,260.5,351.2,260.6,351.3c-1-0.4-2.7-2-2.6-2.8c0-0.2,0.2-0.4,0.7-0.5
				c0.4,0,0.7,0.1,1,0.3c0.9,0.8,1.1,2.8,1.1,2.8c0,0.1,0,0.1-0.1,0.2C260.7,351.2,260.6,351.3,260.6,351.3z M258.8,348.3
				c0,0-0.1,0-0.1,0c-0.3,0-0.3,0.2-0.3,0.2c-0.1,0.5,1.1,1.8,2,2.3c-0.1-0.6-0.3-1.8-0.9-2.3C259.2,348.3,259,348.3,258.8,348.3z"
				/>
			<path class="st13" d="M262.5,129.9l-1.5,0.1C261,130.1,262.1,130.8,262.5,129.9z"/>
			<g>
				<path class="st8" d="M296,190.5l1.3,2.4c0.1,0.2,0,0.4-0.4,0.5l-30.1,6.8c-0.3,0.1-0.5,0-0.6-0.2l-0.9-2.6
					c-0.1-0.2,0.1-0.4,0.4-0.4l29.6-6.7C295.7,190.3,295.9,190.3,296,190.5z"/>
			</g>
			<g>
				<g>
					<path class="st2" d="M292.7,194.7l0.8-0.2c0.2,0,0.3-0.1,0.2-0.2l-1.1-3.3c0-0.1-0.2-0.1-0.3-0.1l-0.8,0.2
						c-0.2,0-0.3,0.1-0.2,0.2l1.1,3.3C292.4,194.7,292.6,194.7,292.7,194.7z"/>
					<path class="st21" d="M292.7,194.7l0.8-0.2c0.2,0,0.3-0.1,0.2-0.2l-1.1-3.3c0-0.1-0.2-0.1-0.3-0.1l-0.8,0.2
						c-0.2,0-0.3,0.1-0.2,0.2l1.1,3.3C292.4,194.7,292.6,194.7,292.7,194.7z"/>
				</g>
				<g>
					<path class="st2" d="M269.2,200l0.8-0.2c0.2,0,0.3-0.1,0.2-0.2l-1.1-3.3c0-0.1-0.2-0.1-0.3-0.1l-0.8,0.2
						c-0.2,0-0.3,0.1-0.2,0.2l1.1,3.3C268.9,200,269,200.1,269.2,200z"/>
					<path class="st21" d="M269.2,200l0.8-0.2c0.2,0,0.3-0.1,0.2-0.2l-1.1-3.3c0-0.1-0.2-0.1-0.3-0.1l-0.8,0.2
						c-0.2,0-0.3,0.1-0.2,0.2l1.1,3.3C268.9,200,269,200.1,269.2,200z"/>
				</g>
				<g>
					<path class="st2" d="M280.9,197.4l0.8-0.2c0.2,0,0.3-0.1,0.2-0.2l-1.1-3.3c0-0.1-0.2-0.1-0.3-0.1l-0.8,0.2
						c-0.2,0-0.3,0.1-0.2,0.2l1.1,3.3C280.6,197.4,280.7,197.4,280.9,197.4z"/>
					<path class="st21" d="M280.9,197.4l0.8-0.2c0.2,0,0.3-0.1,0.2-0.2l-1.1-3.3c0-0.1-0.2-0.1-0.3-0.1l-0.8,0.2
						c-0.2,0-0.3,0.1-0.2,0.2l1.1,3.3C280.6,197.4,280.7,197.4,280.9,197.4z"/>
				</g>
			</g>
			<g>
				<polygon class="st19" points="234.7,231.9 240.6,233.4 243.9,230.6 237.5,227.2 				"/>
			</g>
			<path class="st19" d="M281.7,183.5l-5.7-5.5l-0.5,7.5c0,0,4,2.6,6.7,1.1L281.7,183.5z"/>
			<path class="st19" d="M296,154.2c0.3,0.3,0.4,0.5,0.6,0.8l0.5,0.7c0.3,0.5,0.6,0.9,0.9,1.4c0.6,0.9,1.1,1.8,1.6,2.8
				c0.9,1.9,1.8,3.8,2.5,5.7c0.8,1.9,1.4,3.9,2,5.9c0.3,1,0.5,2,0.8,3l0.1,0.4l0.1,0.5c0.1,0.4,0.2,0.9,0.2,1.3
				c0,0.9-0.1,1.9-0.5,2.8c-0.7,1.8-2,2.9-3.1,3.7c-1.1,0.8-2.3,1.2-3.3,1.6c-2.2,0.7-4.3,1.1-6.4,1.4c-4.2,0.5-8.2,0.5-12.3,0.2
				l0-3.7c1.9-0.2,3.8-0.5,5.7-0.8c1.9-0.3,3.8-0.7,5.6-1.1c1.8-0.5,3.6-1,5.1-1.7c0.7-0.3,1.4-0.7,1.9-1.1c0.5-0.4,0.7-0.7,0.6-0.8
				c0,0,0,0,0-0.1l-0.2-0.7c-0.3-0.9-0.6-1.8-0.9-2.7c-0.6-1.8-1.4-3.5-2.1-5.3c-0.7-1.7-1.6-3.4-2.4-5c-0.4-0.8-0.9-1.6-1.3-2.4
				c-0.2-0.4-0.5-0.8-0.7-1.1l-0.3-0.5l-0.3-0.4L296,154.2z"/>
			<path class="st20" d="M291.2,147.4c3.1,0.2,8.9,9.5,8.9,9.5l-8.9,9.6c0,0-6.7-6.4-6.3-10.5C285.4,151.9,287.7,147.2,291.2,147.4z
				"/>
			<polygon class="st19" points="269.8,177.4 269.7,183.7 275.4,185.5 275.9,178 			"/>
		</g>
	</g>
	<g>
		<g>
			<path class="st2" d="M390.5,275.4h-45.7c-1.7,0-3-1.3-3-3c0-1.7,1.3-3,3-3h45.7c1.7,0,3,1.3,3,3
				C393.5,274,392.1,275.4,390.5,275.4z"/>
			<path class="st11" d="M390.5,275.4h-45.7c-1.7,0-3-1.3-3-3c0-1.7,1.3-3,3-3h45.7c1.7,0,3,1.3,3,3
				C393.5,274,392.1,275.4,390.5,275.4z"/>
		</g>
		<g>
			<g>
				<polygon class="st23" points="331.4,352 324,352 319.7,334.8 327.1,334.8 				"/>
				<path class="st13" d="M323.4,350.2h8.3c0.3,0,0.5,0.2,0.5,0.5l0.4,6.6c0,0.7-0.6,1.3-1.3,1.3c-2.9,0-4.3-0.2-7.9-0.2
					c-2.3,0-11.8,0.2-14.9,0.2c-3,0-3-3.1-1.7-3.4c5.9-1.2,13.2-3,15.3-4.6C322.5,350.3,323,350.2,323.4,350.2z"/>
				<g>
					<polygon class="st14" points="327.1,334.8 319.7,334.8 321.9,343.7 329.3,343.7 					"/>
				</g>
				<path class="st16" d="M351.1,240.7c0,0-60.3,4.1-59.1,25.4c1.3,23.2,26.7,75.5,26.7,75.5h13.6c0,0-12.3-44.4-15.3-68.1
					c14.4-6,53.4-0.3,58-12.7c3.8-10.2,1.7-20.1,1.7-20.1H351.1z"/>
				<path class="st15" d="M317.7,278.6c-0.2-1.1-0.3-2.1-0.5-3.1c-0.1-0.7-0.2-1.4-0.3-2.1c2.3-0.9,5.1-1.6,8.4-2.1
					c-1-6.8-2.4-13.1-2.4-13.1c-7,0-14.9,12-4.4,25.5c-0.2-0.9-0.3-1.8-0.5-2.7C317.9,280.2,317.8,279.4,317.7,278.6z"/>
				<polygon class="st13" points="333.7,341.5 315.8,341.5 314.3,335.7 332,334.3 				"/>
				<path class="st2" d="M320.8,351.5c0.7,0,1.4-0.1,2-0.3c0.1,0,0.1-0.1,0.1-0.1c0-0.1,0-0.1-0.1-0.2c-0.2-0.2-2.3-1.6-3.2-1.2
					c-0.2,0.1-0.3,0.3-0.4,0.5c-0.1,0.4,0,0.7,0.2,0.9C319.7,351.4,320.2,351.5,320.8,351.5z M322.3,351c-1.3,0.3-2.3,0.2-2.6-0.1
					c-0.1-0.1-0.2-0.3-0.1-0.6c0-0.1,0.1-0.2,0.2-0.2C320.2,349.8,321.5,350.4,322.3,351z"/>
				<path class="st2" d="M322.7,351.2C322.8,351.2,322.8,351.2,322.7,351.2c0.1,0,0.2-0.1,0.2-0.2c0-0.1,0.2-2.2-0.6-2.9
					c-0.2-0.2-0.4-0.3-0.7-0.2c-0.3,0-0.6,0.2-0.6,0.5C320.8,349.2,321.9,350.8,322.7,351.2C322.7,351.2,322.7,351.2,322.7,351.2z
					 M321.7,348.2c0.1,0,0.3,0,0.4,0.2c0.4,0.4,0.5,1.7,0.5,2.4c-0.6-0.5-1.4-1.7-1.3-2.3C321.3,348.4,321.4,348.3,321.7,348.2
					C321.7,348.2,321.7,348.2,321.7,348.2z"/>
			</g>
			<path class="st23" d="M358.8,184.3c-1.1,3.1-2.4,6.1-3.6,9.2c-1.2,3.1-2.5,6.1-3.8,9.1c-2.6,6.1-5.3,12.1-8.3,18.1l-0.4,0.9
				l-0.4,0.4c-2.2,2.2-4.6,4-7.2,5.4c-2.6,1.4-5.3,2.4-8,3.2c-2.7,0.7-5.5,1.2-8.2,1.4c-1.4,0.1-2.7,0.1-4.1,0.1
				c-1.4,0-2.7-0.1-4.2-0.2l0.1-5.6c1.1-0.2,2.3-0.4,3.5-0.6c1.2-0.2,2.3-0.5,3.5-0.8c2.3-0.6,4.5-1.4,6.6-2.3
				c2.1-0.9,4.1-2,5.9-3.2c1.8-1.2,3.3-2.7,4.6-4.2l-0.9,1.3c2.5-5.9,4.8-12,7.2-18l3.6-9.1l3.6-9.1L358.8,184.3z"/>
			<path class="st13" d="M347,181.7c-6,6.9-10,16.6-10,16.6l15.8,9.5c4.6-5.5,10.2-20.2,10.5-25.2C363.6,175,353.5,174.2,347,181.7z
				"/>
			<path class="st15" d="M352.6,188.7c-3.4,2.9-5.9,8.9-7,14.7l7.1,4.3c2.3-2.7,4.8-7.7,6.8-12.7
				C357.9,190.2,355.6,186.2,352.6,188.7z"/>
			<g>
				<polygon class="st23" points="360.6,347.3 353.4,349 346.2,333.1 353.4,331.4 				"/>
				<path class="st13" d="M352.2,347.1l7.8-2.9c0.3-0.1,0.6,0,0.7,0.3l2.7,6c0.3,0.6-0.1,1.4-0.8,1.7c-2.6,1.4-4,1.5-7.5,2.5
					c-1.5,0.5-5.5,3.7-10,3.7c-1.8,0-3,0-4,0c-2.4,0-2.7-2.5-1.4-2.9c6.3-1.7,10.1-5.4,11.5-7.7
					C351.4,347.5,351.8,347.2,352.2,347.1z"/>
				<g>
					<polygon class="st14" points="353.4,331.4 346.2,333.1 349.9,341.3 357.1,339.6 					"/>
				</g>
				<path class="st16" d="M365.6,240.7c0,0-48.9,4.1-47.7,25.4c1.3,23.2,28.4,73.9,28.4,73.9l13.2-3.1c0,0-14-42.6-17-66.3
					c13.8,0,42.4,2.6,46.9-9.8c3.8-10.2,1.7-20.1,1.7-20.1H365.6z"/>
				<polygon class="st13" points="360.9,336.5 343.5,340.6 341.7,334.8 359.3,329.6 				"/>
				<path class="st2" d="M350.2,349.2c0.6-0.2,1.3-0.6,1.8-0.9c0.1,0,0.1-0.1,0.1-0.2c0-0.1-0.1-0.1-0.1-0.1c-0.3-0.1-2.7-0.7-3.5,0
					c-0.2,0.1-0.2,0.4-0.2,0.6c0.1,0.4,0.2,0.7,0.5,0.8C349.1,349.5,349.6,349.4,350.2,349.2z M351.4,348.2c-1.2,0.7-2.1,1-2.5,0.8
					c-0.2-0.1-0.3-0.3-0.3-0.5c0-0.1,0-0.2,0.1-0.3C349,347.8,350.4,348,351.4,348.2z"/>
				<path class="st2" d="M351.9,348.3C351.9,348.3,351.9,348.3,351.9,348.3c0.1-0.1,0.1-0.2,0.1-0.2c0-0.1-0.6-2.1-1.6-2.6
					c-0.3-0.1-0.5-0.1-0.8,0c-0.3,0.2-0.5,0.4-0.4,0.7C349.4,347.1,351,348.1,351.9,348.3C351.8,348.3,351.9,348.3,351.9,348.3z
					 M349.9,345.8c0.1,0,0.3,0,0.4,0c0.6,0.2,1,1.4,1.3,2c-0.8-0.3-1.9-1.1-2-1.7C349.6,346.1,349.6,346,349.9,345.8
					C349.8,345.8,349.9,345.8,349.9,345.8z"/>
			</g>
			<path class="st23" d="M312.1,226.2l-8.4-1.7l1,8.1c0,0,8.1,0.3,8.7-2.1L312.1,226.2z"/>
			<polygon class="st23" points="297.6,229.1 299.8,234.6 304.8,232.6 303.7,224.5 			"/>
			<path class="st13" d="M351.1,241.1h39.6c0.3-3.5-0.5-15.1,0.1-29.7c0.4-9.9,1.5-21.1,3.9-32.3c0.2-0.8-0.2-1.4,0-2.2
				c0,0-1.5-0.6-4.3-1c-2.4-0.4-5.4-0.7-8.3-0.9c-5.1-0.2-12.4-0.4-16.8,0c-2.6,0.2-5.1,0.7-7.1,1.1c-2.6,0.5-4.1,1-4.1,1
				S344.3,199.4,351.1,241.1z"/>
			<path class="st15" d="M390.8,211.3c0.4-9.9,1.5-21.1,3.9-32.3c-2.7-0.2-7.2,0-7.9,4.3C386,187.9,387.1,198.7,390.8,211.3z"/>
			<path class="st23" d="M398.1,182.3c1.2,2.9,2.1,5.7,3,8.5c0.9,2.8,1.7,5.7,2.4,8.7c0.7,2.9,1.4,5.9,1.8,8.9
				c0.3,1.5,0.4,3.1,0.6,4.6c0.1,1.6,0.2,3.2,0.2,4.8l0,1.2c0,0.8-0.2,1.9-0.5,2.6c-0.6,1.6-1.4,2.7-2.2,3.6
				c-1.6,1.7-3.2,2.6-4.7,3.4c-3,1.6-5.9,2.6-8.9,3.6c-5.9,1.8-11.6,2.8-17.6,3.5l-1.1-5.4c2.6-0.9,5.4-1.9,8-2.9
				c2.6-1,5.3-2,7.8-3.2c2.5-1.1,4.9-2.4,6.9-3.7c1-0.7,1.8-1.4,2.2-1.9c0.2-0.2,0.2-0.3,0-0.1c0,0.1-0.1,0.1-0.1,0.2
				c0,0,0,0.1,0,0.2l0,0.1c0,0,0,0.1,0,0l-0.1-0.9c-0.2-2.5-0.6-5.2-1.2-7.8c-0.6-2.7-1.2-5.3-2-8c-0.8-2.7-1.6-5.4-2.4-8
				c-0.8-2.7-1.8-5.4-2.7-7.9L398.1,182.3z"/>
			<path class="st13" d="M394.8,176.8c-7.2-2.3-11.3,3.3-9.3,13.3s6.9,18.3,6.9,18.3l14.6-6.9C405.6,191.6,402.2,179.1,394.8,176.8z
				"/>
			<path class="st23" d="M382.1,158l-4.5,3.7l-6.1,5.1c0.2,0.8,0.3,1.7,0.4,2.5c0.3,3.3-2.4,4.9-5.8,5.5c0,0-4.8,4.5,4.8,4.6
				c9.6,0.1,11.9-4.5,11.9-4.5C379.1,171.3,380.8,163.4,382.1,158z"/>
			<path class="st16" d="M381.8,174.9c-1.5,1.1-5.4,3.5-10.4,4.6c1.9,1.9,3.1,6.5,3.1,6.5s10.5-2.4,10.8-10.9c0,0-0.8-0.4-1.7-0.5
				C383,174.4,382.4,174.6,381.8,174.9z"/>
			<path class="st16" d="M366.8,175.1c-0.2,1.2,0,3.3,4.6,4.4c-2.8,1.6-4.1,6-4.1,6s-6.5-5.7-3.1-10.6c0,0,0.8-0.4,1.9-0.6
				C366.6,174.3,366.9,174.7,366.8,175.1z"/>
			<path class="st14" d="M371.4,166.9c0.2,0.8,0.3,1.7,0.4,2.5c3.8-0.6,6.3-2.8,6.6-5.2c0.1-0.9-0.8-1.8-0.8-2.4L371.4,166.9z"/>
			<path class="st13" d="M365.7,155.4c-3.5-2.6-5.4-8.2-3.9-11.5c1.5-3.3,6-3.6,7.9-0.4C372.2,147.8,369.7,158.4,365.7,155.4z"/>
			<path class="st23" d="M382.4,148.5c0.1,7.4,0.5,11.7-2.9,15.8c-5.1,6.2-14.4,3.8-16.7-3.3c-2-6.4-1.8-17.4,5.1-21.1
				C374.8,136.3,382.3,141.1,382.4,148.5z"/>
			<path class="st13" d="M379.8,154.3c-2.7-3.5-2.9-9.4-0.5-12.2c2.4-2.8,6.7-1.8,7.7,1.9C388.3,148.8,382.9,158.3,379.8,154.3z"/>
			<g>
				<path class="st2" d="M363.5,142.8c-2.2-1.3,2.9-5.9,9.6-7.8c7.5-2.2,16.9,3.6,17.3,8.6c0.5,5.3-3.1,2.7-3.7,4.4
					C386.8,147.9,368.1,145.5,363.5,142.8z"/>
				<g>
					<path class="st2" d="M361.3,144.6c-0.1-0.9,0.9-2.6,1.3-2.9c0.4-0.4,22.5,4.1,24.8,6.1c0.4,0.4-1.1,3.5-1.5,3.1
						C383.5,148,361.4,145.4,361.3,144.6z"/>
					<path class="st15" d="M361.3,144.6c-0.1-0.9,0.9-2.6,1.3-2.9c0.4-0.4,22.5,4.1,24.8,6.1c0.4,0.4-1.1,3.5-1.5,3.1
						C383.5,148,361.4,145.4,361.3,144.6z"/>
				</g>
			</g>
			<path class="st13" d="M384.8,152.7c0,0,0.1,0,0.1,0c0.1-0.1,0.2-0.2,0.1-0.3c-1.2-2-9.3-2.6-10.3-2.7c0,0-4-0.3-7.9,0.5
				c-0.3-0.1-1-0.3-2,0.2c-0.4,0-2.8,0-5.1,0.5c-0.1,0-0.2,0.2-0.2,0.3c0,0.1,0.2,0.2,0.3,0.2c2.5-0.6,5-0.5,5.1-0.5
				c0,0,0.1,0,0.1,0c1-0.5,1.6-0.2,1.6-0.2c0.1,0,0.1,0,0.2,0c3.9-0.8,7.8-0.5,7.8-0.5c2.4,0.2,9,1,9.9,2.4
				C384.6,152.6,384.7,152.7,384.8,152.7z"/>
			<path class="st13" d="M371.4,156.5c0.1,0,0.2,0,0.2,0c1.1-0.2,2-0.7,2.5-1.5c1.3-2,0.4-5,0.4-5.1c0-0.1-0.1-0.1-0.2-0.1
				c-0.1,0-0.1,0.1-0.1,0.2c0,0,0.9,3-0.3,4.9c-0.5,0.8-1.3,1.2-2.4,1.4c-1,0.1-1.9-0.1-2.6-0.7c-1.8-1.5-2-5.2-2-5.2
				c0-0.1-0.1-0.1-0.1-0.1c-0.1,0-0.1,0.1-0.1,0.1c0,0.2,0.1,3.8,2,5.4C369.6,156.3,370.4,156.6,371.4,156.5z"/>
			<path class="st13" d="M362.6,157.1c0.9-0.1,1.5-0.4,2-1c1.4-1.8,0.5-5.2,0.5-5.4c0-0.1-0.1-0.1-0.2-0.1c-0.1,0-0.1,0.1-0.1,0.2
				c0,0,0.8,3.4-0.4,5.1c-0.5,0.6-1.1,0.9-2,1c-0.6,0-1-0.2-1.4-0.6c-1.3-1.5-0.8-5.3-0.8-5.3c0-0.1,0-0.1-0.1-0.1
				c-0.1,0-0.1,0-0.1,0.1c0,0.2-0.5,3.9,0.9,5.5c0.4,0.5,0.9,0.7,1.6,0.6C362.4,157.1,362.5,157.1,362.6,157.1z"/>
			<path class="st23" d="M385,154.7c-0.7,1.6-2,2.7-3.3,3.3c-1.9,0.8-2.9-0.9-2.5-2.9c0.4-1.8,1.9-4.3,3.9-4.3
				C385,150.9,385.8,152.9,385,154.7z"/>
			<path class="st13" d="M370.5,151.8c0,0.6-0.2,1.1-0.6,1.2s-0.7-0.4-0.8-1c0-0.6,0.2-1.1,0.6-1.2
				C370.1,150.8,370.5,151.2,370.5,151.8z"/>
			<path class="st13" d="M363.8,152.5c0,0.6-0.2,1.1-0.6,1.2c-0.4,0-0.7-0.4-0.8-1c0-0.6,0.2-1.1,0.6-1.2
				C363.4,151.5,363.7,151.9,363.8,152.5z"/>
			<path class="st24" d="M365.9,152.8c0,0-0.9,3.7-2.1,5.6c1.2,0.8,2.9,0,2.9,0L365.9,152.8z"/>
			<path class="st13" d="M369.8,159.4c2.3-0.5,3.3-2.2,3.3-2.3c0-0.1,0-0.2-0.1-0.2c-0.1,0-0.2,0-0.2,0.1c0,0-1.1,2-3.7,2.3
				c-0.1,0-0.2,0.1-0.2,0.2c0,0.1,0.1,0.2,0.2,0.2C369.4,159.5,369.6,159.5,369.8,159.4z"/>
			<path class="st13" d="M373.5,149c0.1,0,0.1-0.1,0.1-0.1c0.1-0.2,0.1-0.4-0.1-0.5c-1.6-1.1-3.1-0.5-3.1-0.5
				c-0.2,0.1-0.3,0.3-0.2,0.5c0.1,0.2,0.3,0.3,0.5,0.2c0.1,0,1.2-0.5,2.5,0.4C373.3,149,373.4,149,373.5,149z"/>
			<path class="st13" d="M360.8,150.2c0.1,0,0.2,0,0.3-0.1c1-1.3,2.3-1.2,2.3-1.2c0.2,0,0.4-0.1,0.4-0.3c0-0.2-0.1-0.4-0.3-0.4
				c0,0,0,0,0,0c-0.1,0-1.7-0.1-2.9,1.5c-0.1,0.2-0.1,0.4,0.1,0.5C360.6,150.1,360.7,150.1,360.8,150.2z"/>
			<path class="st23" d="M373.1,230l-6.1-3l-0.3,8c0,0,6.1,2.9,7.3-0.4L373.1,230z"/>
			<polygon class="st23" points="359,228.3 359.1,235.4 366.7,235 366.9,227 			"/>
		</g>
	</g>
	<g>
		<g>
			<g>
				<path class="st2" d="M395.4,361.3h-6V246.9c0-5-4-9-9-9H141.1c-5,0-9,4-9,9v114.4h-6V246.9c0-8.3,6.7-15,15-15h239.3
					c8.3,0,15,6.7,15,15V361.3z"/>
				<path class="st25" d="M395.4,361.3h-6V246.9c0-5-4-9-9-9H141.1c-5,0-9,4-9,9v114.4h-6V246.9c0-8.3,6.7-15,15-15h239.3
					c8.3,0,15,6.7,15,15V361.3z"/>
			</g>
			<g>
				<path class="st2" d="M373.9,361.3h-6V246.9c0-5-4-9-9-9H119.6c-5,0-9,4-9,9v114.4h-6V246.9c0-8.3,6.7-15,15-15h239.3
					c8.3,0,15,6.7,15,15V361.3z"/>
				<path class="st11" d="M373.9,361.3h-6V246.9c0-5-4-9-9-9H119.6c-5,0-9,4-9,9v114.4h-6V246.9c0-8.3,6.7-15,15-15h239.3
					c8.3,0,15,6.7,15,15V361.3z"/>
			</g>
		</g>
		<g>
			<g>
				<path class="st2" d="M243.1,229.5h-51.5c-1.5,0-2.8-1.2-3-2.7l-3.4-32.5c-0.2-1.5,0.9-2.7,2.4-2.7h51.5c1.5,0,2.8,1.2,3,2.7
					l3.4,32.5C245.6,228.2,244.6,229.5,243.1,229.5z"/>
				<path class="st16" d="M243.1,229.5h-51.5c-1.5,0-2.8-1.2-3-2.7l-3.4-32.5c-0.2-1.5,0.9-2.7,2.4-2.7h51.5c1.5,0,2.8,1.2,3,2.7
					l3.4,32.5C245.6,228.2,244.6,229.5,243.1,229.5z"/>
			</g>
			<rect x="204.6" y="188.1" class="st16" width="4.2" height="1"/>
			<rect x="191.4" y="188.1" class="st16" width="9.7" height="1"/>
			<path class="st13" d="M241.7,229.5h-51.5c-1.5,0-2.8-1.2-3-2.7l-3.4-32.5c-0.2-1.5,0.9-2.7,2.4-2.7h51.5c1.5,0,2.8,1.2,3,2.7
				l3.4,32.5C244.2,228.2,243.1,229.5,241.7,229.5z"/>
			<path class="st16" d="M244,229.2h-51.5c-1.5,0-2.7,1.2-2.7,2.7h56.9C246.7,230.4,245.5,229.2,244,229.2z"/>
			<g>
				<path class="st16" d="M261.7,229.2h-18.4c-1.5,0-2.7,1.2-2.7,2.7h23.8C264.3,230.4,263.1,229.2,261.7,229.2z"/>
				<path class="st26" d="M261.7,229.2h-18.4c-1.5,0-2.7,1.2-2.7,2.7h23.8C264.3,230.4,263.1,229.2,261.7,229.2z"/>
			</g>
		</g>
	</g>
</g>
</svg>
