<?xml version="1.0" encoding="utf-8"?>
<!-- Generator: Adobe Illustrator 19.0.0, SVG Export Plug-In . SVG Version: 6.00 Build 0)  -->
<svg version="1.1" id="Layer_1" xmlns="http://www.w3.org/2000/svg" xmlns:xlink="http://www.w3.org/1999/xlink" x="0px" y="0px"
	 viewBox="-283 374 45 45" style="enable-background:new -283 374 45 45;" xml:space="preserve">
<style type="text/css">
	.st0{fill:#0BABAB;}
	.st1{fill:#5D5D5D;}
</style>
<circle class="st0" cx="-272.1" cy="398.5" r="3.3"/>
<circle class="st0" cx="-260.6" cy="395.6" r="3.2"/>
<circle class="st0" cx="-248.8" cy="398.4" r="3.3"/>
<g>
	<path class="st1" d="M-244.2,398.5v-1.4c0.4,0,0.7-0.3,0.7-0.7v-4.1c0-0.4-0.3-0.7-0.7-0.7h-3.7l-0.1-0.5c-0.3-1.2-0.8-2.3-1.4-3.3
		l-0.3-0.5l2.6-2.6c0.3-0.3,0.3-0.7,0-1l-2.9-2.9c-0.3-0.3-0.7-0.3-1,0l-2.6,2.6l-0.5-0.3c-1-0.6-2.2-1.1-3.3-1.4l-0.5-0.1v-3.7
		c0-0.4-0.3-0.7-0.7-0.7h-4.1c-0.4,0-0.7,0.3-0.7,0.7v3.7l-0.5,0.1c-1.2,0.3-2.3,0.8-3.3,1.4l-0.5,0.3l-2.6-2.6
		c-0.3-0.3-0.7-0.3-1,0l-2.9,2.9c-0.1,0.1-0.2,0.3-0.2,0.5c0,0.2,0.1,0.4,0.2,0.5l2.6,2.6l-0.3,0.5c-0.6,1-1.1,2.2-1.4,3.3l-0.1,0.5
		h-3.7c-0.4,0-0.7,0.3-0.7,0.7v4.1c0,0.4,0.3,0.7,0.7,0.7v1.4c-1.1,0-2-0.9-2-2v-4.1c0-1.1,0.9-2,2-2h2.6c0.3-0.9,0.7-1.8,1.1-2.7
		l-1.9-1.9c-0.4-0.4-0.6-0.9-0.6-1.4c0-0.5,0.2-1.1,0.6-1.4l2.9-2.9c0.8-0.8,2.1-0.8,2.9,0l1.9,1.9c0.9-0.5,1.8-0.8,2.7-1.1v-2.6
		c0-1.1,0.9-2,2-2h4.1c1.1,0,2,0.9,2,2v2.6c0.9,0.3,1.8,0.7,2.7,1.1l1.9-1.9c0.8-0.8,2.1-0.8,2.9,0l2.9,2.9c0.4,0.4,0.6,0.9,0.6,1.4
		c0,0.5-0.2,1.1-0.6,1.4l-1.9,1.9c0.5,0.9,0.8,1.8,1.1,2.7h2.6c1.1,0,2,0.9,2,2v4.1C-242.2,397.6-243.1,398.5-244.2,398.5
		L-244.2,398.5z M-244.2,398.5"/>
	<path class="st1" d="M-251,394.5h-1.4c0-4.5-3.6-8.2-8.2-8.2s-8.2,3.6-8.2,8.2h-1.4c0-5.3,4.3-9.5,9.5-9.5
		C-255.2,385-251,389.2-251,394.5L-251,394.5z M-251,394.5"/>
	<path class="st1" d="M-260.5,399.9c-2.3,0-4.1-1.8-4.1-4.1c0-2.3,1.8-4.1,4.1-4.1c2.3,0,4.1,1.8,4.1,4.1
		C-256.4,398.1-258.2,399.9-260.5,399.9L-260.5,399.9z M-260.5,393.1c-1.5,0-2.7,1.2-2.7,2.7c0,1.5,1.2,2.7,2.7,2.7s2.7-1.2,2.7-2.7
		C-257.8,394.3-259,393.1-260.5,393.1L-260.5,393.1z M-260.5,393.1"/>
	<path class="st1" d="M-249,402.6c-2.3,0-4.1-1.8-4.1-4.1c0-2.3,1.8-4.1,4.1-4.1s4.1,1.8,4.1,4.1
		C-244.9,400.8-246.7,402.6-249,402.6L-249,402.6z M-249,395.8c-1.5,0-2.7,1.2-2.7,2.7c0,1.5,1.2,2.7,2.7,2.7c1.5,0,2.7-1.2,2.7-2.7
		C-246.2,397-247.5,395.8-249,395.8L-249,395.8z M-249,395.8"/>
	<path class="st1" d="M-272,402.6c-2.3,0-4.1-1.8-4.1-4.1c0-2.3,1.8-4.1,4.1-4.1c2.3,0,4.1,1.8,4.1,4.1
		C-268,400.8-269.8,402.6-272,402.6L-272,402.6z M-272,395.8c-1.5,0-2.7,1.2-2.7,2.7c0,1.5,1.2,2.7,2.7,2.7c1.5,0,2.7-1.2,2.7-2.7
		C-269.3,397-270.5,395.8-272,395.8L-272,395.8z M-272,395.8"/>
	<path class="st1" d="M-242.8,404.4c-1-0.7-2.2-1.1-3.4-1.1h-5.4c-0.3,0-0.7,0-1,0.1c-0.4-0.7-1-1.3-1.7-1.7
		c-0.1-0.1-0.2-0.1-0.3-0.2c-1-0.6-2-0.9-3.2-0.9h-5.4c-2.1,0-4,1.1-5.1,2.8c-0.3-0.1-0.7-0.1-1-0.1h-5.4c-1.2,0-2.4,0.4-3.4,1.1
		c-1.7,1.1-2.7,3-2.7,5.1v2.7c0,1.9,1.1,3.5,2.8,4.3c0.6,0.3,1.3,0.4,2,0.4h6.8v-1.4h-6.1V408h-1.4v7.4c-0.3-0.1-0.5-0.1-0.7-0.2
		c-1.2-0.6-2-1.8-2-3.1v-2.7c0-1.6,0.8-3,2.1-3.9c0.8-0.5,1.7-0.8,2.7-0.8h5.4c0.1,0,0.2,0,0.4,0c-0.2,0.6-0.3,1.3-0.4,2v6.8
		c0,1.9,1.5,3.4,3.4,3.4h2V406h-1.4v9.5h-0.7c-1.1,0-2-0.9-2-2v-6.8c0-2.6,2.1-4.8,4.8-4.8h5.4c0.9,0,1.7,0.2,2.5,0.7
		c0.1,0,0.1,0.1,0.2,0.1c0.6,0.4,1.2,1,1.5,1.7c0.4,0.7,0.6,1.5,0.6,2.2v6.8c0,1.1-0.9,2-2,2h-0.7V406h-1.4v10.9h2
		c1.9,0,3.4-1.5,3.4-3.4v-6.8c0-0.7-0.1-1.4-0.4-2c0.1,0,0.2,0,0.4,0h5.4c1,0,1.9,0.3,2.7,0.8c1.3,0.9,2.1,2.4,2.1,3.9v2.7
		c0,1.3-0.8,2.5-2,3.1c-0.2,0.1-0.5,0.2-0.7,0.2V408h-1.4v7.5h-6.1v1.4h6.8c0.7,0,1.4-0.1,2-0.4c1.7-0.8,2.8-2.5,2.8-4.3v-2.7
		C-240.1,407.4-241.1,405.5-242.8,404.4L-242.8,404.4z M-242.8,404.4"/>
	<rect x="-263.2" y="415.5" class="st1" width="5.4" height="1.4"/>
</g>
</svg>
