<?xml version="1.0" encoding="utf-8"?>
<!-- Generator: Adobe Illustrator 19.0.0, SVG Export Plug-In . SVG Version: 6.00 Build 0)  -->
<svg version="1.1" id="Layer_1" xmlns="http://www.w3.org/2000/svg" xmlns:xlink="http://www.w3.org/1999/xlink" x="0px" y="0px"
	 viewBox="-283 374 45 45" style="enable-background:new -283 374 45 45;" xml:space="preserve">
<style type="text/css">
	.st0{fill:#0BABAB;}
	.st1{fill:#5D5D5D;}
	.st2{fill:none;}
</style>
<path class="st0" d="M-275.4,389.2h14.5c0.3,0,0.6-0.3,0.6-0.6c0-0.3-0.3-0.6-0.6-0.6h-14.5c-0.3,0-0.6,0.3-0.6,0.6
	C-276.1,389-275.8,389.2-275.4,389.2L-275.4,389.2z M-275.4,389.2"/>
<path class="st0" d="M-275.4,392.4h14.5c0.3,0,0.6-0.3,0.6-0.6c0-0.3-0.3-0.6-0.6-0.6h-14.5c-0.3,0-0.6,0.3-0.6,0.6
	C-276.1,392.1-275.8,392.4-275.4,392.4L-275.4,392.4z M-275.4,392.4"/>
<path class="st0" d="M-275.4,395.5h14.5c0.3,0,0.6-0.3,0.6-0.6c0-0.3-0.3-0.6-0.6-0.6h-14.5c-0.3,0-0.6,0.3-0.6,0.6
	C-276.1,395.2-275.8,395.5-275.4,395.5L-275.4,395.5z M-275.4,395.5"/>
<path class="st0" d="M-275.4,398.6h14.5c0.3,0,0.6-0.3,0.6-0.6c0-0.3-0.3-0.6-0.6-0.6h-14.5c-0.3,0-0.6,0.3-0.6,0.6
	C-276.1,398.3-275.8,398.6-275.4,398.6L-275.4,398.6z M-275.4,398.6"/>
<path class="st0" d="M-275.4,401.7h5.7c0.3,0,0.6-0.3,0.6-0.6c0-0.3-0.3-0.6-0.6-0.6h-5.7c-0.3,0-0.6,0.3-0.6,0.6
	C-276.1,401.5-275.8,401.7-275.4,401.7L-275.4,401.7z M-275.4,401.7"/>
<path class="st1" d="M-241.9,379.8l0.5-1c0.5-0.9,0.1-1.9-0.7-2.4l-1.7-0.9c-0.4-0.2-0.9-0.3-1.3-0.1c-0.5,0.1-0.8,0.4-1,0.9l-1.1,2
	c-0.3,0.1-0.7,0.3-0.9,0.6c-0.7,0.7-1.3,1.5-2,2.5c-6.9-0.4-13.9-0.5-20.7-0.2c-1.9,0.1-3.8,0.2-5.7,0.3c-2.1,0.1-3.8,1.8-4,3.9
	c-0.8,6.9-0.8,13.9,0,20.8c0.2,2.1,1.9,3.7,4,3.9c0.2,0,0.3,0,0.4,0c0.4,0,0.8,0.2,1,0.5c0.1,0.2,0.3,0.2,0.5,0.2
	c0.1,0,0.3,0,0.4-0.1c0.3-0.2,0.3-0.6,0.1-0.9c-0.5-0.6-1.2-1-1.9-1c-0.1,0-0.3,0-0.4,0c-1.5-0.1-2.7-1.3-2.9-2.8
	c-0.7-6.8-0.7-13.7,0-20.5c0.2-1.5,1.4-2.6,2.9-2.7c1.9-0.1,3.8-0.2,5.7-0.3c6.6-0.3,13.2-0.2,19.8,0.1c-0.4,0.6-0.8,1.2-1.2,1.9
	c-0.2,0.3-0.1,0.7,0.2,0.9c0.3,0.2,0.7,0.1,0.9-0.2c1.3-2.1,2.7-4,4-5.4c0.3-0.4,0.9-0.5,1.3-0.2l1.7,0.9c0.4,0.2,0.7,0.7,0.5,1.2
	c-0.7,2.9-2.2,6.5-4.2,10.1c-0.8,1.5-1.6,2.9-2.5,4.2l-5.2-2.8c0.6-1.4,1.3-2.9,2.1-4.4c0.2-0.5,0.5-0.9,0.7-1.3
	c0.2-0.3,0.1-0.7-0.2-0.8c-0.3-0.2-0.7-0.1-0.8,0.2c-0.2,0.4-0.5,0.9-0.7,1.3c-2,3.7-3.5,7.3-4.3,10.2c-0.7,2.8-0.7,4.6,0,5.5
	l-0.2,0.3c-0.2,0.3-0.1,0.7,0.2,0.9c0.1,0.1,0.2,0.1,0.3,0.1c0.2,0,0.4-0.1,0.5-0.3l0.2-0.3c0.1,0,0.1,0,0.2,0c1.1,0,2.6-1,4.5-3
	c2-2.3,4.3-5.5,6.2-9.2c0.6-1.1,1.2-2.2,1.7-3.3c0,0.6,0.1,1.2,0.1,1.8c-0.1,0.1-0.1,0.1-0.2,0.2c-2.1,3.1-3.4,5.1-3.3,6.3
	c0,0.3,0.3,0.6,0.6,0.6c0,0,0,0,0.1,0c0.3,0,0.6-0.3,0.6-0.7c-0.1-0.6,1.1-2.5,2.3-4.3c0.1,4.3,0,8.7-0.5,13c0,0.3-0.1,0.6-0.2,0.9
	c-0.5,1.1-1.5,1.8-2.6,1.9c-5,0.4-10.1,0.5-15.2,0.5c-0.9,0-1.7,0.4-2.2,1.2c-1.6,2.3-4.3,4.6-6.2,6.1c-0.3,0.2-0.7,0.3-1.1,0.1
	c-0.4-0.2-0.6-0.5-0.6-1v-2.8c0-0.3-0.3-0.6-0.6-0.6c-0.3,0-0.6,0.3-0.6,0.6v2.8c0,0.9,0.5,1.7,1.3,2.1c0.3,0.2,0.7,0.2,1,0.2
	c0.5,0,1-0.2,1.4-0.5c2-1.5,4.8-3.9,6.5-6.3c0.3-0.4,0.7-0.6,1.2-0.6h0c5.1,0,10.2-0.1,15.3-0.5c1.6-0.1,3-1.1,3.7-2.6
	c0.2-0.4,0.3-0.8,0.3-1.2c0.5-5,0.7-10,0.5-14.9c1.8-2.6,3.5-5.3,3.8-7.1C-239.6,382.1-240.3,380.6-241.9,379.8L-241.9,379.8z
	 M-253.8,400.6c-2.2,2.4-3.4,2.8-3.7,2.6c-0.4-0.2-0.7-1.4,0.1-4.5c0.4-1.4,0.9-2.9,1.5-4.4l5,2.7
	C-251.9,398.3-252.9,399.5-253.8,400.6L-253.8,400.6z M-245.3,378.3c-0.1-0.1-0.3-0.1-0.5-0.2l0.7-1.3c0.1-0.1,0.2-0.2,0.3-0.2
	c0.1,0,0.3,0,0.4,0l1.7,0.9c0.3,0.1,0.3,0.4,0.2,0.7l-0.7,1.3c-0.1-0.1-0.3-0.2-0.4-0.3L-245.3,378.3z M-241.1,383.7
	c-0.2,1.3-1.4,3.2-2.7,5.2c-0.1-0.8-0.1-1.6-0.2-2.5c0.7-1.7,1.2-3.2,1.6-4.6c0.1-0.3,0.1-0.6,0-0.9
	C-241.3,381.5-240.9,382.5-241.1,383.7L-241.1,383.7z M-241.1,383.7"/>
<rect x="-281.2" y="375.3" class="st2" width="41.4" height="42.5"/>
</svg>
