<?xml version="1.0" encoding="utf-8"?>
<!-- Generator: Adobe Illustrator 19.0.0, SVG Export Plug-In . SVG Version: 6.00 Build 0)  -->
<svg version="1.1" id="Layer_1" xmlns="http://www.w3.org/2000/svg" xmlns:xlink="http://www.w3.org/1999/xlink" x="0px" y="0px"
	 viewBox="-283 374 45 45" style="enable-background:new -283 374 45 45;" xml:space="preserve">
<style type="text/css">
	.st0{fill:#0BABAB;}
	.st1{fill:#5D5D5D;}
	.st2{fill:none;}
</style>
<path class="st0" d="M-252.5,408.5h-16.3c-0.9,0-1.6-0.7-1.6-1.6l0,0c0-0.9,0.7-1.6,1.6-1.6h16.3c0.9,0,1.6,0.7,1.6,1.6l0,0
	C-250.9,407.8-251.6,408.5-252.5,408.5z"/>
<path class="st0" d="M-254.4,412.9h-12.5c-1.3,0-2.3-1-2.3-2.3l0,0c0-1.3,1-2.3,2.3-2.3h12.5c1.3,0,2.3,1,2.3,2.3l0,0
	C-252.1,411.9-253.1,412.9-254.4,412.9z"/>
<path class="st1" d="M-247.6,383c-0.2-0.3-0.5-0.4-0.9-0.3c-0.3,0.2-0.4,0.5-0.3,0.9c1,1.9,1.5,3.9,1.5,6c0,2.9-0.9,5.7-2.7,8
	c-0.7,1-1.1,2.2-1.1,3.4v0.1c0,1.7-1.4,3.1-3.1,3.1h-5.7v-8.1c2.3-0.3,4.1-2.3,4.1-4.7c0-0.4-0.3-0.6-0.6-0.6
	c-0.4,0-0.6,0.3-0.6,0.6c0,1.9-1.5,3.4-3.4,3.4c-1.9,0-3.4-1.5-3.4-3.4c0-0.4-0.3-0.6-0.6-0.6c-0.4,0-0.6,0.3-0.6,0.6
	c0,2.4,1.8,4.4,4.1,4.7v8.1h-5.7c-1.7,0-3.1-1.4-3.1-3.1V401c0-1.2-0.4-2.4-1.2-3.5c-1.7-2.3-2.6-5-2.6-7.8c0-3.5,1.3-6.9,3.8-9.4
	c2.5-2.5,5.8-3.9,9.4-3.9h0c4.2,0,8,1.9,10.6,5.2c0.2,0.3,0.6,0.3,0.9,0.1c0.3-0.2,0.3-0.6,0.1-0.9c-1.3-1.7-3.1-3.2-5-4.2
	c-2-1-4.3-1.6-6.6-1.6c-3.9,0-7.5,1.5-10.3,4.3c-2.8,2.8-4.2,6.5-4.2,10.3c0,3.1,1,6.1,2.9,8.5c0.6,0.8,0.9,1.7,0.9,2.7v0.1
	c0,1.4,0.6,2.6,1.6,3.4c-0.9,0.4-1.6,1.4-1.6,2.5c0,1.2,0.8,2.3,2,2.6c-0.3,0.4-0.5,1-0.5,1.5c0,1.5,1.2,2.7,2.7,2.7h1.8
	c0.3,2.3,2.3,4.1,4.7,4.1c2.4,0,4.4-1.8,4.7-4.1h1.8c1.5,0,2.7-1.2,2.7-2.7c0-0.6-0.2-1.1-0.5-1.5c1.1-0.3,2-1.4,2-2.6
	c0-1.1-0.6-2-1.6-2.4c1-0.8,1.6-2,1.6-3.4V401c0-1,0.3-1.9,0.9-2.6c1.9-2.5,2.9-5.6,2.9-8.7C-246,387.3-246.5,385.1-247.6,383
	L-247.6,383z M-260.6,416.6c-1.7,0-3.1-1.2-3.4-2.8h6.8C-257.4,415.4-258.9,416.6-260.6,416.6L-260.6,416.6z M-252.5,405.5
	c0.8,0,1.4,0.6,1.4,1.4c0,0.8-0.6,1.4-1.4,1.4h-11.1c-0.4,0-0.6,0.3-0.6,0.6c0,0.4,0.3,0.6,0.6,0.6h9.6c0.8,0,1.4,0.6,1.4,1.4
	c0,0.8-0.6,1.4-1.4,1.4h-13c-0.8,0-1.4-0.6-1.4-1.4c0-0.8,0.6-1.4,1.4-1.4h0.9c0.4,0,0.6-0.3,0.6-0.6c0-0.4-0.3-0.6-0.6-0.6h-2.4
	c-0.8,0-1.4-0.6-1.4-1.4c0-0.8,0.6-1.4,1.4-1.4H-252.5z M-252.5,405.5"/>
<rect x="-275.1" y="375.1" class="st2" width="29.1" height="42.8"/>
</svg>
