<?xml version="1.0" encoding="utf-8"?>
<!-- Generator: Adobe Illustrator 19.0.0, SVG Export Plug-In . SVG Version: 6.00 Build 0)  -->
<svg version="1.1" id="Layer_1" xmlns="http://www.w3.org/2000/svg" xmlns:xlink="http://www.w3.org/1999/xlink" x="0px" y="0px"
	 viewBox="-280 372 50 50" style="enable-background:new -280 372 50 50;" xml:space="preserve">
<style type="text/css">
	.st0{fill:#FFFFFF;}
</style>
<title>7</title>
<desc>Created with Sketch.</desc>
<g id="Marshmello_landing-page">
	<g id="Marshmello_landngpage-Copy" transform="translate(-548.000000, -768.000000)">
		<g id="_x37_" transform="translate(548.000000, 768.000000)">
			<g id="_x30_32-file" transform="translate(25.000000, 25.000000) scale(-1, 1) translate(-25.000000, -25.000000) ">
				<path id="Shape" class="st0" d="M304.2,372.6c-0.4-0.4-0.9-0.6-1.4-0.6H282c-1.1,0-2,0.9-2,2V420c0,1.1,0.9,2,2,2h31.3
					c1.1,0,2-0.9,2-2v-35.7c0-0.5-0.2-1-0.6-1.4L304.2,372.6z M311.3,418.1h-27.3v-42.2H302l9.2,9.2V418.1z M304.9,411.1
					c0,1.1-0.9,2-2,2h-10.7c-1.1,0-2-0.9-2-2s0.9-2,2-2h10.7C304,409.2,304.9,410,304.9,411.1z M289.8,400.2h15.6c1.1,0,2,0.9,2,2
					s-0.9,2-2,2h-15.6c-1.1,0-2-0.9-2-2S288.7,400.2,289.8,400.2z M292.2,391.3h10.7c1.1,0,2,0.9,2,2s-0.9,2-2,2h-10.7
					c-1.1,0-2-0.9-2-2S291.1,391.3,292.2,391.3z M328,372h-7.4c-1.1,0-2,0.9-2,2v38.7c0,0.3,0.1,0.6,0.2,0.9l3.7,7.4
					c0.7,1.4,2.8,1.4,3.5,0l3.7-7.4c0.1-0.3,0.2-0.6,0.2-0.9V374C330,372.9,329.1,372,328,372L328,372z M326.1,412.2l-1.8,3.5
					l-1.8-3.5v-36.3h3.5V412.2z"/>
			</g>
		</g>
	</g>
</g>
</svg>
