<?xml version="1.0" encoding="UTF-8"?>
<svg width="119.66407px" height="40px" viewBox="0 0 140 42" version="1.1" xmlns="http://www.w3.org/2000/svg" xmlns:xlink="http://www.w3.org/1999/xlink">
    <!-- Generator: Sketch 51.1 (57501) - http://www.bohemiancoding.com/sketch -->
    <title>FRDownload_on_the_App_Store_Badge_FR_RGB_blk_100517</title>
    <desc>Created with Sketch.</desc>
    <defs></defs>
    <g id="Page-1" stroke="none" stroke-width="1" fill="none" fill-rule="evenodd">
        <g id="FRDownload_on_the_App_Store_Badge_FR_RGB_blk_100517" fill-rule="nonzero">
            <g id="Group">
                <path d="M128.952357,-5.42101086e-20 L10.5106709,-5.42101086e-20 C10.1064346,-5.42101086e-20 9.70704882,-5.42101086e-20 9.30388189,0.00220472441 C8.9663937,0.00440944882 8.63159528,0.0108141732 8.29086614,0.0162047244 C7.550645,0.0249153741 6.81216461,0.090036822 6.08184252,0.21100315 C5.35254623,0.334602897 4.64609569,0.567623651 3.98638425,0.902184252 C3.32747967,1.23957511 2.7254197,1.67797995 2.20204567,2.20149449 C1.67592401,2.72353684 1.23736099,3.32694719 0.903220472,3.98852283 C0.568157747,4.64878171 0.335824171,5.35630993 0.214244094,6.08667087 C0.0915081241,6.81610935 0.0254627818,7.55395965 0.0167007874,8.2936 C0.00647086614,8.63158425 0.00539055118,8.97069291 0,9.30872126 L0,34.7890079 C0.00539055118,35.1312913 0.00647086614,35.4628819 0.0167007874,35.8052756 C0.0254654687,36.5448793 0.0915108121,37.2826927 0.214244094,38.0120945 C0.335488452,38.7428824 0.567835765,39.4508168 0.903220472,40.1113228 C1.23720927,40.7707591 1.67583397,41.3717265 2.20204567,41.8908661 C2.72343524,42.4167084 3.32588435,42.8554115 3.98638425,43.1902205 C4.64609068,43.5256765 5.35246506,43.7600842 6.08184252,43.8855906 C6.81228877,44.0055879 7.55069321,44.0707358 8.29086614,44.0804882 C8.63159528,44.0879843 8.9663937,44.0922835 9.30388189,44.0922835 C9.7070378,44.0944882 10.1064567,44.0944882 10.5106709,44.0944882 L128.952357,44.0944882 C129.348546,44.0944882 129.751129,44.0944882 130.147318,44.0922835 C130.483208,44.0922835 130.827696,44.0879843 131.163586,44.0804882 C131.902359,44.0712545 132.639374,44.0061024 133.36831,43.8855906 C134.100041,43.7592007 134.808947,43.5248551 135.471838,43.1902205 C136.131742,42.8552177 136.733635,42.4165265 137.254578,41.8908661 C137.779432,41.3696933 138.218993,40.7691655 138.557129,40.1113228 C138.889997,39.4503363 139.120133,38.7424585 139.239602,38.0120945 C139.362531,37.2825927 139.43092,36.5449433 139.4442,35.8052756 C139.448499,35.4628819 139.448499,35.1312913 139.448499,34.7890079 C139.457098,34.3885197 139.457098,33.9902362 139.457098,33.5832441 L139.457098,10.5122693 C139.457098,10.1085732 139.457098,9.70810709 139.448499,9.30872126 C139.448499,8.97069291 139.448499,8.63158425 139.4442,8.29355591 C139.430923,7.55385151 139.362534,6.8161653 139.239602,6.08662677 C139.1198,5.35668837 138.889678,4.64921621 138.557129,3.98847874 C137.876668,2.66242087 136.797652,1.58302012 135.471838,0.902085039 C134.808946,0.568341841 134.099963,0.335382969 133.36831,0.210903937 C132.6395,0.0894046428 131.902409,0.0242605282 131.163586,0.0160503937 C130.827696,0.0106708661 130.483208,0.00421102362 130.147318,0.00206141732 C129.751129,-0.000143307087 129.348546,-0.000143307087 128.952357,-0.000143307087 L128.952357,-5.42101086e-20 Z" id="Shape" fill="#A6A6A6"></path>
                <path d="M9.30925039,43.1299213 C8.9733937,43.1299213 8.64562835,43.125622 8.3124063,43.118126 C7.62208699,43.1091315 6.93338114,43.0490355 6.25193701,42.9383307 C5.61652474,42.8288972 5.00098106,42.6253309 4.42560945,42.3343465 C3.85551369,42.045773 3.33554053,41.6673874 2.88560945,41.213685 C2.42916572,40.7653271 2.04915545,40.2453083 1.7606378,39.6742362 C1.46894092,39.0994526 1.26706932,38.4833539 1.16205512,37.8474016 C1.0486489,37.1640636 0.987291435,36.4731012 0.978511811,35.7804724 C0.971522835,35.5479843 0.962373228,34.7739055 0.962373228,34.7739055 L0.962373228,9.30872126 C0.962373228,9.30872126 0.97211811,8.54653701 0.978566929,8.32261417 C0.986973922,7.63108307 1.04797088,6.9411932 1.16102992,6.25891496 C1.26624598,5.62122107 1.46827737,5.00334637 1.76013071,4.42667874 C2.0475873,3.85600349 2.42548377,3.33559687 2.87917165,2.8856315 C3.33236147,2.43139539 3.85400127,2.05106163 4.42506929,1.75849921 C4.99911853,1.46844964 5.61349892,1.26631934 6.24762677,1.15888031 C6.93130882,1.04706305 7.62240563,0.986609444 8.31511811,0.978026772 L9.30980157,0.964566929 L130.141928,0.964566929 L131.148494,0.978566929 C131.834906,0.986723525 132.519725,1.0466378 133.197124,1.1578 C133.837672,1.26658669 134.458455,1.47012736 135.039061,1.76172913 C136.183113,2.35132381 137.114006,3.28411708 137.701266,4.4293685 C137.988462,5.00205401 138.187373,5.61488934 138.29125,6.24707559 C138.405664,6.93495113 138.469697,7.63026273 138.482841,8.32746457 C138.486038,8.63965354 138.486038,8.97499213 138.486038,9.30872126 C138.494746,9.72210709 138.494746,10.1155732 138.494746,10.5122693 L138.494746,33.5832441 C138.494746,33.9837323 138.494746,34.3745197 138.486038,34.7685039 C138.486038,35.1269921 138.486038,35.4553858 138.481739,35.7933701 C138.46888,36.4781307 138.405913,37.1610315 138.293345,37.8365984 C138.190483,38.4771383 137.989711,39.098046 137.698069,39.6775433 C137.407512,40.242417 137.029684,40.7579312 136.57851,41.2050866 C136.128174,41.6612272 135.607284,42.0418266 135.035865,42.332252 C134.456867,42.6254733 133.836997,42.8297924 133.197124,42.9383307 C132.515732,43.0496263 131.82696,43.1097262 131.136589,43.118126 C130.813707,43.125622 130.475613,43.1299213 130.147329,43.1299213 L128.952369,43.132126 L9.30925039,43.1299213 Z" id="Shape" fill="#000000"></path>
            </g>
            <g id="Group" transform="translate(9.921260, 8.818898)" fill="#FFFFFF">
                <g id="_Group_">
                    <g id="_Group_2">
                        <g id="_Group_3">
                            <path d="M17.3862362,13.5598047 C17.4103305,11.6896793 18.390756,9.9622524 19.9840189,8.98273071 C18.9743352,7.54072274 17.3438086,6.65923598 15.584315,6.60418583 C13.7331843,6.40988346 11.9385937,7.71187244 10.9952913,7.71187244 C10.0337339,7.71187244 8.58137165,6.62347717 7.01741732,6.65565512 C4.95966123,6.72213684 3.08777956,7.86372887 2.08663937,9.66275591 C-0.0453291339,13.3539276 1.54492756,18.7787071 3.5871748,21.7623717 C4.60895433,23.2233874 5.80312126,24.8553795 7.36566457,24.7975055 C8.89470709,24.7340866 9.4657748,23.8224882 11.3114598,23.8224882 C13.1400142,23.8224882 13.6757953,24.7975055 15.2700425,24.7607087 C16.9107764,24.7340756 17.9445165,23.2932 18.9304472,21.8183496 C19.6645787,20.7773197 20.2294886,19.6267582 20.604252,18.4092835 C18.6555757,17.5850682 17.3885032,15.6756178 17.3862362,13.5598047 Z" id="_Path_"></path>
                            <path d="M14.3749906,4.64192598 C15.2695868,3.5679958 15.7103204,2.1876405 15.6035953,0.793998425 C14.2368511,0.937548569 12.9743624,1.59076342 12.0676803,2.62348976 C11.1723734,3.6424131 10.718813,4.9754376 10.8068976,6.32895906 C12.1919682,6.34322006 13.5070634,5.72142874 14.3749906,4.64192598 Z" id="_Path_2"></path>
                        </g>
                    </g>
                </g>
                <g id="_Group_4" transform="translate(26.456693, 0.000000)">
                    <g id="Group">
                        <polygon id="Shape" points="2.92708031 7.38765669 2.92708031 1.73967087 0.857946457 1.73967087 0.857946457 0.81008189 6.01342992 0.81008189 6.01342992 1.73965984 3.94866142 1.73965984 3.94866142 7.38765669"></polygon>
                        <path d="M10.7641921,6.04738268 C10.4894912,6.98370652 9.58339564,7.58867579 8.61329606,7.48346299 C7.95139582,7.50093616 7.31527283,7.22657934 6.87370671,6.73318639 C6.43214059,6.23979344 6.229772,5.57724452 6.32029449,4.92133071 C6.2321798,4.2635958 6.43379175,3.59998837 6.87289856,3.10242971 C7.31200538,2.60487106 7.94539907,2.32232083 8.60898583,2.32797953 C9.9901685,2.32797953 10.8234,3.27160157 10.8234,4.83034173 L10.8234,5.17214016 L7.31822992,5.17214016 L7.31822992,5.2270378 C7.28721167,5.59538126 7.41301183,5.95972035 7.66469221,6.23045274 C7.91637259,6.50118513 8.27058034,6.65319015 8.64020472,6.64908504 C9.11948078,6.70662249 9.58602324,6.46888524 9.82115433,6.04730551 L10.7641921,6.04738268 Z M7.31820787,4.44766772 L9.82546457,4.44766772 C9.85043627,4.11078631 9.73198255,3.77902449 9.49929425,3.53413916 C9.26660595,3.28925383 8.94132322,3.15401946 8.6036063,3.1617622 C8.26130832,3.1574528 7.93177715,3.29156478 7.68976656,3.53367499 C7.44775598,3.7757852 7.31377964,4.10537154 7.31822992,4.44766772 L7.31820787,4.44766772 Z M8.02012598,1.59379528 L9.16447717,0.0258393701 L10.3131386,0.0258393701 L9.03206142,1.59379528 L8.02012598,1.59379528 Z" id="Shape"></path>
                        <polygon id="Shape" points="12.1841228 0.486053543 13.1637591 0.486053543 13.1637591 7.38765669 12.1841228 7.38765669"></polygon>
                        <path d="M18.9694488,6.04738268 C18.6947479,6.98370652 17.7886523,7.58867579 16.8185528,7.48346299 C16.1566525,7.50093616 15.5205295,7.22657934 15.0789634,6.73318639 C14.6373973,6.23979344 14.4350287,5.57724452 14.5255512,4.92133071 C14.4374365,4.2635958 14.6390484,3.59998837 15.0781553,3.10242971 C15.5172621,2.60487106 16.1506558,2.32232083 16.8142425,2.32797953 C18.1954252,2.32797953 19.0286567,3.27160157 19.0286567,4.83034173 L19.0286567,5.17214016 L15.5234646,5.17214016 L15.5234646,5.2270378 C15.4924463,5.59538126 15.6182465,5.95972035 15.8699269,6.23045274 C16.1216072,6.50118513 16.475815,6.65319015 16.8454394,6.64908504 C17.3247154,6.70662249 17.7912579,6.46888524 18.026389,6.04730551 L18.9694488,6.04738268 Z M15.5234646,4.44766772 L18.0306882,4.44766772 C18.0556599,4.11078631 17.9372062,3.77902449 17.7045179,3.53413916 C17.4718296,3.28925383 17.1465468,3.15401946 16.8088299,3.1617622 C16.4665338,3.1574558 16.1370055,3.2915691 15.8949974,3.53367898 C15.6529892,3.77578886 15.5190143,4.10537347 15.5234646,4.44766772 Z M16.2253606,1.59379528 L17.3697118,0.0258393701 L18.5183732,0.0258393701 L17.2373402,1.59379528 L16.2253606,1.59379528 Z" id="Shape"></path>
                        <path d="M23.594222,4.04612126 C23.4651604,3.51423344 22.9671808,3.15618245 22.4218819,3.2032 C21.6015701,3.2032 21.0999071,3.83188819 21.0999071,4.88958268 C21.0999071,5.96556535 21.6058913,6.60825354 22.4218819,6.60825354 C22.9625458,6.67089559 23.4652068,6.32102085 23.594222,5.79225197 L24.5469496,5.79225197 C24.4159225,6.83752788 23.4755478,7.58782248 22.4272724,7.48347402 C21.7554368,7.50468657 21.1084857,7.22831241 20.6593466,6.72822519 C20.2102075,6.22813797 20.0046696,5.55532112 20.0976724,4.88961575 C20.0093511,4.22883038 20.2168569,3.5627173 20.6648271,3.06899608 C21.1127973,2.57527485 21.7556578,2.30417406 22.4218929,2.32802362 C23.4786643,2.23068524 24.4208237,2.99243107 24.5469496,4.04615433 L23.594222,4.04612126 Z" id="Shape"></path>
                        <path d="M25.8473953,0.486053543 L26.818422,0.486053543 L26.818422,3.22151024 L26.8959291,3.22151024 C27.1627314,2.63584566 27.768008,2.28024453 28.4094724,2.33230079 C28.8959411,2.30583007 29.3688785,2.49764819 29.6994669,2.85550819 C30.0300554,3.21336818 30.1838621,3.69999676 30.1189937,4.18284724 L30.1189937,7.38766772 L29.1382772,7.38766772 L29.1382772,4.42451811 C29.1382772,3.63165512 28.7689858,3.23010866 28.0768236,3.23010866 C27.7360052,3.2021568 27.4002258,3.32605933 27.159253,3.56869205 C26.9182802,3.81132478 26.7966856,4.1479468 26.8269764,4.48856535 L26.8269764,7.38764567 L25.8473402,7.38766772 L25.8473953,0.486053543 Z" id="Shape"></path>
                        <path d="M31.3505858,5.98386457 C31.3505858,5.09034488 32.0158835,4.57523307 33.196822,4.5020252 L34.5414063,4.42451811 L34.5414063,3.99606299 C34.5414063,3.47179055 34.1947685,3.17575118 33.5251606,3.17575118 C32.9782898,3.17575118 32.5993528,3.37652441 32.4906157,3.72747244 L31.5421984,3.72747244 C31.642315,2.87486142 32.4443276,2.32799055 33.5703685,2.32799055 C34.8148362,2.32799055 35.5161921,2.94751811 35.5161921,3.99606299 L35.5161921,7.38765669 L34.5736724,7.38765669 L34.5736724,6.69007087 L34.4962205,6.69007087 C34.1759276,7.19950147 33.6063426,7.49723506 33.0052315,7.46944094 C32.5838347,7.51327953 32.1635586,7.37680884 31.8483051,7.09376753 C31.5330517,6.81072622 31.3522454,6.40753232 31.3505858,5.98386457 Z M34.5414063,5.55970866 L34.5414173,5.14472441 L33.3292378,5.2222315 C32.6456409,5.26797953 32.3356016,5.50051181 32.3356016,5.93811654 C32.3356016,6.38487087 32.723148,6.64485197 33.256074,6.64485197 C33.5715565,6.67679043 33.8864936,6.57932674 34.1287887,6.37477267 C34.3710838,6.17021859 34.5199893,5.8760899 34.5414173,5.55971969 L34.5414063,5.55970866 Z" id="Shape"></path>
                        <path d="M37.0502504,2.42379685 L37.9932882,2.42379685 L37.9932882,3.18490079 L38.0664961,3.18490079 C38.2830815,2.64285636 38.8243764,2.30220859 39.4067701,2.34143937 C39.5534996,2.33946669 39.7000198,2.35318079 39.8438346,2.38234803 L39.8438346,3.34911969 C39.6640536,3.31070427 39.4808009,3.29086411 39.2969638,3.28991181 C38.9702391,3.26057105 38.6463164,3.37056833 38.4050195,3.59279725 C38.1637225,3.81502616 38.0274915,4.12881972 38.0298976,4.45685039 L38.0298976,7.38768976 L37.0502504,7.38768976 L37.0502504,2.42379685 Z" id="Shape"></path>
                        <path d="M40.7448945,7.88446929 L41.7471402,7.88446929 C41.8300378,8.24456693 42.2444929,8.47709921 42.9054803,8.47709921 C43.7214819,8.47709921 44.2048457,8.08955276 44.2048457,7.43340472 L44.2048457,6.48067717 L44.1316378,6.48067717 C43.8183296,7.02446314 43.226504,7.34657828 42.5997402,7.31444882 C41.332674,7.31444882 40.5489606,6.3348126 40.5489606,4.84866299 C40.5489606,3.33511969 41.3412835,2.34143937 42.6094299,2.34143937 C43.2517323,2.31907262 43.8529325,2.65662757 44.1682362,3.21665984 L44.2457433,3.21665984 L44.2457433,2.42379685 L45.1844709,2.42379685 L45.1844709,7.42852126 C45.1844709,8.56372283 44.2952614,9.28391811 42.8914693,9.28391811 C41.6513228,9.2839622 40.8493102,8.72793071 40.7448945,7.88446929 Z M44.2231449,4.84382362 C44.2231449,3.85500472 43.7117921,3.22149921 42.8774913,3.22149921 C42.0345701,3.22149921 41.5608961,3.8550378 41.5608961,4.84382362 C41.5608961,5.83314961 42.0345701,6.46668819 42.8774913,6.46668819 C43.7171827,6.46668819 44.2231449,5.838 44.2231449,4.84377953 L44.2231449,4.84382362 Z" id="Shape"></path>
                        <path d="M50.9428142,6.04738268 C50.6681133,6.98370652 49.7620177,7.58867579 48.7919181,7.48346299 C48.1300179,7.50093616 47.4938949,7.22657934 47.0523288,6.73318639 C46.6107626,6.23979344 46.4083941,5.57724452 46.4989165,4.92133071 C46.4108018,4.2635958 46.6124138,3.59998837 47.0515206,3.10242971 C47.4906274,2.60487106 48.1240211,2.32232083 48.7876079,2.32797953 C50.1687906,2.32797953 51.002022,3.27160157 51.002022,4.83034173 L51.002022,5.17214016 L47.496863,5.17214016 L47.496863,5.2270378 C47.4658447,5.59538126 47.5916449,5.95972035 47.8433253,6.23045274 C48.0950057,6.50118513 48.4492134,6.65319015 48.8188378,6.64908504 C49.2981139,6.70662249 49.7646563,6.46888524 49.9997874,6.04730551 L50.9428142,6.04738268 Z M47.4968299,4.44766772 L50.0040535,4.44766772 C50.0290252,4.11078631 49.9105715,3.77902449 49.6778832,3.53413916 C49.4451949,3.28925383 49.1199122,3.15401946 48.7821953,3.1617622 C48.4399049,3.15746479 48.1103852,3.29158206 47.8683842,3.53369095 C47.6263833,3.77579983 47.492413,4.10537928 47.496863,4.44766772 L47.4968299,4.44766772 Z" id="Shape"></path>
                        <path d="M52.317537,2.42379685 L53.2606299,2.42379685 L53.2606299,3.18490079 L53.3338378,3.18490079 C53.5504233,2.64285636 54.0917182,2.30220859 54.6741118,2.34143937 C54.8208413,2.33946669 54.9673615,2.35318079 55.1111764,2.38234803 L55.1111764,3.34911969 C54.9313953,3.31070427 54.7481426,3.29086411 54.5643055,3.28991181 C54.2375699,3.26055125 53.9136293,3.37053963 53.6723173,3.59277081 C53.4310053,3.81500198 53.2947653,4.12880712 53.2971732,4.45685039 L53.2971732,7.38768976 L52.317537,7.38768976 L52.317537,2.42379685 Z" id="Shape"></path>
                        <path d="M58.6410504,4.90357165 C58.6410504,3.33507559 59.4473732,2.34143937 60.7015197,2.34143937 C61.3348012,2.31225999 61.927928,2.65159214 62.2237276,3.21230551 L62.2969354,3.21230551 L62.2969354,0.486053543 L63.2765717,0.486053543 L63.2765717,7.38765669 L62.3378441,7.38765669 L62.3378441,6.60340315 L62.260315,6.60340315 C61.9421558,7.15946439 61.3417215,7.49306068 60.7015087,7.46946299 C59.4387528,7.46947402 58.6410504,6.4758378 58.6410504,4.90357165 Z M59.6530189,4.90357165 C59.6530189,5.95641575 60.1493024,6.58995433 60.9793039,6.58995433 C61.8049732,6.58995433 62.3152677,5.94727717 62.3152677,4.90788189 C62.3152677,3.87333701 61.7996157,3.22149921 60.9793039,3.22149921 C60.1546488,3.22149921 59.6529858,3.85937008 59.6529858,4.90357165 L59.6530189,4.90357165 Z" id="Shape"></path>
                        <path d="M64.6006961,5.98386457 C64.6006961,5.09034488 65.2659937,4.57523307 66.4469323,4.5020252 L67.7915165,4.42451811 L67.7915165,3.99606299 C67.7915165,3.47179055 67.4448787,3.17575118 66.7752819,3.17575118 C66.228411,3.17575118 65.849474,3.37652441 65.740737,3.72747244 L64.7923197,3.72747244 C64.8924362,2.87486142 65.6944488,2.32799055 66.8204898,2.32799055 C68.0649575,2.32799055 68.7668535,2.94751811 68.7668535,3.99606299 L68.7668535,7.38765669 L67.8238157,7.38765669 L67.8238157,6.69007087 L67.7463087,6.69007087 C67.4260158,7.19950147 66.8564308,7.49723506 66.2553197,7.46944094 C65.8339264,7.51327287 65.4136564,7.37679915 65.098408,7.0937586 C64.7831596,6.81071805 64.6023563,6.40752806 64.6006961,5.98386457 Z M67.7915165,5.55970866 L67.7915165,5.14472441 L66.5793701,5.22222047 C65.8957732,5.2679685 65.5857339,5.50050079 65.5857339,5.93810551 C65.5857339,6.38485984 65.9732803,6.64484094 66.5062063,6.64484094 C66.8216816,6.67676989 67.1366084,6.57930331 67.3788957,6.3747526 C67.6211831,6.17020188 67.7700852,5.87608157 67.7915165,5.55971969 L67.7915165,5.55970866 Z" id="Shape"></path>
                        <path d="M70.3009449,2.42379685 L71.2439827,2.42379685 L71.2439827,3.21234961 L71.3171906,3.21234961 C71.5717644,2.63176623 72.1666299,2.27661769 72.7984898,2.32797953 C73.2877366,2.29119565 73.7671639,2.47888178 74.1014056,2.8380448 C74.4356472,3.19720782 74.5884317,3.68887186 74.5166205,4.17421575 L74.5166205,7.38760157 L73.5369843,7.38760157 L73.5369843,4.4202189 C73.5369843,3.62251654 73.1903465,3.22580945 72.4658409,3.22580945 C72.1339923,3.21035336 71.8119419,3.34059023 71.5841216,3.58237598 C71.3563013,3.82416173 71.2454323,4.15338222 71.2805811,4.48372598 L71.2805811,7.38765669 L70.3009449,7.38765669 L70.3009449,2.42379685 Z" id="Shape"></path>
                        <path d="M77.8462724,2.32799055 C78.9626346,2.32799055 79.6925087,2.8474126 79.788326,3.72263307 L78.8485181,3.72263307 C78.7581244,3.3582252 78.4017638,3.12570394 77.8462724,3.12570394 C77.2994016,3.12570394 76.8839102,3.38514488 76.8839102,3.77269134 C76.8839102,4.06922677 77.1347417,4.25605512 77.6730031,4.37931024 L78.4975701,4.5703937 C79.4416882,4.78946614 79.8841323,5.19531181 79.8841323,5.92466772 C79.8841323,6.85909606 79.0132661,7.48347402 77.8279732,7.48347402 C76.6470236,7.48347402 75.8773102,6.95005197 75.7901134,6.07053228 L76.7708299,6.07053228 C76.9447628,6.50137537 77.3908505,6.75732619 77.8505827,6.69005984 C78.4609717,6.69005984 78.8948173,6.41667402 78.8948173,6.01992283 C78.8948173,5.72388346 78.662285,5.53225984 78.1649323,5.41384409 L77.2994016,5.21307087 C76.3552835,4.98968819 75.9182189,4.56608346 75.9182189,3.82757795 C75.9182079,2.94752913 76.7245307,2.32799055 77.8462724,2.32799055 Z" id="Shape"></path>
                    </g>
                </g>
            </g>
            <g id="Group" transform="translate(38.582677, 18.740157)" fill="#FFFFFF">
                <polygon id="Shape" points="0.218543307 1.17609921 2.26825354 1.17609921 2.26825354 14.8657402 0.218543307 14.8657402"></polygon>
                <polygon id="Shape" points="4.73779843 6.18517795 5.85739055 1.17609921 7.8489622 1.17609921 6.49253858 6.18517795"></polygon>
                <path d="M15.5945559,11.1657276 L10.3766457,11.1657276 L9.1235685,14.8657512 L6.91345354,14.8657512 L11.8557843,1.17611024 L14.1520047,1.17611024 L19.0943354,14.8657512 L16.8465638,14.8657512 L15.5945559,11.1657276 Z M10.9170567,9.45835591 L15.0531197,9.45835591 L13.0141795,3.4529622 L12.9571213,3.4529622 L10.9170567,9.45835591 Z" id="Shape"></path>
                <path d="M29.7670205,9.87606299 C29.7670205,12.977537 28.1070173,14.970178 25.6019433,14.970178 C24.3070924,15.0379122 23.0874137,14.3597016 22.4617213,13.2240362 L22.4143197,13.2240362 L22.4143197,18.1674472 L20.3656898,18.1674472 L20.3656898,4.88473228 L22.348652,4.88473228 L22.348652,6.54472441 L22.3863307,6.54472441 C23.0398202,5.41617881 24.2608141,4.73826013 25.5642315,4.78029449 C28.0973276,4.78031654 29.7670205,6.78264724 29.7670205,9.87606299 Z M27.6613323,9.87606299 C27.6613323,7.85488189 26.6170976,6.52645827 25.0238425,6.52645827 C23.4585764,6.52645827 22.4057323,7.88288189 22.4057323,9.87606299 C22.4057323,11.8870142 23.4585764,13.233748 25.0238425,13.233748 C26.6171087,13.233726 27.6613323,11.9149811 27.6613323,9.87606299 Z" id="Shape"></path>
                <path d="M40.7513543,9.87606299 C40.7513543,12.977537 39.0913512,14.970178 36.5862772,14.970178 C35.2914263,15.0379122 34.0717475,14.3597016 33.4460551,13.2240362 L33.3986535,13.2240362 L33.3986535,18.1674472 L31.3505858,18.1674472 L31.3505858,4.88473228 L33.3330079,4.88473228 L33.3330079,6.54472441 L33.3707087,6.54472441 C34.0241981,5.41617881 35.2451921,4.73826013 36.5486094,4.78029449 C39.0816614,4.78031654 40.7513543,6.78264724 40.7513543,9.87606299 Z M38.6456661,9.87606299 C38.6456661,7.85488189 37.6014315,6.52645827 36.0081764,6.52645827 C34.4429102,6.52645827 33.3900661,7.88288189 33.3900661,9.87606299 C33.3900661,11.8870142 34.4429102,13.233748 36.0081764,13.233748 C37.6014315,13.233726 38.6456661,11.9149811 38.6456661,9.87606299 Z" id="Shape"></path>
                <path d="M48.0114346,11.051611 C48.1632299,12.409115 49.4819858,13.3004299 51.2840724,13.3004299 C53.0108236,13.3004299 54.2531307,12.4090709 54.2531307,11.185052 C54.2531307,10.1225181 53.5038661,9.48631181 51.7297575,9.05030551 L49.9556488,8.62239055 C47.4419543,8.01527559 46.2749606,6.83970551 46.2749606,4.93210079 C46.2749606,2.57020157 48.3332803,0.947877165 51.2560394,0.947877165 C54.1486378,0.947877165 56.131622,2.57020157 56.1983701,4.93210079 L54.1303937,4.93210079 C54.0065984,3.5659874 52.8773165,2.74137638 51.2270031,2.74137638 C49.5766898,2.74137638 48.4474189,3.57568819 48.4474189,4.7900063 C48.4474189,5.75780315 49.1686945,6.32728346 50.9331134,6.76323465 L52.4413213,7.1335622 C55.2499748,7.79777953 56.4169354,8.92651024 56.4169354,10.928852 C56.4169354,13.4899039 54.376915,15.0939291 51.1322661,15.0939291 C48.0964598,15.0939291 46.0467606,13.5275827 45.9143449,11.0515669 L48.0114346,11.051611 Z" id="Shape"></path>
                <path d="M60.8393701,2.52283307 L60.8393701,4.88473228 L62.737285,4.88473228 L62.737285,6.50705669 L60.8393701,6.50705669 L60.8393701,12.0097181 C60.8393701,12.8644787 61.2193874,13.2627953 62.0536882,13.2627953 C62.2790016,13.2588664 62.5039504,13.2430439 62.7275953,13.2153937 L62.7275953,14.8280283 C62.3524926,14.898116 61.9712324,14.9298585 61.5897039,14.9227654 C59.569074,14.9227654 58.7810504,14.163811 58.7810504,12.2282173 L58.7810504,6.50705669 L57.3298457,6.50705669 L57.3298457,4.88473228 L58.7810063,4.88473228 L58.7810063,2.52283307 L60.8393701,2.52283307 Z" id="Shape"></path>
                <path d="M63.8352929,9.87606299 C63.8352929,6.73530079 65.6847591,4.76202835 68.5687811,4.76202835 C71.4624819,4.76202835 73.3033386,6.73525669 73.3033386,9.87606299 C73.3033386,13.0249055 71.4721717,14.9895575 68.5687811,14.9895575 C65.6664598,14.9895465 63.8352929,13.0248835 63.8352929,9.87606299 Z M71.2159496,9.87606299 C71.2159496,7.72139685 70.2287732,6.45002047 68.5687701,6.45002047 C66.9087669,6.45002047 65.9226709,7.73108661 65.9226709,9.87606299 C65.9226709,12.0387984 66.9087669,13.3004961 68.5687701,13.3004961 C70.2287732,13.3004961 71.2159055,12.0387874 71.2159055,9.87606299 L71.2159496,9.87606299 Z" id="Shape"></path>
                <path d="M74.9924,4.88473228 L76.9462929,4.88473228 L76.9462929,6.58347244 L76.9936945,6.58347244 C77.266172,5.48991635 78.2681713,4.73729305 79.3943417,4.78029449 C79.6304281,4.77947018 79.865863,4.80510948 80.0962378,4.85673228 L80.0962378,6.77291339 C79.7981932,6.68183988 79.4872815,6.64002505 79.1757654,6.64911811 C78.5733982,6.62472281 77.9904618,6.86484165 77.5800349,7.30641956 C77.169608,7.74799747 76.9727,8.34691244 77.0410189,8.94588976 L77.0410189,14.8657071 L74.992389,14.8657071 L74.9924,4.88473228 Z" id="Shape"></path>
                <path d="M89.5405606,11.9343606 C89.2649701,13.746148 87.5005402,14.9895354 85.2430677,14.9895354 C82.3396772,14.9895354 80.5375795,13.044252 80.5375795,9.92340945 C80.5375795,6.79233701 82.3493669,4.7620063 85.1569512,4.7620063 C87.9182362,4.7620063 89.6546772,6.65884094 89.6546772,9.68549764 L89.6546772,10.3873937 L82.605589,10.3873937 L82.605589,10.511189 C82.5397751,11.254216 82.7963435,11.9897096 83.3100314,12.5305842 C83.8237193,13.0714587 84.5450161,13.3655832 85.2904472,13.3381417 C86.2846041,13.4312909 87.2218994,12.8604195 87.5952882,11.9343496 L89.5405606,11.9343606 Z M82.6152694,8.95559055 L87.604978,8.95559055 C87.6422646,8.28785258 87.3992819,7.63483415 86.9345776,7.15388284 C86.4698732,6.67293152 85.8255869,6.4076603 85.1569622,6.4219874 C84.4830548,6.41800691 83.8354804,6.68340088 83.3581896,7.15917437 C82.8808987,7.63494787 82.6134441,8.28167393 82.6152694,8.95559055 Z" id="Shape"></path>
            </g>
        </g>
    </g>
</svg>