<?xml version="1.0" encoding="utf-8"?>
<!-- Generator: Adobe Illustrator 22.1.0, SVG Export Plug-In . SVG Version: 6.00 Build 0)  -->
<svg version="1.1" id="Calque_1" xmlns="http://www.w3.org/2000/svg" xmlns:xlink="http://www.w3.org/1999/xlink" x="0px" y="0px"
	 viewBox="0 0 334 334" style="enable-background:new 0 0 334 334;" xml:space="preserve">
<style type="text/css">
	.st0{fill:#161616;}
	.st1{fill:#FFFFFF;}
</style>
<g>
	<path class="st0" d="M215,334h-96C53.3,334,0,280.7,0,215v-96C0,53.3,53.3,0,119,0h96c65.7,0,119,53.3,119,119v96
		C334,280.7,280.7,334,215,334z"/>
</g>
<g>
	<path class="st1" d="M120.7,100.6c-0.1,1.5-0.2,3.4-0.3,5.6c-0.2,2.2-0.4,4.6-0.6,7.1c-0.2,2.5-0.4,5-0.7,7.6s-0.5,4.9-0.7,7.1
		c-0.2,2.1-0.4,4-0.5,5.5s-0.2,2.5-0.2,3c-0.2,3.9-0.5,7.5-0.7,10.9c-0.3,3.3-0.5,6.7-0.8,9.9c-0.3,3.3-0.6,6.7-0.9,10.2
		c-0.3,3.5-0.6,7.4-1,11.6c-0.3,4.2-0.7,8.9-1.2,14.1s-0.9,11.1-1.3,17.8l35.6-4c1.6-0.2,2.9-0.3,4-0.3c1.3,0,2,0.2,2.4,0.7
		c0.3,0.4,0.5,1.1,0.5,2.1c0,0.1,0,0.3-0.1,0.5s-0.2,0.6-0.4,1.3c-0.2,0.6-0.5,1.5-0.9,2.7s-0.9,2.9-1.5,5l-1.9,6.3
		c-0.6,2-1.2,3.8-1.8,5.4c-0.5,1.6-1.2,3-2,4.2s-1.8,2.1-3,2.8c-1.2,0.7-2.8,1.1-4.6,1.3c-1.2,0.1-2.8,0.2-4.9,0.3s-4.4,0.2-7.1,0.3
		c-2.7,0.1-5.6,0.2-8.7,0.3c-3.1,0.1-6.3,0.3-9.6,0.5c-3.2,0.1-6.4,0.2-9.7,0.2s-6.4,0.1-9.3,0.1c-2.9,0.1-5.6,0.1-8.1,0.2
		s-4.5,0.1-6.1,0.2c-1.5,0-2.6-0.1-3.2-0.4c-0.7-0.3-1-0.7-1-1.2c0-0.7,0.2-1.7,0.6-3c0.4-1.3,0.9-2.7,1.5-4.4
		c0.6-1.6,1.3-3.3,2.1-5s1.5-3.4,2.3-5.1l2.3-33.8c0.5-5.7,0.9-11.6,1.4-17.5s0.9-11.7,1.2-17.2l1.5-25.1c0.3-5.9,0.6-10.2,0.7-12.9
		c0.1-2.7,0.2-4.2,0.2-4.4c0.1-1.1,0.2-2.1,0.3-2.8c0.1-0.8,0.2-1.4,0.3-1.9s0.4-0.9,0.6-1.1c0.3-0.3,0.7-0.4,1.3-0.6l30.2-7.9
		c0.6-0.3,1.4-0.4,2.3-0.4c0.6,0,1.1,0.2,1.3,0.6c0.3,0.4,0.4,1.2,0.4,2.3c0,0.1,0,0.3,0,0.5C120.8,100.2,120.7,100.4,120.7,100.6z"
		/>
	<path class="st1" d="M169.6,235.1c-1.1-0.3-1.9-0.8-2.3-1.5c-0.4-0.7-0.6-1.4-0.6-2.2c0-0.2,0-0.3,0-0.4s0-0.2,0-0.4
		c0.5-6.8,1-14,1.5-21.5s1.1-15.1,1.8-22.8c0.6-7.7,1.3-15.5,1.9-23.2c0.6-7.7,1.3-15.2,1.9-22.4h-0.1c-0.2,0-0.9,0.2-1.9,0.6
		c-1.1,0.4-2.3,0.9-3.6,1.3c-1.3,0.5-2.7,0.9-4.1,1.3s-2.5,0.6-3.4,0.6c-0.7,0-1.3-0.3-1.6-0.9c-0.3-0.6-0.5-1.3-0.5-2.1
		c0-0.6,0.1-1.1,0.3-1.6c1.5-4.9,3.1-9.5,4.8-13.8s3.3-8.7,5-13.3c4.4-2.6,8.9-4.8,13.6-6.8c4.7-1.9,9.4-3.5,14.2-4.8
		c4.8-1.3,9.6-2.3,14.3-2.9c4.8-0.7,9.4-1,13.8-1c6.2,0,12.1,0.7,17.7,2.2c5.5,1.5,10.3,3.6,14.4,6.6c4.1,2.9,7.3,6.6,9.7,11.1
		c2.4,4.5,3.6,9.7,3.6,15.7c0,2.6-0.5,5.1-1.5,7.5s-2.4,4.7-4,6.9s-3.5,4.2-5.5,6.1c-2,1.9-4,3.6-5.9,5.1c2.8,2.2,5.2,4.2,7.4,6
		c2.2,1.8,4.1,3.7,5.6,5.6c1.5,2,2.7,4.2,3.5,6.6s1.2,5.4,1.2,8.9c0,5.3-0.8,10.4-2.5,15.2c-1.7,4.8-4,9.3-7,13.4
		s-6.4,7.9-10.5,11.2c-4,3.3-8.4,6.2-13.1,8.6s-9.7,4.2-15,5.5c-5.2,1.3-10.5,1.9-15.9,1.9c-1.9,0-4.6-0.2-7.8-0.7
		c-3.3-0.4-6.7-1-10.3-1.6c-3.6-0.6-7.1-1.3-10.6-2C174.8,236.4,171.9,235.7,169.6,235.1z M209.2,131.2c-1.1,7.5-2,15-2.8,22.7
		c-0.7,7.7-1.4,15.1-1.9,22.4c-0.5,7.2-1,14.1-1.4,20.6s-0.8,12.3-1.2,17.4c2.3,0,4.8-0.1,7.4-0.4s5.3-0.8,7.9-1.5s5.2-1.6,7.7-2.7
		s4.7-2.5,6.6-4.1s3.4-3.6,4.6-5.8c1.1-2.2,1.7-4.8,1.7-7.7c0-1.8-0.5-3.3-1.5-4.7c-1-1.4-2.2-2.5-3.7-3.5s-3.2-1.8-5-2.5
		s-3.6-1.2-5.4-1.6c-1.7-0.4-3.4-0.7-4.8-0.9c-1.5-0.2-2.6-0.4-3.3-0.5c-0.8-0.1-1.3-0.4-1.5-0.9s-0.3-1.1-0.3-1.9s0.5-2.1,1.4-3.7
		c0.9-1.6,2.2-3.9,3.8-6.7l3.6-6.3c1.5-0.6,3.2-1.4,5-2.4s3.5-2,5-3.3c1.5-1.2,2.8-2.6,3.9-4.2c1-1.5,1.5-3.2,1.5-5.1
		c0-5.2-1-9.1-3.1-11.9c-2-2.7-5-4.1-8.8-4.1C220.2,127.8,215.1,129,209.2,131.2z"/>
</g>
</svg>
